<?xml version="1.0" encoding="utf-8"?>
<!-- Generator: Adobe Illustrator 16.0.0, SVG Export Plug-In . SVG Version: 6.00 Build 0)  -->
<!DOCTYPE svg PUBLIC "-//W3C//DTD SVG 1.1//EN" "http://www.w3.org/Graphics/SVG/1.1/DTD/svg11.dtd">
<svg version="1.1" id="Layer_1" xmlns="http://www.w3.org/2000/svg" xmlns:xlink="http://www.w3.org/1999/xlink" x="0px" y="0px"
	 width="120px" height="120px" viewBox="0 0 120 120" enable-background="new 0 0 120 120" xml:space="preserve">
<g>
	<circle opacity="0.3" fill="#00C762" cx="60" cy="60" r="59.333" id="mednansky-circle" />
	<polygon fill="#F4F4F4" points="79.06,66.577 76.013,97.414 60.681,107.771 45.172,97.414 42.145,66.577 60.624,76.83 	"/>
	<polygon fill="#181815" points="79.136,56.761 82.651,17.716 36.98,17.716 40.761,56.64 29.643,54.607 30.59,61.426 89.771,61.426 
		90.716,54.607 	"/>
	<polygon fill="#80F180" points="60,52.52 48.577,52.52 48.577,32.913 51.987,32.913 51.987,49.11 60,49.11 	"/>
	<polygon fill="#80F180" points="50.218,87.041 55.454,82.692 60.628,85.899 65.802,82.692 71.028,87.034 74.212,85.246 
		66.095,78.501 60.628,81.888 55.163,78.501 47.035,85.254 	"/>
</g>
</svg>
