<?xml version="1.0" encoding="utf-8"?>
<!-- Generator: Adobe Illustrator 16.0.0, SVG Export Plug-In . SVG Version: 6.00 Build 0)  -->
<!DOCTYPE svg PUBLIC "-//W3C//DTD SVG 1.1//EN" "http://www.w3.org/Graphics/SVG/1.1/DTD/svg11.dtd">
<svg version="1.1" xmlns="http://www.w3.org/2000/svg" xmlns:xlink="http://www.w3.org/1999/xlink" x="0px" y="0px" width="100px"
	 height="100px" viewBox="0 0 100 100" enable-background="new 0 0 100 100" xml:space="preserve">
<g id="Layer_1" display="none">
	<g display="inline">
		<g>
			<path fill="#848484" d="M32.607,35.57c0-9.132,8.302-17.434,17.932-17.434c9.048,0,16.934,7.472,16.934,16.603
				c0,16.602-19.922,16.602-14.111,29.885H45.06c-4.98-17.434,14.111-17.434,14.111-29.471c0-5.394-3.735-8.964-9.131-8.964
				c-5.396,0-9.131,3.984-9.131,9.381H32.607z"/>
			<circle fill="#848484" cx="49.393" cy="75.712" r="6.406"/>
		</g>
	</g>
</g>
<g id="Layer_2">
	<path fill="#848484" d="M50.634,97.367c0,0,29.248-42.037,29.248-64.185c0-16.88-13.684-30.56-30.563-30.56
		c-16.878,0-30.562,13.68-30.562,30.56c0,22.183,29.247,64.185,29.247,64.185H50.634z M49.318,19.508
		c7.174,0,12.99,5.817,12.99,12.991c0,7.174-5.816,12.991-12.99,12.991c-7.175,0-12.99-5.817-12.99-12.991
		C36.328,25.326,42.144,19.508,49.318,19.508z"/>
</g>
</svg>
