<?xml version="1.0" encoding="utf-8"?>
<!-- Generator: Adobe Illustrator 16.0.0, SVG Export Plug-In . SVG Version: 6.00 Build 0)  -->
<!DOCTYPE svg PUBLIC "-//W3C//DTD SVG 1.1//EN" "http://www.w3.org/Graphics/SVG/1.1/DTD/svg11.dtd">
<svg version="1.1" id="Layer_1" xmlns="http://www.w3.org/2000/svg" xmlns:xlink="http://www.w3.org/1999/xlink" x="0px" y="0px"
	 width="524.264px" height="307.6px" viewBox="0 0 524.264 307.6" enable-background="new 0 0 524.264 307.6" xml:space="preserve">
<g id="kastiel2" display="none">
	<polyline display="inline" fill="#FFFFFF" points="20.129,278.626 34.033,278.626 34.033,292.53 47.937,292.53 47.937,306.434 
		0,306.85 0,264.724 20.129,264.724 20.129,278.626 34.033,278.626 34.033,292.53 	"/>
	
		<text transform="matrix(1 0 0 1 4.6611 303.1543)" display="inline" fill="#006531" font-family="'Fugue-Regular'" font-size="27.6503">2</text>
	<path display="inline" fill="#FFFFFF" d="M389.122,21.633c-12.557,0-22.734,10.179-22.734,22.735H334.59v-25.12h-34.336v25.12
		H173.758v153.455h-52.767v47.006h26.805v3.07c0,12.557,10.179,22.734,22.735,22.734c12.556,0,22.735-10.18,22.735-22.734
		c0-0.883-0.056-1.754-0.154-2.611v-0.459v-3.223h177.884V58.088c4.149,5.476,10.724,9.015,18.125,9.015
		c12.557,0,22.734-10.179,22.734-22.735C411.857,31.812,401.679,21.633,389.122,21.633z"/>
	<circle display="inline" fill="#006531" cx="204.634" cy="65.025" r="8.295"/>
	<circle display="inline" fill="#006531" cx="389.634" cy="44.435" r="8.295"/>
	<circle display="inline" fill="#006531" cx="204.634" cy="113.952" r="8.295"/>
	<circle display="inline" fill="#006531" cx="347.437" cy="113.951" r="8.295"/>
	<circle display="inline" fill="#006531" cx="347.437" cy="206.042" r="8.295"/>
	<circle display="inline" fill="#006531" cx="347.437" cy="153.8" r="8.295"/>
	
		<line display="inline" fill="none" stroke="#969D93" stroke-width="7" stroke-linejoin="round" stroke-miterlimit="10" x1="308.259" y1="132.364" x2="326.692" y2="132.364"/>
	
		<line display="inline" fill="none" stroke="#969D93" stroke-width="7" stroke-linejoin="round" stroke-miterlimit="10" x1="308.259" y1="123.158" x2="326.692" y2="123.158"/>
	
		<line display="inline" fill="none" stroke="#969D93" stroke-width="7" stroke-linejoin="round" stroke-miterlimit="10" x1="308.259" y1="113.952" x2="326.692" y2="113.952"/>
	
		<line display="inline" fill="none" stroke="#969D93" stroke-width="7" stroke-linejoin="round" stroke-miterlimit="10" x1="308.259" y1="104.746" x2="326.692" y2="104.746"/>
	<g display="inline">
		<path fill="#969D93" d="M227.665,209.269h-6.271v-6.453h6.271V209.269z"/>
	</g>
	<g display="inline">
		<path fill="#969D93" d="M265.294,209.269h-6.271v-6.453h6.271V209.269z"/>
	</g>
	<g display="inline">
		<path fill="#969D93" d="M190.496,172.463h-6.452v-6.162h6.452V172.463z M190.496,135.488h-6.452v-6.163h6.452V135.488z"/>
	</g>
	<rect x="184.044" y="203.104" display="inline" fill="#969D93" width="6.452" height="6.162"/>
	<rect x="296.19" y="203.104" display="inline" fill="#969D93" width="6.451" height="6.162"/>
	<g display="inline">
		<path fill="#969D93" d="M265.294,98.974h-6.271v-6.452h6.271V98.974z M227.665,98.974h-6.271v-6.452h6.271V98.974z"/>
	</g>
	<rect x="296.19" y="166.302" display="inline" fill="#969D93" width="6.451" height="6.162"/>
	<rect x="296.19" y="129.326" display="inline" fill="#969D93" width="6.451" height="6.163"/>
	<rect x="296.19" y="92.811" display="inline" fill="#969D93" width="6.451" height="6.163"/>
	<rect x="184.044" y="92.811" display="inline" fill="#969D93" width="6.452" height="6.163"/>
</g>
<g id="kastiel1">
	<path fill="#FFFFFF" d="M389.978,21.8c-12.642,0-22.891,10.149-22.891,22.668h-32.016V19.422h-34.569v25.046h-127.36V197.47
		h-42.081l-15.046-14.9l-12.514,12.393l16.515,16.354v19.179l-16.515,16.354l12.514,12.391l15.046-14.897h15.942v3.062
		c0,12.521,10.248,22.671,22.89,22.671s22.89-10.15,22.89-22.671c0-0.881-0.056-1.747-0.155-2.604v-0.455v-3.214h179.1V58.147
		c4.181,5.46,10.797,8.988,18.248,8.988c12.644,0,22.893-10.148,22.893-22.667C412.867,31.949,402.618,21.8,389.978,21.8z"/>
	<circle id="zastavka1" fill="#006531" cx="204.229" cy="65.063" r="8.295"/>
	<circle id="zastavka8" fill="#006531" cx="224.335" cy="161.285" r="8.295"/>
	
		<line fill="none" stroke="#969D93" stroke-width="7" stroke-linejoin="round" stroke-miterlimit="10" x1="344.729" y1="123.034" x2="344.729" y2="104.655"/>
	
		<line fill="none" stroke="#969D93" stroke-width="7" stroke-linejoin="round" stroke-miterlimit="10" x1="307.655" y1="104.655" x2="307.655" y2="123.034"/>
	
		<line fill="none" stroke="#969D93" stroke-width="7" stroke-linejoin="round" stroke-miterlimit="10" x1="316.924" y1="104.655" x2="316.924" y2="123.034"/>
	
		<line fill="none" stroke="#969D93" stroke-width="7" stroke-linejoin="round" stroke-miterlimit="10" x1="326.19" y1="104.655" x2="326.19" y2="123.034"/>
	
		<line fill="none" stroke="#969D93" stroke-width="7" stroke-linejoin="round" stroke-miterlimit="10" x1="335.46" y1="104.655" x2="335.46" y2="123.034"/>
	<g>
		<path fill="#80F180" d="M247.377,223.335l-5.102-4.041l17.006-20.209h6.12l17.008,20.209l-5.102,4.041l-11.227-14.482
			l-0.682-1.146v47.962h-6.122v-47.962l-0.68,1.146L247.377,223.335z"/>
	</g>
	<g>
		<path fill="#969D93" d="M227.417,208.88h-6.315v-6.434h6.315V208.88z"/>
	</g>
	<g>
		<path fill="#969D93" d="M265.304,98.911h-6.313v-6.432h6.313V98.911z M227.417,98.911h-6.315v-6.432h6.315V98.911z"/>
	</g>
	<rect x="183.499" y="202.735" fill="#969D93" width="6.496" height="6.145"/>
	<rect x="296.41" y="202.735" fill="#969D93" width="6.497" height="6.145"/>
	<g>
		<path fill="#969D93" d="M265.304,98.911h-6.313v-6.432h6.313V98.911z M227.417,98.911h-6.315v-6.432h6.315V98.911z"/>
	</g>
	<rect x="296.41" y="166.041" fill="#969D93" width="6.497" height="6.144"/>
	<rect x="296.41" y="129.174" fill="#969D93" width="6.497" height="6.145"/>
	<rect x="296.41" y="92.767" fill="#969D93" width="6.497" height="6.144"/>
	<rect x="183.499" y="92.767" fill="#969D93" width="6.496" height="6.144"/>
	<text transform="matrix(1.0098 0 0 1 311.4277 69.9648)" fill="#006531" font-family="'Fugue-Regular'" font-size="20.217">Kasa</text>
	<polyline fill="#FFFFFF" points="19.847,279.032 33.555,279.032 33.555,292.896 47.265,292.896 47.265,306.759 0,307.174 
		0,265.171 19.847,265.171 19.847,279.032 33.555,279.032 33.555,292.896 	"/>
	<text transform="matrix(1.0098 0 0 1 3.6924 303.4883)" fill="#006531" font-family="'Fugue-Regular'" font-size="27.5686">1</text>
</g>
</svg>
