<?xml version="1.0" encoding="utf-8"?>
<!-- Generator: Adobe Illustrator 16.0.0, SVG Export Plug-In . SVG Version: 6.00 Build 0)  -->
<!DOCTYPE svg PUBLIC "-//W3C//DTD SVG 1.1//EN" "http://www.w3.org/Graphics/SVG/1.1/DTD/svg11.dtd">
<svg version="1.1" id="Layer_1" xmlns="http://www.w3.org/2000/svg" xmlns:xlink="http://www.w3.org/1999/xlink" x="0px" y="0px"
	 width="524.264px" height="307.6px" viewBox="0 0 524.264 307.6" enable-background="new 0 0 524.264 307.6" xml:space="preserve">
<path fill="none" stroke="#F2FDFF" stroke-width="14.2254" stroke-miterlimit="10" d="M225.405,126.583"/>
<path fill="none" stroke="#5D5D5D" stroke-width="18.6024" stroke-miterlimit="10" d="M225.405,126.583"/>
<g>
	<g>
		<path fill="#FFFFFF" d="M169.876,277.257c-2.108,0.001-4.282-0.151-6.459-0.452c-5.156-0.71-9.545-1.923-14.191-3.206
			c-5.669-1.566-12.095-3.342-21.597-4.65c-3.856-0.532-8.206-0.802-12.928-0.802c-14.752,0-31.71,2.617-46.671,4.927
			c-13.274,2.049-25.813,3.983-35.61,3.983c-2.758,0-5.169-0.147-7.37-0.451c-10.733-1.479-16.603-7.068-19.638-11.496
			c-3.602-5.256-5.187-11.756-4.348-17.833c2.978-21.616,32.325-46.763,89.719-76.879c9.647-5.062,20.393-13.477,33.998-24.13
			c25.438-19.919,60.275-47.199,112.728-70.654c11.753-5.256,24.025-9.574,34.853-13.383c10.46-3.68,20.339-7.156,27.671-10.746
			c3.696-1.811,8.343-4.62,13.262-7.595c14.246-8.615,31.975-19.337,47.975-19.337c1.563,0,3.104,0.103,4.578,0.306
			c12.874,1.773,19.214,8.986,22.265,14.725c3.417,6.426,4.643,14.719,3.452,23.351c-1.246,9.055-3.199,15.98-4.922,22.09
			c-1.217,4.313-2.268,8.039-2.741,11.486c-1.974,14.303-29.789,25.451-68.87,39.639c-10.305,3.741-19.204,6.972-23.581,9.203
			c-7.17,3.654-11.351,8.863-16.644,15.458c-5.521,6.878-12.391,15.438-24.568,24.135c-1.604,1.146-3.415,2.356-5.331,3.639
			c-9.98,6.676-23.648,15.819-29.326,29.817c-2.939,7.244-3.573,11.856-4.187,16.317l-0.055,0.399
			C207.758,261.107,191.87,277.256,169.876,277.257z M114.701,256.146c5.269,0,10.169,0.308,14.566,0.914
			c10.291,1.417,17.125,3.306,23.154,4.971c4.436,1.226,8.268,2.284,12.635,2.887c1.636,0.226,3.258,0.34,4.82,0.339
			c16.013-0.001,26.793-11.584,29.576-31.779l0.054-0.395c0.646-4.705,1.452-10.561,4.955-19.194
			c7.062-17.413,23.137-28.165,33.773-35.281c1.837-1.229,3.573-2.39,5.028-3.429c10.831-7.735,16.863-15.251,22.185-21.882
			c5.701-7.104,11.087-13.813,20.553-18.637c5.036-2.567,14.258-5.915,24.936-9.791c13.562-4.923,28.933-10.503,41.376-16.396
			c18.854-8.928,19.675-13.414,19.701-13.6c0.587-4.268,1.798-8.561,3.079-13.105c1.617-5.735,3.45-12.236,4.584-20.471
			c0.849-6.153,0.082-11.864-2.16-16.08c-2.562-4.819-6.915-7.59-13.308-8.471c-0.935-0.129-1.923-0.194-2.939-0.194
			c-12.653,0-28.795,9.762-41.765,17.605c-5.152,3.117-10.02,6.06-14.194,8.104c-7.963,3.9-18.165,7.489-28.965,11.289
			c-11.128,3.915-22.635,7.963-33.937,13.018c-51.111,22.855-85.279,49.611-110.229,69.148
			c-14.084,11.029-25.209,19.741-35.821,25.308c-69.453,36.444-82.068,58.179-83.406,67.892c-0.429,3.111,0.453,6.629,2.359,9.411
			c2.422,3.534,6.25,5.686,11.377,6.393c1.63,0.225,3.558,0.338,5.731,0.338c8.876,0,20.973-1.867,33.78-3.844
			C81.587,258.839,99.027,256.146,114.701,256.146z"/>
	</g>
	<g>
		<path fill="#FFFFFF" d="M282.109,141.904c-0.356-0.491-8.687-12.265-5.815-33.083c1.266-9.188,4.457-17.458,7.544-25.454
			c2.88-7.462,5.601-14.51,6.61-21.831l11.887,1.64c-1.199,8.701-4.302,16.739-7.302,24.512c-2.971,7.696-5.776,14.965-6.853,22.772
			c-2.171,15.745,3.444,24.108,3.684,24.457L282.109,141.904z"/>
	</g>
</g>
<circle fill="#006531" stroke="#80F180" stroke-width="2" stroke-miterlimit="10" cx="305.333" cy="15.369" r="11" id="park1"/>
<circle fill="#006531" stroke="#80F180" stroke-width="2" stroke-miterlimit="10" cx="327.876" cy="42.506" r="11" id="park2"/>
<circle fill="#006531" stroke="#80F180" stroke-width="2" stroke-miterlimit="10" cx="281.688" cy="103.968" r="11" id="park3"/>
<circle fill="#006531" stroke="#80F180" stroke-width="2" stroke-miterlimit="10" cx="270.688" cy="197.43" r="11" id="park4"/>
<circle fill="#006531" stroke="#80F180" stroke-width="2" stroke-miterlimit="10" cx="148.667" cy="216.145" r="11" id="park5" />
<circle fill="#006531" stroke="#80F180" stroke-width="2" stroke-miterlimit="10" cx="149.667" cy="93.968" r="10" id="park6"/>
<polygon fill="#FFFFFF" points="262.078,8.591 262.078,13.037 257.635,13.037 257.635,8.591 252.967,8.591 252.967,26.369 
	240.523,26.369 240.523,8.591 235.855,8.591 235.855,13.037 231.412,13.037 231.412,8.591 226.745,8.591 226.745,44.146 
	266.745,44.146 266.745,8.591 "/>
<!-- <circle fill="#E52351" stroke="#80F180" stroke-width="2" stroke-miterlimit="10" cx="270.688" cy="197.43" r="21.745"/> -->
<line fill="none" stroke="#2D3C27" stroke-width="6" stroke-miterlimit="10" x1="117" y1="67" x2="117" y2="97"/>
<line fill="none" stroke="#2D3C27" stroke-width="6" stroke-miterlimit="10" x1="107" y1="77" x2="127" y2="77"/>
<path fill="#00A6D8" d="M524.264,122.144c-52.028,1.249-95.22,10.917-131.729,29.462c-57.909,29.414-96.649,80.337-115.145,151.353
	l-1.208,4.641h41.397c26.686-94.697,94.408-142.373,206.684-145.438V122.144z"/>
</svg>
