<?xml version="1.0" encoding="utf-8"?>
<!-- Generator: Adobe Illustrator 16.0.0, SVG Export Plug-In . SVG Version: 6.00 Build 0)  -->
<!DOCTYPE svg PUBLIC "-//W3C//DTD SVG 1.1//EN" "http://www.w3.org/Graphics/SVG/1.1/DTD/svg11.dtd">
<svg version="1.1" xmlns="http://www.w3.org/2000/svg" xmlns:xlink="http://www.w3.org/1999/xlink" x="0px" y="0px" width="100px"
	 height="100px" viewBox="0 0 100 100" enable-background="new 0 0 100 100" xml:space="preserve">
<g id="Layer_1">
	<g>
		<g>
			<path fill="#848484" d="M25.229,29.41c0-12.997,11.815-24.812,25.521-24.812c12.878,0,24.101,10.635,24.101,23.629
				c0,23.628-28.354,23.628-20.083,42.533H42.952c-7.088-24.812,20.083-24.812,20.083-41.944c0-7.677-5.316-12.758-12.996-12.758
				S37.044,21.729,37.044,29.41H25.229z"/>
			<circle fill="#848484" cx="49.12" cy="86.54" r="9.116"/>
		</g>
	</g>
</g>
<g id="Layer_2" display="none">
	<path display="inline" fill="#848484" d="M50.634,97.367c0,0,29.248-42.037,29.248-64.185c0-16.88-13.684-30.56-30.563-30.56
		c-16.878,0-30.562,13.68-30.562,30.56c0,22.183,29.247,64.185,29.247,64.185H50.634z M49.318,19.508
		c7.174,0,12.99,5.817,12.99,12.991c0,7.174-5.816,12.991-12.99,12.991c-7.175,0-12.99-5.817-12.99-12.991
		C36.328,25.326,42.144,19.508,49.318,19.508z"/>
</g>
</svg>
