<?xml version="1.0" standalone="no"?>
<!DOCTYPE svg PUBLIC "-//W3C//DTD SVG 1.1//EN" "http://www.w3.org/Graphics/SVG/1.1/DTD/svg11.dtd" >
<svg xmlns="http://www.w3.org/2000/svg">
<metadata></metadata>
<defs>
<font id="fugueregular" horiz-adv-x="696" >
<font-face units-per-em="2048" ascent="1556" descent="-492" />
<missing-glyph horiz-adv-x="491" />
<glyph unicode="ff" horiz-adv-x="1064" d="M20 778v185h144v286q0 142 78.5 224.5t228.5 82.5l143 -20v-184l-153 20q-45 0 -68.5 -27.5t-23.5 -74.5v-307h286v286q0 142 79 224.5t229 82.5l102 -20v-184l-113 20q-45 0 -68.5 -27.5t-23.5 -74.5v-307h144v-185h-144v-778h-205v778h-286v-778h-205v778h-144z" />
<glyph unicode="fi" horiz-adv-x="983" d="M20 778v185h144v286q0 142 78.5 224.5t228.5 82.5l123 -20v-184l-133 20q-45 0 -68.5 -27.5t-23.5 -74.5v-307h491v-963h-203v778h-288v-778h-205v778h-144zM655 1311v205h205v-205h-205z" />
<glyph unicode="fl" horiz-adv-x="983" d="M20 778v185h144v286q0 142 78.5 224.5t228.5 82.5l123 -20v-184l-133 20q-45 0 -68.5 -27.5t-23.5 -74.5v-307h102v-185h-102v-778h-205v778h-144zM655 184v1352h205v-1352l21 -184h-205z" />
<glyph unicode="ffi" horiz-adv-x="1474" d="M20 778v185h144v286q0 142 78.5 224.5t228.5 82.5l143 -20v-184l-153 20q-45 0 -68.5 -27.5t-23.5 -74.5v-307h286v286q0 142 79 224.5t229 82.5l122 -20v-184l-133 20q-45 0 -68.5 -27.5t-23.5 -74.5v-307h492v-963h-205v778h-287v-778h-205v778h-286v-778h-205v778 h-144zM1147 1311v205h205v-205h-205z" />
<glyph unicode="ffl" horiz-adv-x="1474" d="M20 778v185h144v286q0 142 78.5 224.5t228.5 82.5l143 -20v-184l-153 20q-45 0 -68.5 -27.5t-23.5 -74.5v-307h286v286q0 142 79 224.5t229 82.5l122 -20v-184l-133 20q-45 0 -68.5 -27.5t-23.5 -74.5v-307h103v-185h-103v-778h-205v778h-286v-778h-205v778h-144z M1147 184v1352h205v-1352l20 -184h-205z" />
<glyph unicode=" "  horiz-adv-x="491" />
<glyph unicode="&#x09;" horiz-adv-x="491" />
<glyph unicode="&#xa0;" horiz-adv-x="491" />
<glyph unicode="!" horiz-adv-x="491" d="M123 0v246h246v-246h-246zM123 1495h246l-21 -532l-82 -615h-41l-82 615z" />
<glyph unicode="&#x22;" d="M143 963v532h144v-532h-144zM408 963v532h145v-532h-145z" />
<glyph unicode="#" horiz-adv-x="1474" d="M61 389v143h275l133 431h-244v143h289l121 389h143v-41l-108 -348h356l121 389h143v-41l-108 -348h231v-143h-276l-133 -431h245v-143h-288l-121 -389h-144v41l107 348h-354l-121 -389h-144v41l107 348h-230zM492 532h356l133 431h-356z" />
<glyph unicode="$" horiz-adv-x="1085" d="M102 430h203q-3 -72 38.5 -133.5t111.5 -87.5v221h176v-227q72 20 109.5 72.5t37.5 123.5q0 144 -174 211q-114 45 -225 103q-64 33 -108.5 65.5t-85.5 78t-62 105.5t-21 134q0 142 95.5 253t257.5 138v90h176v-90q160 -31 256 -154.5t96 -267.5h-203q2 71 -39 132 t-110 89v-221h-176v227q-74 -21 -111 -73t-37 -123q0 -64 41 -113.5t103 -83.5q86 -47 227 -104q305 -123 305 -396q0 -142 -95 -254t-257 -139v-88h-176v90q-107 20 -189.5 87t-123 154.5t-40.5 180.5z" />
<glyph unicode="%" horiz-adv-x="1392" d="M41 0l1147 1495h164l-1147 -1495h-164zM61 1198q0 134 87.5 226t230.5 92t230 -92t87 -226t-87 -225.5t-230 -91.5t-230.5 91.5t-87.5 225.5zM205 1198q0 -82 51 -132t123 -50t123 50t51 132t-51 132t-123 50t-123 -50t-51 -132zM696 297q0 134 87.5 225.5t230.5 91.5 t230 -91.5t87 -225.5t-87 -225.5t-230 -91.5t-230.5 91.5t-87.5 225.5zM840 297q0 -82 51 -132t123 -50t123 50t51 132t-51 132t-123 50t-123 -50t-51 -132z" />
<glyph unicode="&#x26;" horiz-adv-x="1515" d="M102 399q0 98 47.5 185t117 147t163.5 111l6 4q-170 187 -170 321q0 152 106.5 250.5t262.5 98.5t262.5 -98.5t106.5 -250.5q0 -105 -70.5 -203t-185.5 -159l-3 -2l224 -234l116 189q67 109 147.5 157t201.5 48h61v-185h-61q-68 0 -108.5 -32.5t-76.5 -90.5l-149 -245 l231 -410h-225l-123 219q-163 -239 -432 -239q-199 0 -324 117.5t-125 301.5zM307 399q0 -103 74.5 -169t171.5 -66q58 0 106 19t86 56.5t62.5 71.5t54.5 86l-295 312q-260 -138 -260 -310zM471 1157q0 -23 9.5 -48t31 -52.5t33 -42t40.5 -43.5l29 -29q93 51 139 103t46 112 q0 73 -46.5 115.5t-117.5 42.5q-72 0 -118 -42t-46 -116z" />
<glyph unicode="'" d="M143 963v532h410v-532h-410z" />
<glyph unicode="(" d="M92 758q0 142 31 272.5t81.5 230.5t120 187t140.5 147t149 105l82 -123q-88 -48 -166 -123.5t-143 -177t-103 -236t-38 -282.5q0 -149 38 -283.5t103 -236t143 -176.5t166 -123l-82 -123q-78 45 -149 105t-140.5 147t-120 187t-81.5 230.5t-31 272.5z" />
<glyph unicode=")" d="M0 -61q70 38 133.5 92.5t122 130.5t101.5 164.5t68.5 200t25.5 231.5q0 148 -38.5 282.5t-103.5 236t-143 177t-166 123.5l82 123q78 -45 149 -105t140.5 -147t120 -187t81.5 -230.5t31 -272.5t-31 -272.5t-81.5 -230.5t-120 -187t-140.5 -147t-149 -105z" />
<glyph unicode="*" horiz-adv-x="921" d="M61 1024v143h328v328h143v-225l160 160l103 -103l-160 -160h225v-143h-328v-328h-143v226l-160 -160l-102 102l160 160h-226z" />
<glyph unicode="+" horiz-adv-x="1105" d="M61 512v164h410v409h164v-409h409v-164h-409v-410h-164v410h-410z" />
<glyph unicode="," horiz-adv-x="499" d="M29 -164l215 481l194 -92l-194 -430h-215v41z" />
<glyph unicode="-" horiz-adv-x="655" d="M61 471v225h533v-225h-533z" />
<glyph unicode="." horiz-adv-x="368" d="M61 0v266h246v-266h-246z" />
<glyph unicode="/" horiz-adv-x="1044" d="M0 -82l901 1638h143l-901 -1638h-143z" />
<glyph unicode="0" horiz-adv-x="1126" d="M51 748q0 222 58 394t175.5 273t278.5 101q160 0 277.5 -101t176 -273t58.5 -394t-58.5 -394t-176 -273t-277.5 -101q-161 0 -278.5 101t-175.5 273t-58 394zM256 748q0 -174 31 -299.5t101 -199t175 -73.5t175 73.5t101 199t31 299.5q0 265 -76 418t-231 153t-231 -153 t-76 -418z" />
<glyph unicode="1" horiz-adv-x="942" d="M102 1044v41l287 410h246v-1495h-205v1229l-121 -185h-207z" />
<glyph unicode="2" horiz-adv-x="1126" d="M82 0v102q0 78 38.5 152.5t108.5 143t142.5 127.5t168 136t156.5 138q69 69 89 96q55 75 55 170q0 117 -80 184.5t-187 67.5t-187.5 -67.5t-80.5 -184.5v-61h-203v61q0 129 66.5 233.5t174 161t230.5 56.5q93 0 177.5 -30.5t150 -86.5t104.5 -143t39 -191q0 -53 -14 -104 t-32 -87t-50.5 -78t-52.5 -63.5t-55 -56.5q-79 -79 -180 -160t-165.5 -127.5t-110.5 -96t-46 -89.5h686v-203h-942z" />
<glyph unicode="3" horiz-adv-x="1126" d="M61 440h205q0 -115 82 -190.5t205 -75.5q121 0 204 85t83 202q0 135 -87 216t-221 81h-206v184l422 350h-625v203h778l123 -203l-438 -354q201 -11 329.5 -144.5t128.5 -332.5q0 -89 -35.5 -175t-98 -154t-156 -110t-201.5 -42q-211 0 -351.5 136t-140.5 324z" />
<glyph unicode="4" horiz-adv-x="1126" d="M41 389v195q159 232 312.5 460t227.5 340l74 111h267v-911h163v-195h-163v-389h-205v389h-676zM270 584h447v653q-308 -455 -447 -653z" />
<glyph unicode="5" horiz-adv-x="1187" d="M41 492h205q0 -131 94 -220.5t233 -89.5q142 0 235 88t93 232q0 151 -89.5 236.5t-238.5 90.5q-109 4 -358 -10l-92 195l174 481h686v-203h-557l-113 -284q145 19 260 16q240 -5 386.5 -145.5t146.5 -376.5q0 -145 -73 -265.5t-195.5 -188.5t-264.5 -68q-145 0 -268 70 t-193.5 188t-70.5 254z" />
<glyph unicode="6" horiz-adv-x="1126" d="M82 748q2 152 32.5 285t92.5 243.5t167.5 175t243.5 64.5q187 0 312.5 -121t124.5 -310h-205q0 111 -68 173.5t-172 62.5q-78 0 -139 -39t-97.5 -99t-59.5 -137.5t-31 -148t-7 -137.5q60 79 145.5 130.5t192.5 51.5q108 0 198 -39t149 -105.5t91.5 -153.5t32.5 -183 q0 -93 -33 -179t-92.5 -153.5t-150.5 -108t-199 -40.5q-132 0 -239.5 60.5t-173.5 164.5q-118 186 -115 543zM324 461q0 -118 79.5 -201.5t200.5 -83.5q122 0 199.5 80.5t77.5 204.5q0 125 -79 206t-206 81q-122 0 -197 -80.5t-75 -206.5z" />
<glyph unicode="7" horiz-adv-x="1003" d="M0 1292v203h983v-203q-11 -22 -31 -62.5t-81 -173.5t-120.5 -274.5t-140 -355.5t-149.5 -426h-205v41q205 595 508 1251h-764z" />
<glyph unicode="8" horiz-adv-x="1126" d="M72 410q0 127 56.5 220.5t158.5 149.5q-86 56 -135.5 140t-49.5 186q0 110 63.5 205t170 150t227.5 55t227.5 -55t170 -150t63.5 -205q0 -102 -49.5 -186.5t-136.5 -139.5q103 -56 160 -149.5t57 -220.5q0 -180 -140 -305t-352 -125t-351.5 125t-139.5 305zM276 420 q0 -107 82 -176.5t205 -69.5t205 69.5t82 176.5q0 114 -81 185t-206 71q-119 0 -203 -71.5t-84 -184.5zM307 1096q0 -91 69.5 -160.5t186.5 -69.5t186.5 69.5t69.5 160.5q0 98 -73.5 161.5t-182.5 63.5t-182.5 -63.5t-73.5 -161.5z" />
<glyph unicode="9" horiz-adv-x="1126" d="M41 1034q0 93 34 179.5t94.5 154t152.5 108t200 40.5q144 0 261 -79t178 -210q86 -188 83 -479q-2 -152 -32.5 -285t-92.5 -243.5t-167.5 -175t-243.5 -64.5q-187 0 -312 120.5t-124 309.5h204q0 -111 68 -173.5t172 -62.5q78 0 139 39t97.5 99t59.5 137.5t31 148 t7 137.5q-58 -85 -137.5 -133.5t-200.5 -48.5q-108 0 -198 39t-149 105.5t-91.5 153.5t-32.5 183zM246 1034q0 -123 81.5 -203.5t204.5 -80.5q122 0 196.5 79t74.5 205q0 118 -80 201.5t-201 83.5q-122 0 -199 -80.5t-77 -204.5z" />
<glyph unicode=":" horiz-adv-x="491" d="M123 82v246h246v-246h-246zM123 717v246h246v-246h-246z" />
<glyph unicode=";" horiz-adv-x="561" d="M29 -164v-41h215l213 471l-193 92zM193 717v246h245v-246h-245z" />
<glyph unicode="&#x3c;" horiz-adv-x="1105" d="M82 512v164l942 368v-161l-754 -289l754 -287v-164z" />
<glyph unicode="=" horiz-adv-x="1105" d="M61 328v164h983v-164h-983zM61 696v164h983v-164h-983z" />
<glyph unicode="&#x3e;" horiz-adv-x="1105" d="M82 143v164l752 287l-752 289v161l942 -368v-164z" />
<glyph unicode="?" horiz-adv-x="985" d="M63 1065q0 111 60.5 210.5t163.5 159.5t219 60q110 0 206.5 -55t154 -150t57.5 -205q0 -65 -16.5 -122t-44 -99t-62 -79.5t-70 -68t-69.5 -61t-60 -62t-40.5 -67t-12 -80.5t25.5 -98h-204q-23 78 -20.5 143t23 110.5t53.5 87t71.5 72.5t78 66.5t71 69t51.5 79.5t20 99 q0 99 -62.5 160t-162.5 61q-99 0 -162.5 -65.5t-63.5 -165.5v-41zM350 0v246h246v-246h-246z" />
<glyph unicode="@" horiz-adv-x="1884" d="M61 471q0 188 69 354.5t186.5 283.5t280.5 185t345 68q243 0 437 -109.5t303.5 -306t109.5 -444.5q0 -104 -22 -193t-66 -159t-116 -110t-165 -40q-78 0 -141.5 37.5t-93.5 105.5l-10 11l-11 -11q-93 -143 -278 -143q-165 0 -273.5 109.5t-123.5 310.5q-4 49 0 102 q13 194 126 307t271 113q165 0 260 -123l39 103h123v-656q0 -52 32 -82t80 -30q205 0 205 348q0 205 -81 364.5t-237.5 250.5t-367.5 91q-212 0 -375.5 -94.5t-252.5 -262t-89 -380.5t89 -380.5t252.5 -262t375.5 -94.5q144 0 225.5 53.5t79.5 140.5l133 -82 q-9 -84 -71.5 -145.5t-157 -91t-209.5 -29.5q-189 0 -353 67.5t-280 185.5t-182 283.5t-66 354.5zM676 420q19 -256 235 -256q99 0 160.5 68t67.5 178q3 61 0 122q-6 115 -67 180.5t-161 65.5q-101 0 -163.5 -67t-71.5 -189q-4 -53 0 -102z" />
<glyph unicode="A" horiz-adv-x="1331" d="M41 0l512 1495h225l512 -1495h-215l-133 389h-555l-131 -389h-215zM457 594h415l-206 614z" />
<glyph unicode="B" horiz-adv-x="1290" d="M164 0v1495h532q202 0 336.5 -114t134.5 -296q0 -101 -48.5 -184t-133.5 -135q95 -49 149 -137.5t54 -208.5q0 -189 -134 -304.5t-337 -115.5h-553zM379 205h348q98 0 172 61.5t74 163.5q0 114 -71.5 169.5t-174.5 55.5h-348v-450zM379 860h328q102 0 173.5 53.5 t71.5 161.5t-71.5 161.5t-173.5 53.5h-328v-430z" />
<glyph unicode="C" horiz-adv-x="1515" d="M82 745q0 218 99.5 399t276 286.5t392.5 105.5q171 0 329.5 -75.5t264.5 -211.5l-144 -143q-162 227 -440 227q-128 0 -234 -45t-177.5 -123.5t-110.5 -186t-39 -230.5q0 -166 67 -298t198 -210t306 -78q279 0 441 227l143 -143q-106 -136 -264.5 -211.5t-329.5 -75.5 q-221 0 -400 105t-278.5 284.5t-99.5 396.5z" />
<glyph unicode="D" horiz-adv-x="1351" d="M164 0v1495h338q218 0 393 -94t275 -265.5t100 -387.5t-100 -387.5t-275 -266t-393 -94.5h-338zM379 205h133q254 0 398.5 144.5t144.5 398.5q0 253 -144.5 397.5t-398.5 144.5h-133v-1085z" />
<glyph unicode="E" horiz-adv-x="1167" d="M164 0v1495h901v-205h-686v-430h665v-205h-665v-450h686v-205h-901z" />
<glyph unicode="F" horiz-adv-x="1126" d="M164 0v1495h901v-205h-686v-430h625v-205h-625v-655h-215z" />
<glyph unicode="G" horiz-adv-x="1648" d="M82 748q0 218 99.5 398t278.5 285t400 105q180 0 333 -75.5t263 -209.5l-147 -147q-75 108 -193 167.5t-266 59.5q-250 0 -400.5 -163.5t-150.5 -422.5q0 -256 150.5 -418.5t400.5 -162.5q225 0 378.5 132t168.5 339h-762v205h778l195 -195q-7 -137 -69.5 -262.5 t-162.5 -219t-238 -149t-288 -55.5q-216 0 -392.5 105t-276 285.5t-99.5 398.5z" />
<glyph unicode="H" horiz-adv-x="1331" d="M164 0v1495h215v-635h573v635h215v-1495h-215v655h-573v-655h-215z" />
<glyph unicode="I" horiz-adv-x="593" d="M154 0v205h34v1085h-34v205h286v-205h-34v-1085h34v-205h-286z" />
<glyph unicode="J" horiz-adv-x="573" d="M61 0h41q41 0 67 22t26 60v1413h215v-1393q0 -138 -85 -222.5t-223 -84.5l-41 21v184z" />
<glyph unicode="K" horiz-adv-x="1208" d="M164 0v1495h215v-614l553 614h256l-645 -735l665 -760h-274l-555 635v-635h-215z" />
<glyph unicode="L" horiz-adv-x="1085" d="M164 0v1495h215v-1290h625v-205h-840z" />
<glyph unicode="M" horiz-adv-x="1843" d="M164 0v1495h307l451 -954l450 954h307v-1495h-213v1206l-422 -878h-245l-422 878v-1206h-213z" />
<glyph unicode="N" horiz-adv-x="1413" d="M164 0v1495h235l637 -1106v1106h213v-1495h-235l-637 1126v-1126h-213z" />
<glyph unicode="O" horiz-adv-x="1740" d="M82 748q0 214 105.5 395.5t287 287t395.5 105.5q161 0 307 -62.5t251.5 -167.5t168 -251t62.5 -307t-62.5 -307t-168 -251.5t-251.5 -168t-307 -62.5t-307 62.5t-251 168t-167.5 251.5t-62.5 307zM297 745q0 -253 160.5 -417t412.5 -164t412 164t160 417q0 256 -160 421 t-412 165q-125 0 -232 -44t-181.5 -121.5t-117 -186t-42.5 -234.5z" />
<glyph unicode="P" horiz-adv-x="1208" d="M164 0v1495h543q201 0 330.5 -119.5t129.5 -310.5t-129.5 -310.5t-330.5 -119.5h-328v-635h-215zM379 840h338q99 0 167 58t68 167t-68 167t-167 58h-338v-450z" />
<glyph unicode="Q" horiz-adv-x="1761" d="M82 748q0 162 61.5 308t167 251.5t251.5 167t308 61.5t308.5 -61.5t251.5 -167t167 -251.5t62 -308q0 -265 -156 -474l238 -233v-41h-242l-135 129q-217 -170 -494 -170q-162 0 -308 62t-251.5 167t-167 251.5t-61.5 308.5zM295 748q0 -253 161.5 -418.5t413.5 -165.5 q200 0 347 106l-316 303l143 154l310 -307q90 145 90 328q0 256 -160.5 419.5t-413.5 163.5t-414 -164t-161 -419z" />
<glyph unicode="R" horiz-adv-x="1249" d="M164 0v1495h532q125 0 228.5 -48.5t168 -145.5t64.5 -226q0 -124 -68 -221.5t-175.5 -148t-231.5 -50.5l506 -614v-41h-244l-524 655h-41v-655h-215zM379 860h328q96 0 165.5 59.5t69.5 155.5t-69.5 155.5t-165.5 59.5h-328v-430z" />
<glyph unicode="S" horiz-adv-x="1208" d="M82 410l215 82v-8q-1 -92 43 -164q46 -76 115.5 -113t148.5 -37q130 0 208.5 66t78.5 174q0 179 -236 225q-74 15 -163 43q-77 23 -140.5 59.5t-116.5 90t-82.5 129.5t-29.5 169q0 175 133 290.5t328 115.5q132 0 242 -54.5t174.5 -152.5t64.5 -219h-225q0 93 -74.5 159 t-181.5 66q-112 0 -179 -60.5t-67 -154.5q0 -173 235 -235q66 -17 164 -39q80 -19 144.5 -52.5t116 -85t80 -126.5t28.5 -168q0 -85 -34.5 -165t-97 -143t-159 -101t-211.5 -38q-136 0 -256.5 63.5t-192 167t-73.5 216.5z" />
<glyph unicode="T" horiz-adv-x="1085" d="M20 1290v205h1045v-205h-414v-1290h-217v1290h-414z" />
<glyph unicode="U" horiz-adv-x="1341" d="M154 451v1044h215v-1055q0 -120 76 -198t210 -78q130 0 219 80t89 196v1055h215v-1495h-164l-31 82l-10 10l-10 -10q-44 -52 -146.5 -87.5t-191.5 -35.5q-213 0 -342 137t-129 355z" />
<glyph unicode="V" horiz-adv-x="1290" d="M41 1495h217l387 -1196l387 1196h217l-491 -1495h-226z" />
<glyph unicode="W" horiz-adv-x="1781" d="M41 1495h217l244 -1124l276 817h228l274 -815l244 1122h217l-328 -1495h-215l-307 866l-307 -866h-215z" />
<glyph unicode="X" horiz-adv-x="1187" d="M20 0l455 764l-434 731h235l316 -532l317 532h238l-436 -731l456 -764h-237l-336 565l-336 -565h-238z" />
<glyph unicode="Y" horiz-adv-x="1126" d="M20 1495h236l307 -534l305 534h238l-434 -758v-737h-217v737z" />
<glyph unicode="Z" horiz-adv-x="1146" d="M61 0v205l785 1085h-744v205h983v-205l-784 -1085h764v-205h-1004z" />
<glyph unicode="[" horiz-adv-x="675" d="M246 -225v1945l20 21h410v-123h-287v-1741h287v-123h-410z" />
<glyph unicode="\" horiz-adv-x="1044" d="M0 1556h143l901 -1638h-143z" />
<glyph unicode="]" horiz-adv-x="675" d="M0 -123h287v1741h-287v123h410l20 -21v-1945l-20 -21h-410v123z" />
<glyph unicode="^" horiz-adv-x="1105" d="M102 512l369 983h164l369 -983h-164l-287 788l-289 -788h-162z" />
<glyph unicode="_" horiz-adv-x="880" d="M0 0h881v-143h-881v143z" />
<glyph unicode="`" horiz-adv-x="675" d="M72 1358l147 106l256 -389h-201z" />
<glyph unicode="a" horiz-adv-x="1167" d="M61 481q0 109 39.5 203.5t106.5 159.5t157 102t189 37q76 0 148 -28t118 -74l10 -11l11 11l20 82h184v-963h-184l-20 82l-11 10l-10 -10q-46 -46 -118 -74t-148 -28q-133 0 -245 62.5t-179.5 178t-67.5 260.5zM264 481q0 -137 79 -227t220 -90q129 0 213 92t84 225 t-84 225.5t-213 92.5q-141 0 -220 -90.5t-79 -227.5z" />
<glyph unicode="b" horiz-adv-x="1167" d="M123 0v1556h203v-675l12 -11l10 11q46 46 118.5 74t147.5 28q99 0 189 -37t157 -102t106.5 -159.5t39.5 -203.5q0 -145 -67.5 -260.5t-179.5 -178t-245 -62.5q-76 0 -148 28t-118 74l-10 10l-12 -10l-19 -82h-184zM307 481q0 -133 84 -225t213 -92q141 0 219 90t78 227 t-78 227.5t-219 90.5q-129 0 -213 -92.5t-84 -225.5z" />
<glyph unicode="c" horiz-adv-x="1003" d="M61 481q0 144 69.5 260.5t181.5 179t241 62.5q141 0 248 -66.5t170 -179.5l-160 -102q-27 67 -94 115.5t-154 48.5q-141 0 -221 -91t-80 -227t80 -226.5t221 -90.5q87 0 155 48.5t95 115.5l160 -103q-63 -112 -171 -178.5t-249 -66.5q-129 0 -241 62.5t-181.5 178.5 t-69.5 260z" />
<glyph unicode="d" horiz-adv-x="1167" d="M61 481q0 109 39.5 203.5t106.5 159.5t157 102t189 37q75 0 147.5 -28t118.5 -74l10 -11l11 11v675h204v-1556h-184l-20 82l-11 10l-10 -10q-46 -46 -118 -74t-148 -28q-133 0 -245 62.5t-179.5 178t-67.5 260.5zM264 481q0 -137 79 -227t220 -90q129 0 213 92t84 225 t-84 225.5t-213 92.5q-141 0 -220 -90.5t-79 -227.5z" />
<glyph unicode="e" horiz-adv-x="1034" d="M61 481q0 220 134.5 361t336.5 141q123 0 225.5 -60t164 -173t61.5 -258l-20 -62h-697q0 -112 75.5 -189t201.5 -77q89 0 151 39.5t86 103.5l172 -82q-65 -113 -172 -179t-248 -66q-128 0 -235 62.5t-171.5 178t-64.5 260.5zM276 610h492q-8 80 -76 134.5t-160 54.5 q-102 0 -166.5 -52t-89.5 -137z" />
<glyph unicode="f" horiz-adv-x="634" d="M41 778v185h164v286q0 142 78.5 224.5t228.5 82.5l102 -20v-184l-112 20q-45 0 -68.5 -27.5t-23.5 -74.5v-307h204v-185h-204v-778h-205v778h-164z" />
<glyph unicode="g" horiz-adv-x="993" d="M61 -63q0 100 50 177.5t135 121.5q-86 51 -135.5 135.5t-49.5 191.5q0 177 121.5 298.5t298.5 121.5q70 0 138 -28.5t98 -73.5l10 -11l10 11l21 82h143v-400q0 -107 -49 -191.5t-135 -135.5q86 -44 135 -121.5t49 -177.5q0 -110 -60.5 -195t-155.5 -127.5t-204 -42.5 t-204 42.5t-155.5 127.5t-60.5 195zM256 -61q0 -85 62.5 -138t162.5 -53t163 53t63 138t-63 139.5t-163 54.5q-99 0 -162 -54.5t-63 -139.5zM256 563q0 -101 63 -168t162 -67t162.5 67t63.5 168t-63.5 168.5t-162.5 67.5t-162 -67.5t-63 -168.5z" />
<glyph unicode="h" horiz-adv-x="1064" d="M123 0v1556h205v-675l10 -11l10 11q30 44 95.5 73t129.5 29q181 0 285.5 -108.5t104.5 -280.5v-594h-205v594q-9 205 -205 205q-90 0 -156 -63.5t-69 -153.5v-582h-205z" />
<glyph unicode="i" horiz-adv-x="450" d="M123 1147v225h205v-225h-205zM125 0v963h201v-963h-201z" />
<glyph unicode="j" horiz-adv-x="468" d="M-61 -250v-184l102 -21q150 0 227.5 83t77.5 225v1110h-203v-1131q0 -47 -23.5 -74.5t-68.5 -27.5zM143 1147v225h203v-225h-203z" />
<glyph unicode="k" horiz-adv-x="983" d="M123 0v1556h205v-983l389 390h266l-463 -463l484 -500h-267l-409 410v-410h-205z" />
<glyph unicode="l" horiz-adv-x="450" d="M123 184v1372h205v-1372l20 -184h-205z" />
<glyph unicode="m" horiz-adv-x="1617" d="M123 0v963h184l21 -82l10 -11l10 11q30 44 95.5 73t129.5 29q108 0 187.5 -43.5t120.5 -120.5l51 62q38 45 105 73.5t130 28.5q165 0 257 -95.5t92 -252.5v-635h-205v614q0 91 -43 138t-121 47q-90 0 -156 -63.5t-69 -153.5v-582h-205v614q0 91 -43 138t-121 47 q-90 0 -156 -63.5t-69 -153.5v-582h-205z" />
<glyph unicode="n" horiz-adv-x="1064" d="M123 0v963h184l21 -82l10 -11l10 11q30 44 95.5 73t129.5 29q181 0 285.5 -108.5t104.5 -280.5v-594h-205v594q-9 205 -205 205q-90 0 -156 -63.5t-69 -153.5v-582h-205z" />
<glyph unicode="o" horiz-adv-x="1126" d="M61 481q0 144 70 260.5t184.5 179t247.5 62.5t247.5 -62.5t184.5 -179t70 -260.5t-70 -260t-184.5 -178.5t-247.5 -62.5t-247.5 62.5t-184.5 178.5t-70 260zM266 481q0 -137 78 -227t219 -90t219 90t78 227t-78 227.5t-219 90.5t-219 -90.5t-78 -227.5z" />
<glyph unicode="p" horiz-adv-x="1167" d="M123 -434v1397h184l19 -82l12 -11l10 11q46 46 118 74t148 28q99 0 189 -37t157 -102t106.5 -159.5t39.5 -203.5q0 -145 -67.5 -260.5t-179.5 -178t-245 -62.5q-75 0 -147.5 28t-118.5 74l-10 10l-12 -10v-516h-203zM307 481q0 -133 84 -225t213 -92q141 0 219 90t78 227 t-78 227.5t-219 90.5q-129 0 -213 -92.5t-84 -225.5z" />
<glyph unicode="q" horiz-adv-x="1167" d="M61 481q0 109 39.5 203.5t106.5 159.5t157 102t189 37q76 0 148 -28t118 -74l10 -11l13 11l18 82h184v-1397h-202v516l-13 10l-10 -10q-46 -46 -118.5 -74t-147.5 -28q-133 0 -245 62.5t-179.5 178t-67.5 260.5zM266 481q0 -137 78 -227t219 -90q129 0 213 92t84 225 t-84 225.5t-213 92.5q-141 0 -219 -90.5t-78 -227.5z" />
<glyph unicode="r" d="M123 0v963h184l21 -103l10 -10l10 10q92 123 225 123q25 0 37 -0.5t29 -5t37 -14.5v-185h-123q-90 0 -156 -63.5t-69 -153.5v-561h-205z" />
<glyph unicode="s" horiz-adv-x="829" d="M41 266l184 72q8 -77 63.5 -127.5t131.5 -50.5q73 0 113 33.5t40 82.5q0 44 -30 69t-92 36q-42 7 -103 22q-128 32 -202 106.5t-74 186.5q0 88 51 155t127 99.5t160 32.5q134 0 233.5 -79.5t114.5 -207.5h-205q0 46 -41 76.5t-102 30.5q-62 0 -103 -30.5t-41 -76.5 q0 -87 123 -110l103 -21q127 -28 201.5 -100t74.5 -189q0 -123 -101 -209.5t-247 -86.5q-145 0 -246.5 77.5t-132.5 208.5z" />
<glyph unicode="t" d="M20 778v185h187v204l162 205h39v-409h206v-185h-206v-491q0 -46 29 -74.5t75 -28.5l123 21v-185l-113 -20q-153 0 -234 74t-81 213v491h-187z" />
<glyph unicode="u" horiz-adv-x="1064" d="M102 369v594h205v-594q6 -205 205 -205q89 0 154.5 63t70.5 152v584h205v-963h-184l-21 82l-10 10l-10 -10q-30 -44 -95.5 -73t-129.5 -29q-181 0 -285.5 108.5t-104.5 280.5z" />
<glyph unicode="v" horiz-adv-x="921" d="M20 963h205l236 -689l235 689h205l-348 -963h-184z" />
<glyph unicode="w" horiz-adv-x="1351" d="M20 963h203l166 -687l184 543h205l185 -543l165 687h203l-266 -963h-195l-194 555l-195 -555h-194z" />
<glyph unicode="x" horiz-adv-x="880" d="M0 0l328 496l-308 467h226l194 -295l195 295h225l-307 -467l328 -496h-226l-215 326l-215 -326h-225z" />
<glyph unicode="y" horiz-adv-x="880" d="M20 963h207l213 -578l215 578h205l-512 -1373h-205l201 537z" />
<glyph unicode="z" horiz-adv-x="942" d="M82 0v184l543 594h-533v185h768v-185l-549 -594h539v-184h-768z" />
<glyph unicode="{" d="M82 696v144q122 -15 184 43t62 182v369q0 123 71.5 194.5t194.5 71.5l102 -21v-123h-102q-123 0 -123 -122v-390q0 -224 -205 -276q205 -52 205 -276v-390q0 -122 123 -122h102v-123l-102 -21q-123 0 -194.5 71.5t-71.5 194.5v369q0 124 -62 182t-184 43z" />
<glyph unicode="|" horiz-adv-x="471" d="M164 -205v1782h143v-1782h-143z" />
<glyph unicode="}" d="M0 -20h102q123 0 123 122v390q0 224 205 276q-205 52 -205 276v390q0 122 -123 122h-102v123l102 21q123 0 195 -71.5t72 -194.5v-369q0 -124 61.5 -182t183.5 -43v-144q-122 15 -183.5 -43t-61.5 -182v-369q0 -123 -72 -194.5t-195 -71.5l-102 21v123z" />
<glyph unicode="~" horiz-adv-x="1105" d="M102 727h185q-7 -43 17.5 -67.5t64.5 -24.5q50 0 113 25.5t132 51t134 25.5q127 0 198.5 -71.5t57.5 -204.5h-185q7 43 -17.5 67.5t-64.5 24.5q-50 0 -109 -25.5t-127.5 -51t-142.5 -25.5q-127 0 -198.5 71.5t-57.5 204.5z" />
<glyph unicode="&#xa1;" horiz-adv-x="491" d="M123 0l20 532l82 615h41l82 -615l21 -532h-246zM123 1249v246h246v-246h-246z" />
<glyph unicode="&#xa2;" horiz-adv-x="1085" d="M113 737q0 187 109.5 328t273.5 174v338h178v-336q125 -24 218 -107t132 -212h-195q-51 100 -155 127v-623q102 24 155 127h195q-39 -129 -132 -212.5t-218 -107.5v-315h-178v313q-172 32 -277.5 172.5t-105.5 333.5zM317 737q0 -116 43.5 -198.5t135.5 -110.5v619 q-92 -28 -135.5 -111.5t-43.5 -198.5z" />
<glyph unicode="&#xa3;" horiz-adv-x="1085" d="M123 0v203h123q115 0 190.5 66.5t75.5 160.5q0 70 -43 135l-231 -207l-115 134l227 202l-2 2q-72 65 -116 116.5t-76.5 126t-32.5 157.5q0 74 30.5 145t84.5 127.5t136.5 91.5t178.5 35q100 0 183 -35t136 -93t82 -131t29 -151h-205q0 85 -64 147t-161 62 q-102 0 -158.5 -58t-56.5 -140q0 -62 35 -127t98 -119q17 -17 27 -23l219 197l114 -133l-206 -184q92 -105 92 -215q0 -76 -36 -153.5t-108 -135.5h471v-203h-921z" />
<glyph unicode="&#xa4;" horiz-adv-x="1105" d="M90 246l92 92q-80 113 -80 256q0 140 80 256l-92 92l115 115l92 -92q116 79 256 79q137 0 256 -79l92 92l115 -115l-92 -92q80 -121 80 -256q0 -138 -80 -256l92 -92l-115 -115l-92 92q-116 -80 -256 -80q-143 0 -256 80l-92 -92zM246 594q0 -128 90 -217.5t217 -89.5 t217 89.5t90 217.5t-90 217.5t-217 89.5t-217 -89.5t-90 -217.5z" />
<glyph unicode="&#xa5;" horiz-adv-x="1249" d="M102 860l234 101l-234 534h224l299 -735l297 735h225l-234 -534l234 -101l-80 -172l-229 96l-111 -252h338v-184h-338v-348h-205v348h-338v184h338l-110 252l-230 -96z" />
<glyph unicode="&#xa6;" horiz-adv-x="471" d="M164 -205v615h143v-615h-143zM164 963v614h143v-614h-143z" />
<glyph unicode="&#xa7;" horiz-adv-x="1105" d="M102 592q0 79 55 147t150 103q-153 111 -153 295q0 155 111 256.5t288 101.5q176 0 287.5 -109.5t111.5 -279.5h-204q0 91 -56 144t-149 53q-83 0 -134 -47.5t-51 -118.5q0 -117 123 -176q108 -51 277 -115q121 -46 183.5 -119t62.5 -184q0 -79 -56 -148t-151 -102 q155 -113 155 -295q0 -155 -111.5 -255.5t-287.5 -100.5q-177 0 -288 108.5t-111 278.5h204q0 -91 56 -144t149 -53q83 0 134 47.5t51 118.5q0 55 -31.5 101t-91.5 75q-108 51 -277 115q-121 46 -183.5 119t-62.5 184zM297 623q0 -107 123 -154q63 -25 215 -90 q87 0 130.5 37.5t43.5 95.5q0 108 -123 154q-116 44 -217 90q-86 0 -129 -37.5t-43 -95.5z" />
<glyph unicode="&#xa8;" horiz-adv-x="675" d="M61 1137v225h203v-225h-203zM410 1137v225h204v-225h-204z" />
<glyph unicode="&#xa9;" horiz-adv-x="1740" d="M123 748q0 154 61 293.5t162.5 238.5t238.5 157t285 58t285 -58t239 -157t163 -238.5t61 -293.5t-61.5 -293.5t-164 -238.5t-239.5 -157.5t-283 -58.5q-148 0 -285 58.5t-238.5 157.5t-162.5 238.5t-61 293.5zM260 748q0 -130 48 -244t129.5 -195t194 -127.5t238.5 -46.5 q168 0 308 79t221.5 220t81.5 314q0 172 -81 312.5t-221 220t-309 79.5t-309 -79.5t-220.5 -220t-80.5 -312.5zM465 748q0 196 117 325t305 129q124 0 215.5 -59t144.5 -156l-141 -84q-22 61 -78.5 102.5t-132.5 41.5q-132 0 -199 -83.5t-67 -215.5t67 -215.5t199 -83.5 q76 0 133 41t78 102l141 -84q-53 -97 -144.5 -156t-215.5 -59q-188 0 -305 129.5t-117 325.5z" />
<glyph unicode="&#xaa;" horiz-adv-x="901" d="M61 1120q0 170 110.5 280.5t266.5 110.5q59 0 117.5 -22t93.5 -57l6 -9l9 9l16 63h139v-747h-139l-16 63l-9 6l-6 -6q-35 -35 -94 -57.5t-117 -22.5q-156 0 -266.5 109.5t-110.5 279.5zM215 1120q0 -104 64 -177t170 -73q97 0 164 74.5t67 175.5t-67 176.5t-164 75.5 q-106 0 -170 -74t-64 -178z" />
<glyph unicode="&#xab;" horiz-adv-x="839" d="M41 604l389 481v-235l-194 -246l194 -246v-235zM369 604l389 481v-235l-195 -246l195 -246v-235z" />
<glyph unicode="&#xac;" horiz-adv-x="1105" d="M61 799v164h983v-635h-163v471h-820z" />
<glyph unicode="&#xad;" horiz-adv-x="655" d="M61 471v225h533v-225h-533z" />
<glyph unicode="&#xae;" horiz-adv-x="1740" d="M123 748q0 154 61 293.5t162.5 238.5t238.5 157t285 58t285 -58t239 -157t163 -238.5t61 -293.5t-61.5 -293.5t-164 -238.5t-239.5 -157.5t-283 -58.5q-148 0 -285 58.5t-238.5 157.5t-162.5 238.5t-61 293.5zM260 748q0 -130 48 -244t129.5 -195t194 -127.5t238.5 -46.5 q168 0 308 79t221.5 220t81.5 314q0 172 -81 312.5t-221 220t-309 79.5t-309 -79.5t-220.5 -220t-80.5 -312.5zM586 313v887h354q127 0 213 -75.5t86 -196.5q0 -115 -86 -189t-209 -82l277 -305l-29 -39h-143l-299 344h-7v-344h-157zM743 803h191q64 0 104.5 31.5t40.5 93.5 q0 63 -40.5 94t-104.5 31h-191v-250z" />
<glyph unicode="&#xaf;" horiz-adv-x="675" d="M61 1116v154h553v-154h-553z" />
<glyph unicode="&#xb0;" horiz-adv-x="737" d="M61 1188q0 130 89.5 218.5t218.5 88.5t218 -88.5t89 -218.5t-89 -218.5t-218 -88.5t-218.5 88.5t-89.5 218.5zM205 1188q0 -69 47.5 -116.5t116.5 -47.5t116 47.5t47 116.5t-47 116.5t-116 47.5t-116.5 -47.5t-47.5 -116.5z" />
<glyph unicode="&#xb1;" horiz-adv-x="1105" d="M61 0v164h983v-164h-983zM61 799v164h410v409h164v-409h409v-164h-409v-410h-164v410h-410z" />
<glyph unicode="&#xb2;" d="M96 1116v82q2 51 31.5 96t64.5 73.5t88.5 69t81.5 68.5q25 25 38.5 40t28.5 42t15 51q0 46 -28 74.5t-74 28.5t-74 -28.5t-28 -74.5v-30h-144v20q0 116 73 181t173 65q108 0 177 -65t69 -171q0 -102 -111 -204q-32 -30 -88 -69t-87.5 -66.5t-31.5 -49.5h328v-133h-502z " />
<glyph unicode="&#xb3;" d="M82 1352h143q0 -47 34.5 -80t86.5 -33q54 0 89.5 33t35.5 80q0 55 -36.5 89t-98.5 34h-131v112l188 144h-291v133h502v-133l-205 -136q96 -11 155.5 -73.5t59.5 -159.5q0 -103 -77 -179.5t-191 -76.5q-116 0 -190 74.5t-74 171.5z" />
<glyph unicode="&#xb4;" horiz-adv-x="675" d="M215 1075l256 389l147 -106l-202 -283h-201z" />
<glyph unicode="&#xb6;" horiz-adv-x="860" d="M0 1188q0 138 84.5 222.5t222.5 84.5h144v-1833h-144v1219q-138 0 -222.5 84.5t-84.5 222.5zM553 -338v1833h143v-1833h-143z" />
<glyph unicode="&#xb7;" horiz-adv-x="368" d="M61 471v266h246v-266h-246z" />
<glyph unicode="&#xb8;" horiz-adv-x="675" d="M119 -371l84 142q5 -5 15 -13t40 -21t59 -13q34 0 53 14t19 37q0 24 -19.5 37.5t-52.5 13.5h-47v205h152v-78q54 -9 99.5 -57t45.5 -121q0 -96 -70 -155.5t-184 -59.5q-110 0 -194 69z" />
<glyph unicode="&#xb9;" d="M94 1597v21l174 246h195v-748h-139v604l-84 -123h-146z" />
<glyph unicode="&#xba;" horiz-adv-x="901" d="M61 1120q0 87 33.5 162t88.5 124t125 77t143 28q99 0 187 -46.5t145 -138t57 -206.5q0 -172 -117.5 -280.5t-271.5 -108.5t-272 108.5t-118 280.5zM215 1120q0 -105 63.5 -177.5t172.5 -72.5t172 72.5t63 177.5t-63 178.5t-172 73.5t-172.5 -73.5t-63.5 -178.5z" />
<glyph unicode="&#xbb;" horiz-adv-x="839" d="M80 123v235l194 246l-194 246v235l389 -481zM410 123v235l194 246l-194 246v235l389 -481z" />
<glyph unicode="&#xbc;" horiz-adv-x="1187" d="M41 1229v20l174 246h195v-747h-140v604l-84 -123h-145zM184 369l697 757h143l-698 -757h-142zM635 0v82q2 51 31.5 96t64.5 73.5t88.5 69t81.5 68.5q25 25 38.5 40t28.5 42t15 51q0 46 -28 74.5t-74 28.5t-74.5 -28.5t-28.5 -74.5v-30h-143v20q0 116 73 181t173 65 q108 0 176.5 -65t68.5 -171q0 -104 -110 -205q-32 -30 -88 -68.5t-87.5 -66t-31.5 -49.5h321v-133h-495z" />
<glyph unicode="&#xbd;" horiz-adv-x="1187" d="M41 1229v20l174 246h195v-747h-140v604l-84 -123h-145zM184 369l697 757h143l-698 -757h-142zM471 195v133l389 420h164v-420h82v-133h-82v-195h-143v195h-410zM645 328h236v258z" />
<glyph unicode="&#xbe;" horiz-adv-x="1187" d="M41 983h143q0 -47 34.5 -80t86.5 -33q54 0 89.5 33t35.5 80q0 55 -36.5 89t-98.5 34h-131v113l188 143h-291v133h502v-133l-205 -135q95 -11 155 -74t60 -160q0 -103 -77 -179.5t-191 -76.5q-117 0 -190.5 74.5t-73.5 171.5zM184 369l697 757h143l-698 -757h-142z M471 195v133l389 420h164v-420h82v-133h-82v-195h-143v195h-410zM645 328h236v258z" />
<glyph unicode="&#xbf;" horiz-adv-x="983" d="M61 410q0 -110 57.5 -205t154 -150t206.5 -55q116 0 219 60t163.5 159.5t60.5 210.5l-205 41v-41q0 -100 -63 -165.5t-162 -65.5q-100 0 -163 61t-63 160q0 53 20 99t51.5 79.5t71 69t78 66.5t71.5 72.5t53.5 87t23 110.5t-20.5 143h-204q23 -53 25.5 -98t-12 -80.5 t-40.5 -67t-60 -62t-69.5 -61t-70 -68t-62 -79.5t-44 -99t-16.5 -122zM389 1249v246h246v-246h-246z" />
<glyph unicode="&#xc0;" horiz-adv-x="1331" d="M41 0l512 1495h225l512 -1495h-215l-133 389h-555l-131 -389h-215zM348 1817l137 129l295 -338h-235zM457 594h415l-206 614z" />
<glyph unicode="&#xc1;" horiz-adv-x="1331" d="M41 0h215l131 389h555l133 -389h215l-512 1495h-225zM457 594l209 614l206 -614h-415zM567 1608l295 338l137 -129l-196 -209h-236z" />
<glyph unicode="&#xc2;" horiz-adv-x="1331" d="M41 0l512 1495h225l512 -1495h-215l-133 389h-555l-131 -389h-215zM362 1739l213 200h181l213 -200l-129 -131l-174 168l-174 -168zM457 594h415l-206 614z" />
<glyph unicode="&#xc3;" horiz-adv-x="1331" d="M41 0h215l131 389h555l133 -389h215l-512 1495h-225zM360 1843l170 45q-9 -80 45 -80q24 0 61 19.5t82 39t89 19.5q101 0 156 -68.5t43 -189.5h-168q12 80 -43 80q-20 0 -58 -20t-88.5 -40t-99.5 -20q-94 0 -145 57t-44 158zM457 594l209 614l206 -614h-415z" />
<glyph unicode="&#xc4;" horiz-adv-x="1331" d="M41 0h215l131 389h555l133 -389h215l-512 1495h-225zM379 1632v226h223v-226h-223zM457 594l209 614l206 -614h-415zM727 1632v226h225v-226h-225z" />
<glyph unicode="&#xc5;" horiz-adv-x="1331" d="M41 0l512 1495h225l512 -1495h-215l-133 389h-555l-131 -389h-215zM438 1786q0 97 66.5 160t161.5 63t161 -63t66 -160t-66 -160t-161 -63t-161.5 63t-66.5 160zM457 594h415l-206 614zM578 1786q0 -38 25 -63t63 -25t63 25t25 63t-25 63t-63 25t-63 -25t-25 -63z" />
<glyph unicode="&#xc6;" horiz-adv-x="1638" d="M41 0l451 1495h1044v-205h-758l129 -430h609v-205h-547l137 -450h430v-205h-584l-121 410h-456l-119 -410h-215zM436 614h336l-168 574z" />
<glyph unicode="&#xc7;" horiz-adv-x="1515" d="M82 745q0 218 99.5 399t276 286.5t392.5 105.5q171 0 329.5 -75.5t264.5 -211.5l-144 -143q-162 227 -440 227q-128 0 -234 -45t-177.5 -123.5t-110.5 -186t-39 -230.5q0 -166 67 -298t198 -210t306 -78q279 0 441 227l143 -143q-97 -124 -236 -197.5t-294 -85.5v-41 q54 -9 99.5 -57t45.5 -121q0 -96 -70 -155.5t-184 -59.5q-108 0 -194 70l84 141q5 -5 15 -13t40 -21t59 -13q34 0 53 14t19 37q0 24 -19.5 37.5t-52.5 13.5h-47v170q-150 15 -278.5 81.5t-219 169.5t-141.5 240t-51 289z" />
<glyph unicode="&#xc8;" horiz-adv-x="1167" d="M164 0v1495h901v-205h-686v-430h665v-205h-665v-450h686v-205h-901zM303 1817l137 129l295 -338h-235z" />
<glyph unicode="&#xc9;" horiz-adv-x="1167" d="M164 0h901v205h-686v450h665v205h-665v430h686v205h-901v-1495zM492 1608l294 338l138 -129l-197 -209h-235z" />
<glyph unicode="&#xca;" horiz-adv-x="1167" d="M164 0v1495h901v-205h-686v-430h665v-205h-665v-450h686v-205h-901zM324 1739l213 200h180l213 -200l-129 -131l-174 168l-174 -168z" />
<glyph unicode="&#xcb;" horiz-adv-x="1167" d="M164 0h901v205h-686v450h665v205h-665v430h686v205h-901v-1495zM328 1632v226h223v-226h-223zM676 1632v226h225v-226h-225z" />
<glyph unicode="&#xcc;" horiz-adv-x="593" d="M-16 1817l137 129l295 -338h-236zM154 0v205h34v1085h-34v205h286v-205h-34v-1085h34v-205h-286z" />
<glyph unicode="&#xcd;" horiz-adv-x="593" d="M154 0h286v205h-34v1085h34v205h-286v-205h34v-1085h-34v-205zM178 1608l295 338l137 -129l-196 -209h-236z" />
<glyph unicode="&#xce;" horiz-adv-x="593" d="M-6 1739l213 200h180l213 -200l-129 -131l-174 168l-174 -168zM154 0v205h34v1085h-34v205h286v-205h-34v-1085h34v-205h-286z" />
<glyph unicode="&#xcf;" horiz-adv-x="593" d="M10 1632v226h223v-226h-223zM154 0h286v205h-34v1085h34v205h-286v-205h34v-1085h-34v-205zM358 1632v226h226v-226h-226z" />
<glyph unicode="&#xd0;" horiz-adv-x="1351" d="M20 655v185h185v655h297q218 0 393 -94t275 -265.5t100 -387.5t-100 -387.5t-275 -266t-393 -94.5h-297v655h-185zM420 205h92q254 0 398.5 144.5t144.5 398.5q0 253 -144.5 397.5t-398.5 144.5h-92v-450h215v-185h-215v-450z" />
<glyph unicode="&#xd1;" horiz-adv-x="1413" d="M164 0h213v1126l637 -1126h235v1495h-213v-1106l-637 1106h-235v-1495zM401 1843l170 45q-9 -80 45 -80q24 0 61 19.5t82 39t89 19.5q101 0 156 -68.5t43 -189.5h-168q12 80 -43 80q-20 0 -58 -20t-88.5 -40t-99.5 -20q-94 0 -145 57t-44 158z" />
<glyph unicode="&#xd2;" horiz-adv-x="1740" d="M82 748q0 214 105.5 395.5t287 287t395.5 105.5q161 0 307 -62.5t251.5 -167.5t168 -251t62.5 -307t-62.5 -307t-168 -251.5t-251.5 -168t-307 -62.5t-307 62.5t-251 168t-167.5 251.5t-62.5 307zM297 745q0 -253 160.5 -417t412.5 -164t412 164t160 417q0 256 -160 421 t-412 165q-125 0 -232 -44t-181.5 -121.5t-117 -186t-42.5 -234.5zM569 1817l138 129l294 -338h-235z" />
<glyph unicode="&#xd3;" horiz-adv-x="1740" d="M82 748q0 -161 62.5 -307t167.5 -251.5t251 -168t307 -62.5t307 62.5t251.5 168t168 251.5t62.5 307t-62.5 307t-168 251t-251.5 167.5t-307 62.5q-214 0 -395.5 -105.5t-287 -287t-105.5 -395.5zM297 745q0 126 42.5 234.5t117 186t181.5 121.5t232 44q252 0 412 -165 t160 -421q0 -253 -160 -417t-412 -164t-412.5 164t-160.5 417zM758 1608l295 338l137 -129l-197 -209h-235z" />
<glyph unicode="&#xd4;" horiz-adv-x="1740" d="M82 748q0 214 105.5 395.5t287 287t395.5 105.5q161 0 307 -62.5t251.5 -167.5t168 -251t62.5 -307t-62.5 -307t-168 -251.5t-251.5 -168t-307 -62.5t-307 62.5t-251 168t-167.5 251.5t-62.5 307zM297 745q0 -253 160.5 -417t412.5 -164t412 164t160 417q0 256 -160 421 t-412 165q-125 0 -232 -44t-181.5 -121.5t-117 -186t-42.5 -234.5zM567 1739l213 200h181l213 -200l-130 -131l-174 168l-174 -168z" />
<glyph unicode="&#xd5;" horiz-adv-x="1740" d="M82 748q0 -161 62.5 -307t167.5 -251.5t251 -168t307 -62.5t307 62.5t251.5 168t168 251.5t62.5 307t-62.5 307t-168 251t-251.5 167.5t-307 62.5q-214 0 -395.5 -105.5t-287 -287t-105.5 -395.5zM297 745q0 126 42.5 234.5t117 186t181.5 121.5t232 44q252 0 412 -165 t160 -421q0 -253 -160 -417t-412 -164t-412.5 164t-160.5 417zM565 1843l170 45q-9 -80 45 -80q24 0 61 19.5t82 39t89 19.5q101 0 155.5 -68.5t42.5 -189.5h-168q12 80 -43 80q-20 0 -58 -20t-88 -40t-99 -20q-94 0 -145 57t-44 158z" />
<glyph unicode="&#xd6;" horiz-adv-x="1740" d="M82 748q0 -161 62.5 -307t167.5 -251.5t251 -168t307 -62.5t307 62.5t251.5 168t168 251.5t62.5 307t-62.5 307t-168 251t-251.5 167.5t-307 62.5q-214 0 -395.5 -105.5t-287 -287t-105.5 -395.5zM297 745q0 126 42.5 234.5t117 186t181.5 121.5t232 44q252 0 412 -165 t160 -421q0 -253 -160 -417t-412 -164t-412.5 164t-160.5 417zM584 1632v226h223v-226h-223zM932 1632v226h225v-226h-225z" />
<glyph unicode="&#xd7;" horiz-adv-x="1105" d="M90 246l346 348l-346 348l115 115l348 -346l348 346l115 -115l-346 -348l346 -348l-115 -115l-348 346l-348 -346z" />
<glyph unicode="&#xd8;" horiz-adv-x="1740" d="M0 0l252 256q-81 102 -125.5 228.5t-44.5 263.5q0 214 105.5 395.5t287 287t395.5 105.5q268 0 482 -164l123 123h266l-254 -256q172 -213 172 -491q0 -161 -62.5 -307t-168 -251.5t-251.5 -168t-307 -62.5q-269 0 -483 164l-121 -123h-266zM297 745q0 -195 100 -344 l813 826q-141 104 -340 104q-125 0 -232 -44t-181.5 -121.5t-117 -186t-42.5 -234.5zM528 266q145 -102 342 -102q252 0 412 164t160 417q0 193 -101 347z" />
<glyph unicode="&#xd9;" horiz-adv-x="1341" d="M154 451v1044h215v-1055q0 -120 76 -198t210 -78q130 0 219 80t89 196v1055h215v-1495h-164l-31 82l-10 10l-10 -10q-44 -52 -146.5 -87.5t-191.5 -35.5q-213 0 -342 137t-129 355zM406 1817l137 129l295 -338h-236z" />
<glyph unicode="&#xda;" horiz-adv-x="1341" d="M154 451q0 -218 129 -355t342 -137q89 0 191.5 35.5t146.5 87.5l10 10l10 -10l31 -82h164v1495h-215v-1055q0 -116 -89 -196t-219 -80q-134 0 -210 78t-76 198v1055h-215v-1044zM522 1608l295 338l137 -129l-196 -209h-236z" />
<glyph unicode="&#xdb;" horiz-adv-x="1341" d="M154 451v1044h215v-1055q0 -120 76 -198t210 -78q130 0 219 80t89 196v1055h215v-1495h-164l-31 82l-10 10l-10 -10q-44 -52 -146.5 -87.5t-191.5 -35.5q-213 0 -342 137t-129 355zM373 1739l213 200h180l213 -200l-129 -131l-174 168l-174 -168z" />
<glyph unicode="&#xdc;" horiz-adv-x="1341" d="M154 451q0 -218 129 -355t342 -137q89 0 191.5 35.5t146.5 87.5l10 10l10 -10l31 -82h164v1495h-215v-1055q0 -116 -89 -196t-219 -80q-134 0 -210 78t-76 198v1055h-215v-1044zM399 1632v226h224v-226h-224zM748 1632v226h225v-226h-225z" />
<glyph unicode="&#xdd;" horiz-adv-x="1126" d="M20 1495l435 -758v-737h217v737l434 758h-238l-305 -534l-307 534h-236zM434 1608l295 338l137 -129l-196 -209h-236z" />
<glyph unicode="&#xde;" horiz-adv-x="1208" d="M164 0v1495h215v-307h328q201 0 330.5 -119.5t129.5 -310.5t-129.5 -310.5t-330.5 -119.5h-328v-328h-215zM379 532h338q99 0 167 58.5t68 167.5t-68 167t-167 58h-338v-451z" />
<glyph unicode="&#xdf;" horiz-adv-x="1167" d="M123 0v1147q0 134 61.5 233t162 148t226.5 49q114 0 216 -50.5t168.5 -148.5t66.5 -221q0 -115 -60 -200t-147 -128q117 -49 192.5 -150t75.5 -239q0 -200 -138 -330t-353 -130l-123 143v41h102q136 0 222 79.5t86 196.5q0 118 -79.5 197.5t-207.5 79.5h-268v-717h-203z M326 901h217q117 0 196.5 70t79.5 176q0 114 -68.5 180t-177.5 66t-178 -66.5t-69 -179.5v-246z" />
<glyph unicode="&#xe0;" horiz-adv-x="1167" d="M61 481q0 -145 67.5 -260.5t179.5 -178t245 -62.5q76 0 148 28t118 74l10 10l11 -10l20 -82h184v963h-184l-20 -82l-11 -11l-10 11q-46 46 -118 74t-148 28q-99 0 -189 -37t-157 -102t-106.5 -159.5t-39.5 -203.5zM258 1358l148 106l256 -389h-201zM264 481 q0 137 79 227.5t220 90.5q129 0 213 -92.5t84 -225.5t-84 -225t-213 -92q-141 0 -220 90t-79 227z" />
<glyph unicode="&#xe1;" horiz-adv-x="1167" d="M61 481q0 -145 67.5 -260.5t179.5 -178t245 -62.5q76 0 148 28t118 74l10 10l11 -10l20 -82h184v963h-184l-20 -82l-11 -11l-10 11q-46 46 -118 74t-148 28q-99 0 -189 -37t-157 -102t-106.5 -159.5t-39.5 -203.5zM264 481q0 137 79 227.5t220 90.5q129 0 213 -92.5 t84 -225.5t-84 -225t-213 -92q-141 0 -220 90t-79 227zM442 1075l256 389l148 -106l-203 -283h-201z" />
<glyph unicode="&#xe2;" horiz-adv-x="1167" d="M61 481q0 109 39.5 203.5t106.5 159.5t157 102t189 37q76 0 148 -28t118 -74l10 -11l11 11l20 82h184v-963h-184l-20 82l-11 10l-10 -10q-46 -46 -118 -74t-148 -28q-133 0 -245 62.5t-179.5 178t-67.5 260.5zM264 481q0 -137 79 -227t220 -90q129 0 213 92t84 225 t-84 225.5t-213 92.5q-141 0 -220 -90.5t-79 -227.5zM274 1186l187 217h205l186 -217l-121 -111l-168 197l-168 -197z" />
<glyph unicode="&#xe3;" horiz-adv-x="1167" d="M61 481q0 -145 67.5 -260.5t179.5 -178t245 -62.5q76 0 148 28t118 74l10 10l11 -10l20 -82h184v963h-184l-20 -82l-11 -11l-10 11q-46 46 -118 74t-148 28q-99 0 -189 -37t-157 -102t-106.5 -159.5t-39.5 -203.5zM264 481q0 137 79 227.5t220 90.5q129 0 213 -92.5 t84 -225.5t-84 -225t-213 -92q-141 0 -220 90t-79 227zM283 1280l151 49q-2 -45 6 -64.5t37 -19.5q24 0 57 21.5t73.5 43t84.5 21.5q100 0 148.5 -63.5t36.5 -182.5h-152q3 42 -5.5 61t-35.5 19q-20 0 -52.5 -22t-77 -44t-93.5 -22q-90 0 -137 55t-41 148z" />
<glyph unicode="&#xe4;" horiz-adv-x="1167" d="M61 481q0 -145 67.5 -260.5t179.5 -178t245 -62.5q76 0 148 28t118 74l10 10l11 -10l20 -82h184v963h-184l-20 -82l-11 -11l-10 11q-46 46 -118 74t-148 28q-99 0 -189 -37t-157 -102t-106.5 -159.5t-39.5 -203.5zM264 481q0 137 79 227.5t220 90.5q129 0 213 -92.5 t84 -225.5t-84 -225t-213 -92q-141 0 -220 90t-79 227zM295 1137v225h203v-225h-203zM643 1137v225h205v-225h-205z" />
<glyph unicode="&#xe5;" horiz-adv-x="1167" d="M61 481q0 109 39.5 203.5t106.5 159.5t157 102t189 37q76 0 148 -28t118 -74l10 -11l11 11l20 82h184v-963h-184l-20 82l-11 10l-10 -10q-46 -46 -118 -74t-148 -28q-133 0 -245 62.5t-179.5 178t-67.5 260.5zM264 481q0 -137 79 -227t220 -90q129 0 213 92t84 225 t-84 225.5t-213 92.5q-141 0 -220 -90.5t-79 -227.5zM332 1260q0 94 65.5 156.5t159.5 62.5t159.5 -62.5t65.5 -156.5t-66 -157t-159 -63t-159 63t-66 157zM465 1260q0 -40 26 -66.5t66 -26.5t66 26.5t26 66.5t-26 66t-66 26t-66 -26t-26 -66z" />
<glyph unicode="&#xe6;" horiz-adv-x="1742" d="M61 481q0 220 134.5 361t336.5 141q144 0 246 -102l10 -11l11 11l20 82h185v-93l20 21q80 92 246 92q85 0 163.5 -34t139.5 -95.5t96 -156t31 -205.5l-21 -62h-675v-10q3 -111 69 -183.5t187 -72.5q88 0 146 39t83 104l170 -82q-140 -245 -399 -245q-147 0 -236 92 l-20 20v-92h-185l-20 82l-11 10l-10 -10q-102 -102 -246 -102q-202 0 -336.5 140.5t-134.5 360.5zM264 481q0 -140 70 -228.5t209 -88.5q127 0 201.5 91t74.5 226t-74.5 226.5t-201.5 91.5q-139 0 -209 -89t-70 -229zM1004 610h483q0 79 -67 134t-160 55q-195 0 -256 -189z " />
<glyph unicode="&#xe7;" horiz-adv-x="1003" d="M61 481q0 144 69.5 260.5t181.5 179t241 62.5q141 0 248 -66.5t170 -179.5l-160 -102q-27 67 -94 115.5t-154 48.5q-141 0 -221 -91t-80 -227t80 -226.5t221 -90.5q87 0 155 48.5t95 115.5l160 -103q-58 -102 -151.5 -165.5t-215.5 -75.5v-31q54 -9 100 -57t46 -121 q0 -96 -70 -155.5t-184 -59.5q-111 0 -195 69l84 142q6 -5 15.5 -13t40 -21t59.5 -13q33 0 52 14t19 37q0 24 -19 37.5t-52 13.5h-47v164q-168 33 -281 167.5t-113 323.5z" />
<glyph unicode="&#xe8;" horiz-adv-x="1034" d="M61 481q0 220 134.5 361t336.5 141q123 0 225.5 -60t164 -173t61.5 -258l-20 -62h-697q0 -112 75.5 -189t201.5 -77q89 0 151 39.5t86 103.5l172 -82q-65 -113 -172 -179t-248 -66q-128 0 -235 62.5t-171.5 178t-64.5 260.5zM254 1358l147 106l256 -389h-200zM276 610 h492q-8 80 -76 134.5t-160 54.5q-102 0 -166.5 -52t-89.5 -137z" />
<glyph unicode="&#xe9;" horiz-adv-x="1034" d="M61 481q0 220 134.5 361t336.5 141q123 0 225.5 -60t164 -173t61.5 -258l-20 -62h-697q0 -112 75.5 -189t201.5 -77q89 0 151 39.5t86 103.5l172 -82q-65 -113 -172 -179t-248 -66q-128 0 -235 62.5t-171.5 178t-64.5 260.5zM276 610h492q-8 80 -76 134.5t-160 54.5 q-102 0 -166.5 -52t-89.5 -137zM432 1075l256 389l148 -106l-203 -283h-201z" />
<glyph unicode="&#xea;" horiz-adv-x="1034" d="M61 481q0 220 134.5 361t336.5 141q123 0 225.5 -60t164 -173t61.5 -258l-20 -62h-697q0 -112 75.5 -189t201.5 -77q89 0 151 39.5t86 103.5l172 -82q-65 -113 -172 -179t-248 -66q-128 0 -235 62.5t-171.5 178t-64.5 260.5zM233 1186l187 217h205l186 -217l-121 -111 l-168 197l-168 -197zM276 610h492q-8 80 -76 134.5t-160 54.5q-102 0 -166.5 -52t-89.5 -137z" />
<glyph unicode="&#xeb;" horiz-adv-x="1034" d="M61 481q0 220 134.5 361t336.5 141q123 0 225.5 -60t164 -173t61.5 -258l-20 -62h-697q0 -112 75.5 -189t201.5 -77q89 0 151 39.5t86 103.5l172 -82q-65 -113 -172 -179t-248 -66q-128 0 -235 62.5t-171.5 178t-64.5 260.5zM258 1137v225h203v-225h-203zM276 610h492 q-8 80 -76 134.5t-160 54.5q-102 0 -166.5 -52t-89.5 -137zM606 1137v225h205v-225h-205z" />
<glyph unicode="&#xec;" horiz-adv-x="450" d="M-80 1358l148 106l256 -389h-201zM125 0v963h201v-963h-201z" />
<glyph unicode="&#xed;" horiz-adv-x="450" d="M125 0v963h201v-963h-201zM127 1075l256 389l147 -106l-202 -283h-201z" />
<glyph unicode="&#xee;" horiz-adv-x="450" d="M-63 1186l186 217h205l186 -217l-121 -111l-168 197l-168 -197zM125 0v963h201v-963h-201z" />
<glyph unicode="&#xef;" horiz-adv-x="450" d="M-51 1137v225h203v-225h-203zM125 0v963h201v-963h-201zM297 1137v225h205v-225h-205z" />
<glyph unicode="&#xf0;" horiz-adv-x="1146" d="M61 481q0 109 39.5 203.5t106.5 159.5t157 102t189 37q87 0 176 -41.5t131 -91.5l10 -10l11 10q0 220 -109 348l-127 -133l-123 113l123 129q-160 88 -379 65l103 184q221 11 403 -114l109 114l123 -112l-109 -115q138 -167 160 -407q19 -204 0 -451 q-17 -214 -156.5 -352.5t-335.5 -138.5q-96 0 -186.5 37t-160.5 101.5t-112.5 159.5t-42.5 203zM266 481q0 -135 81.5 -226t215.5 -91q126 0 211.5 87t85.5 230q0 133 -84 225.5t-213 92.5q-134 0 -215.5 -91.5t-81.5 -226.5z" />
<glyph unicode="&#xf1;" horiz-adv-x="1064" d="M123 0h205v582q3 90 69 153.5t156 63.5q196 0 205 -205v-594h205v594q0 172 -104.5 280.5t-285.5 108.5q-64 0 -129.5 -29t-95.5 -73l-10 -11l-10 11l-21 82h-184v-963zM250 1280l151 49q-2 -45 6 -64.5t37 -19.5q24 0 57 21.5t73.5 43t84.5 21.5q100 0 148.5 -63.5 t36.5 -182.5h-152q3 42 -5.5 61t-35.5 19q-20 0 -52.5 -22t-77 -44t-93.5 -22q-90 0 -137 55t-41 148z" />
<glyph unicode="&#xf2;" horiz-adv-x="1126" d="M61 481q0 144 70 260.5t184.5 179t247.5 62.5t247.5 -62.5t184.5 -179t70 -260.5t-70 -260t-184.5 -178.5t-247.5 -62.5t-247.5 62.5t-184.5 178.5t-70 260zM266 481q0 -137 78 -227t219 -90t219 90t78 227t-78 227.5t-219 90.5t-219 -90.5t-78 -227.5zM279 1358l147 106 l256 -389h-201z" />
<glyph unicode="&#xf3;" horiz-adv-x="1126" d="M61 481q0 144 70 260.5t184.5 179t247.5 62.5t247.5 -62.5t184.5 -179t70 -260.5t-70 -260t-184.5 -178.5t-247.5 -62.5t-247.5 62.5t-184.5 178.5t-70 260zM266 481q0 -137 78 -227t219 -90t219 90t78 227t-78 227.5t-219 90.5t-219 -90.5t-78 -227.5zM463 1075l256 389 l147 -106l-202 -283h-201z" />
<glyph unicode="&#xf4;" horiz-adv-x="1126" d="M61 481q0 144 70 260.5t184.5 179t247.5 62.5t247.5 -62.5t184.5 -179t70 -260.5t-70 -260t-184.5 -178.5t-247.5 -62.5t-247.5 62.5t-184.5 178.5t-70 260zM266 481q0 -137 78 -227t219 -90t219 90t78 227t-78 227.5t-219 90.5t-219 -90.5t-78 -227.5zM270 1186l187 217 h205l186 -217l-121 -111l-168 197l-168 -197z" />
<glyph unicode="&#xf5;" horiz-adv-x="1126" d="M61 481q0 144 70 260.5t184.5 179t247.5 62.5t247.5 -62.5t184.5 -179t70 -260.5t-70 -260t-184.5 -178.5t-247.5 -62.5t-247.5 62.5t-184.5 178.5t-70 260zM262 1280l152 49q-2 -45 6 -64.5t37 -19.5q24 0 57 21.5t73.5 43t84.5 21.5q100 0 148 -63.5t36 -182.5h-151 q3 42 -5.5 61t-35.5 19q-20 0 -52.5 -22t-77.5 -44t-94 -22q-90 0 -137 55t-41 148zM266 481q0 -137 78 -227t219 -90t219 90t78 227t-78 227.5t-219 90.5t-219 -90.5t-78 -227.5z" />
<glyph unicode="&#xf6;" horiz-adv-x="1126" d="M61 481q0 144 70 260.5t184.5 179t247.5 62.5t247.5 -62.5t184.5 -179t70 -260.5t-70 -260t-184.5 -178.5t-247.5 -62.5t-247.5 62.5t-184.5 178.5t-70 260zM266 481q0 -137 78 -227t219 -90t219 90t78 227t-78 227.5t-219 90.5t-219 -90.5t-78 -227.5zM287 1137v225h202 v-225h-202zM635 1137v225h205v-225h-205z" />
<glyph unicode="&#xf7;" horiz-adv-x="1105" d="M61 512v164h983v-164h-983zM430 102v246h246v-246h-246zM430 840v245h246v-245h-246z" />
<glyph unicode="&#xf8;" horiz-adv-x="1126" d="M0 0l164 174q-103 134 -103 307q0 144 72.5 260.5t186.5 179t243 62.5q149 0 277 -86l61 66h225l-163 -177q102 -133 102 -305q0 -108 -42.5 -203t-112.5 -159.5t-160.5 -101.5t-186.5 -37q-150 0 -278 83l-60 -63h-225zM262 481q0 -89 35 -164l418 447q-64 39 -152 39 q-141 0 -221 -92.5t-80 -229.5zM410 197q69 -37 153 -37q141 0 221 92t80 229q0 92 -37 162z" />
<glyph unicode="&#xf9;" horiz-adv-x="1064" d="M102 369q0 -172 104.5 -280.5t285.5 -108.5q64 0 129.5 29t95.5 73l10 10l10 -10l21 -82h184v963h-205v-584q-5 -89 -70.5 -152t-154.5 -63q-199 0 -205 205v594h-205v-594zM248 1358l147 106l256 -389h-200z" />
<glyph unicode="&#xfa;" horiz-adv-x="1064" d="M102 369q0 -172 104.5 -280.5t285.5 -108.5q64 0 129.5 29t95.5 73l10 10l10 -10l21 -82h184v963h-205v-584q-5 -89 -70.5 -152t-154.5 -63q-199 0 -205 205v594h-205v-594zM412 1075l256 389l147 -106l-203 -283h-200z" />
<glyph unicode="&#xfb;" horiz-adv-x="1064" d="M102 369v594h205v-594q6 -205 205 -205q89 0 154.5 63t70.5 152v584h205v-963h-184l-21 82l-10 10l-10 -10q-30 -44 -95.5 -73t-129.5 -29q-181 0 -285.5 108.5t-104.5 280.5zM231 1186l187 217h205l186 -217l-121 -111l-168 197l-168 -197z" />
<glyph unicode="&#xfc;" horiz-adv-x="1064" d="M102 369q0 -172 104.5 -280.5t285.5 -108.5q64 0 129.5 29t95.5 73l10 10l10 -10l21 -82h184v963h-205v-584q-5 -89 -70.5 -152t-154.5 -63q-199 0 -205 205v594h-205v-594zM248 1137v225h203v-225h-203zM596 1137v225h205v-225h-205z" />
<glyph unicode="&#xfd;" horiz-adv-x="880" d="M20 963l324 -836l-201 -537h205l512 1373h-205l-215 -578l-213 578h-207zM340 1075l256 389l147 -106l-202 -283h-201z" />
<glyph unicode="&#xfe;" horiz-adv-x="1126" d="M123 -434v1990h203v-675l12 -11l10 11q46 46 118.5 74t147.5 28q99 0 189 -37t157 -102t106.5 -159.5t39.5 -203.5q0 -145 -67.5 -260.5t-179.5 -178t-245 -62.5q-76 0 -148 28t-118 74l-10 10l-12 -10v-516h-203zM307 481q0 -133 84 -225t213 -92q141 0 219 90t78 227 t-78 227.5t-219 90.5q-129 0 -213 -92.5t-84 -225.5z" />
<glyph unicode="&#xff;" horiz-adv-x="880" d="M20 963l324 -836l-201 -537h205l512 1373h-205l-215 -578l-213 578h-207zM164 1137v225h203v-225h-203zM512 1137v225h205v-225h-205z" />
<glyph unicode="&#x100;" horiz-adv-x="1331" d="M41 0h215l131 389h555l133 -389h215l-512 1495h-225zM389 1669v164h553v-164h-553zM457 594l209 614l206 -614h-415z" />
<glyph unicode="&#x101;" horiz-adv-x="1167" d="M61 481q0 -145 67.5 -260.5t179.5 -178t245 -62.5q76 0 148 28t118 74l10 10l11 -10l20 -82h184v963h-184l-20 -82l-11 -11l-10 11q-46 46 -118 74t-148 28q-99 0 -189 -37t-157 -102t-106.5 -159.5t-39.5 -203.5zM264 481q0 137 79 227.5t220 90.5q129 0 213 -92.5 t84 -225.5t-84 -225t-213 -92q-141 0 -220 90t-79 227zM289 1116v154h553v-154h-553z" />
<glyph unicode="&#x102;" horiz-adv-x="1331" d="M41 0h215l131 389h555l133 -389h215l-512 1495h-225zM389 1860v14h174v-2q0 -39 26 -71t77 -32t76.5 31.5t25.5 71.5v2h174v-14q0 -97 -73.5 -174.5t-202.5 -77.5t-203 77.5t-74 174.5zM457 594l209 614l206 -614h-415z" />
<glyph unicode="&#x103;" horiz-adv-x="1167" d="M61 481q0 -145 67.5 -260.5t179.5 -178t245 -62.5q76 0 148 28t118 74l10 10l11 -10l20 -82h184v963h-184l-20 -82l-11 -11l-10 11q-46 46 -118 74t-148 28q-99 0 -189 -37t-157 -102t-106.5 -159.5t-39.5 -203.5zM264 481q0 137 79 227.5t220 90.5q129 0 213 -92.5 t84 -225.5t-84 -225t-213 -92q-141 0 -220 90t-79 227zM295 1317v12h166v-4q0 -42 29 -73t81 -31t81.5 31t29.5 73v4h166v-12q0 -98 -76 -172t-201 -74t-200.5 74t-75.5 172z" />
<glyph unicode="&#x104;" horiz-adv-x="1331" d="M41 0l512 1495h225l512 -1495l-57 -117q-10 -20 -10 -47q0 -34 28.5 -56t67.5 -22h45l-45 -168h-10q-126 0 -203.5 52.5t-77.5 138.5q0 41 19 89t79 130h-51l-133 389h-555l-131 -389h-215zM457 594h415l-206 614z" />
<glyph unicode="&#x105;" horiz-adv-x="1167" d="M61 481q0 109 39.5 203.5t106.5 159.5t157 102t189 37q76 0 148 -28t118 -74l10 -11l11 11l20 82h184v-963l-57 -117q-10 -20 -10 -47q0 -34 28.5 -56t67.5 -22h45l-45 -168h-10q-126 0 -203.5 52.5t-77.5 138.5q0 40 19.5 88t79.5 131h-21l-20 82l-11 10l-10 -10 q-46 -46 -118 -74t-148 -28q-133 0 -245 62.5t-179.5 178t-67.5 260.5zM264 481q0 -137 79 -227t220 -90q129 0 213 92t84 225t-84 225.5t-213 92.5q-141 0 -220 -90.5t-79 -227.5z" />
<glyph unicode="&#x106;" horiz-adv-x="1515" d="M82 745q0 218 99.5 399t276 286.5t392.5 105.5q171 0 329.5 -75.5t264.5 -211.5l-144 -143q-162 227 -440 227q-128 0 -234 -45t-177.5 -123.5t-110.5 -186t-39 -230.5q0 -166 67 -298t198 -210t306 -78q279 0 441 227l143 -143q-106 -136 -264.5 -211.5t-329.5 -75.5 q-221 0 -400 105t-278.5 284.5t-99.5 396.5zM748 1608l294 338l138 -129l-197 -209h-235z" />
<glyph unicode="&#x107;" horiz-adv-x="1003" d="M61 481q0 144 69.5 260.5t181.5 179t241 62.5q141 0 248 -66.5t170 -179.5l-160 -102q-27 67 -94 115.5t-154 48.5q-141 0 -221 -91t-80 -227t80 -226.5t221 -90.5q87 0 155 48.5t95 115.5l160 -103q-63 -112 -171 -178.5t-249 -66.5q-129 0 -241 62.5t-181.5 178.5 t-69.5 260zM461 1075l256 389l147 -106l-202 -283h-201z" />
<glyph unicode="&#x108;" horiz-adv-x="1515" d="M82 745q0 218 99.5 399t276 286.5t392.5 105.5q171 0 329.5 -75.5t264.5 -211.5l-144 -143q-162 227 -440 227q-128 0 -234 -45t-177.5 -123.5t-110.5 -186t-39 -230.5q0 -166 67 -298t198 -210t306 -78q279 0 441 227l143 -143q-106 -136 -264.5 -211.5t-329.5 -75.5 q-221 0 -400 105t-278.5 284.5t-99.5 396.5zM557 1739l213 200h180l213 -200l-129 -131l-174 168l-174 -168z" />
<glyph unicode="&#x109;" horiz-adv-x="1003" d="M61 481q0 144 69.5 260.5t181.5 179t241 62.5q141 0 248 -66.5t170 -179.5l-160 -102q-27 67 -94 115.5t-154 48.5q-141 0 -221 -91t-80 -227t80 -226.5t221 -90.5q87 0 155 48.5t95 115.5l160 -103q-63 -112 -171 -178.5t-249 -66.5q-129 0 -241 62.5t-181.5 178.5 t-69.5 260zM266 1186l187 217h204l187 -217l-121 -111l-168 197l-168 -197z" />
<glyph unicode="&#x10a;" horiz-adv-x="1515" d="M82 745q0 218 99.5 399t276 286.5t392.5 105.5q171 0 329.5 -75.5t264.5 -211.5l-144 -143q-162 227 -440 227q-128 0 -234 -45t-177.5 -123.5t-110.5 -186t-39 -230.5q0 -166 67 -298t198 -210t306 -78q279 0 441 227l143 -143q-106 -136 -264.5 -211.5t-329.5 -75.5 q-221 0 -400 105t-278.5 284.5t-99.5 396.5zM737 1632v226h226v-226h-226z" />
<glyph unicode="&#x10b;" horiz-adv-x="1003" d="M61 481q0 144 69.5 260.5t181.5 179t241 62.5q141 0 248 -66.5t170 -179.5l-160 -102q-27 67 -94 115.5t-154 48.5q-141 0 -221 -91t-80 -227t80 -226.5t221 -90.5q87 0 155 48.5t95 115.5l160 -103q-63 -112 -171 -178.5t-249 -66.5q-129 0 -241 62.5t-181.5 178.5 t-69.5 260zM451 1116v225h204v-225h-204z" />
<glyph unicode="&#x10c;" horiz-adv-x="1515" d="M82 745q0 218 99.5 399t276 286.5t392.5 105.5q171 0 329.5 -75.5t264.5 -211.5l-144 -143q-162 227 -440 227q-128 0 -234 -45t-177.5 -123.5t-110.5 -186t-39 -230.5q0 -166 67 -298t198 -210t306 -78q279 0 441 227l143 -143q-106 -136 -264.5 -211.5t-329.5 -75.5 q-221 0 -400 105t-278.5 284.5t-99.5 396.5zM537 1808l129 131l174 -167l174 167l129 -131l-213 -200h-180z" />
<glyph unicode="&#x10d;" horiz-adv-x="1003" d="M61 481q0 144 69.5 260.5t181.5 179t241 62.5q141 0 248 -66.5t170 -179.5l-160 -102q-27 67 -94 115.5t-154 48.5q-141 0 -221 -91t-80 -227t80 -226.5t221 -90.5q87 0 155 48.5t95 115.5l160 -103q-63 -112 -171 -178.5t-249 -66.5q-129 0 -241 62.5t-181.5 178.5 t-69.5 260zM262 1292l121 111l168 -197l168 197l121 -111l-187 -217h-204z" />
<glyph unicode="&#x10e;" horiz-adv-x="1351" d="M164 0v1495h338q218 0 393 -94t275 -265.5t100 -387.5t-100 -387.5t-275 -266t-393 -94.5h-338zM291 1808l129 131l174 -167l174 167l129 -131l-213 -200h-180zM379 205h133q254 0 398.5 144.5t144.5 398.5q0 253 -144.5 397.5t-398.5 144.5h-133v-1085z" />
<glyph unicode="&#x10f;" horiz-adv-x="1351" d="M61 481q0 109 39.5 203.5t106.5 159.5t157 102t189 37q75 0 147.5 -28t118.5 -74l10 -11l11 11v675h204v-1556h-184l-20 82l-11 10l-10 -10q-46 -46 -118 -74t-148 -28q-133 0 -245 62.5t-179.5 178t-67.5 260.5zM264 481q0 -137 79 -227t220 -90q129 0 213 92t84 225 t-84 225.5t-213 92.5q-141 0 -220 -90.5t-79 -227.5zM1106 1180l119 376h190l-139 -432z" />
<glyph unicode="&#x110;" horiz-adv-x="1351" d="M20 655v185h185v655h297q218 0 393 -94t275 -265.5t100 -387.5t-100 -387.5t-275 -266t-393 -94.5h-297v655h-185zM420 205h92q254 0 398.5 144.5t144.5 398.5q0 253 -144.5 397.5t-398.5 144.5h-92v-450h215v-185h-215v-450z" />
<glyph unicode="&#x111;" horiz-adv-x="1167" d="M61 481q0 109 39.5 203.5t106.5 159.5t157 102t189 37q75 0 147.5 -28t118.5 -74l10 -11l11 11v256h-308v153h308v266h204v-266h123v-153h-123v-1137h-184l-20 82l-11 10l-10 -10q-46 -46 -118 -74t-148 -28q-133 0 -245 62.5t-179.5 178t-67.5 260.5zM264 481 q0 -137 79 -227t220 -90q129 0 213 92t84 225t-84 225.5t-213 92.5q-141 0 -220 -90.5t-79 -227.5z" />
<glyph unicode="&#x112;" horiz-adv-x="1167" d="M164 0h901v205h-686v450h665v205h-665v430h686v205h-901v-1495zM340 1669v164h553v-164h-553z" />
<glyph unicode="&#x113;" horiz-adv-x="1034" d="M61 481q0 220 134.5 361t336.5 141q123 0 225.5 -60t164 -173t61.5 -258l-20 -62h-697q0 -112 75.5 -189t201.5 -77q89 0 151 39.5t86 103.5l172 -82q-65 -113 -172 -179t-248 -66q-128 0 -235 62.5t-171.5 178t-64.5 260.5zM254 1116v154h553v-154h-553zM276 610h492 q-8 80 -76 134.5t-160 54.5q-102 0 -166.5 -52t-89.5 -137z" />
<glyph unicode="&#x114;" horiz-adv-x="1167" d="M164 0h901v205h-686v450h665v205h-665v430h686v205h-901v-1495zM342 1860v14h174v-2q0 -40 25.5 -71.5t76.5 -31.5t77 32t26 71v2h174v-14q0 -97 -74 -174.5t-203 -77.5t-202.5 77.5t-73.5 174.5z" />
<glyph unicode="&#x115;" horiz-adv-x="1034" d="M61 481q0 220 134.5 361t336.5 141q123 0 225.5 -60t164 -173t61.5 -258l-20 -62h-697q0 -112 75.5 -189t201.5 -77q89 0 151 39.5t86 103.5l172 -82q-65 -113 -172 -179t-248 -66q-128 0 -235 62.5t-171.5 178t-64.5 260.5zM258 1317v12h166v-4q0 -42 29.5 -73t81.5 -31 t81 31t29 73v4h166v-12q0 -98 -75.5 -172t-200.5 -74t-201 74t-76 172zM276 610h492q-8 80 -76 134.5t-160 54.5q-102 0 -166.5 -52t-89.5 -137z" />
<glyph unicode="&#x116;" horiz-adv-x="1167" d="M164 0h901v205h-686v450h665v205h-665v430h686v205h-901v-1495zM506 1632v226h225v-226h-225z" />
<glyph unicode="&#x117;" horiz-adv-x="1034" d="M61 481q0 220 134.5 361t336.5 141q123 0 225.5 -60t164 -173t61.5 -258l-20 -62h-697q0 -112 75.5 -189t201.5 -77q89 0 151 39.5t86 103.5l172 -82q-65 -113 -172 -179t-248 -66q-128 0 -235 62.5t-171.5 178t-64.5 260.5zM276 610h492q-8 80 -76 134.5t-160 54.5 q-102 0 -166.5 -52t-89.5 -137zM414 1116v225h204v-225h-204z" />
<glyph unicode="&#x118;" horiz-adv-x="1167" d="M164 0v1495h901v-205h-686v-430h665v-205h-665v-450h686v-205h-74l-57 -117q-10 -20 -10 -47q0 -34 28.5 -56t67.5 -22h45l-45 -168h-10q-126 0 -203.5 52.5t-77.5 138.5q0 41 19 89t79 130h-663z" />
<glyph unicode="&#x119;" horiz-adv-x="1034" d="M61 481q0 220 134.5 361t336.5 141q123 0 225.5 -60t164 -173t61.5 -258l-20 -62h-697q0 -112 75.5 -189t201.5 -77q89 0 151 39.5t86 103.5l172 -82q-108 -222 -126 -275q-21 -59 -21 -106q0 -86 92 -86h45l-45 -168q-126 -6 -201 50.5t-75 144.5q0 103 81 223 q-79 -28 -170 -28q-128 0 -235 62.5t-171.5 178t-64.5 260.5zM276 610h492q-8 80 -76 134.5t-160 54.5q-102 0 -166.5 -52t-89.5 -137z" />
<glyph unicode="&#x11a;" horiz-adv-x="1167" d="M164 0v1495h901v-205h-686v-430h665v-205h-665v-450h686v-205h-901zM309 1808l129 131l174 -167l174 167l129 -131l-213 -200h-180z" />
<glyph unicode="&#x11b;" horiz-adv-x="1034" d="M61 481q0 220 134.5 361t336.5 141q123 0 225.5 -60t164 -173t61.5 -258l-20 -62h-697q0 -112 75.5 -189t201.5 -77q89 0 151 39.5t86 103.5l172 -82q-65 -113 -172 -179t-248 -66q-128 0 -235 62.5t-171.5 178t-64.5 260.5zM238 1292l120 111l168 -197l168 197l121 -111 l-186 -217h-205zM276 610h492q-8 80 -76 134.5t-160 54.5q-102 0 -166.5 -52t-89.5 -137z" />
<glyph unicode="&#x11c;" horiz-adv-x="1648" d="M82 748q0 218 99.5 398t278.5 285t400 105q180 0 333 -75.5t263 -209.5l-147 -147q-75 108 -193 167.5t-266 59.5q-250 0 -400.5 -163.5t-150.5 -422.5q0 -256 150.5 -418.5t400.5 -162.5q225 0 378.5 132t168.5 339h-762v205h778l195 -195q-7 -137 -69.5 -262.5 t-162.5 -219t-238 -149t-288 -55.5q-216 0 -392.5 105t-276 285.5t-99.5 398.5zM543 1739l213 200h180l213 -200l-129 -131l-174 168l-174 -168z" />
<glyph unicode="&#x11d;" horiz-adv-x="993" d="M61 -63q0 100 50 177.5t135 121.5q-86 51 -135.5 135.5t-49.5 191.5q0 177 121.5 298.5t298.5 121.5q70 0 138 -28.5t98 -73.5l10 -11l10 11l21 82h143v-400q0 -107 -49 -191.5t-135 -135.5q86 -44 135 -121.5t49 -177.5q0 -110 -60.5 -195t-155.5 -127.5t-204 -42.5 t-204 42.5t-155.5 127.5t-60.5 195zM201 1186l186 217h205l186 -217l-121 -111l-168 197l-167 -197zM256 -61q0 -85 62.5 -138t162.5 -53t163 53t63 138t-63 139.5t-163 54.5q-99 0 -162 -54.5t-63 -139.5zM256 563q0 -101 63 -168t162 -67t162.5 67t63.5 168t-63.5 168.5 t-162.5 67.5t-162 -67.5t-63 -168.5z" />
<glyph unicode="&#x11e;" horiz-adv-x="1648" d="M82 748q0 -218 99.5 -398.5t276 -285.5t392.5 -105q150 0 288 55.5t238 149t162.5 219t69.5 262.5l-195 195h-778v-205h762q-15 -207 -168.5 -339t-378.5 -132q-250 0 -400.5 162.5t-150.5 418.5q0 259 150.5 422.5t400.5 163.5q148 0 266 -59.5t193 -167.5l147 147 q-110 134 -263 209.5t-333 75.5q-221 0 -400 -105t-278.5 -285t-99.5 -398zM582 1860v14h174v-2q0 -40 25.5 -71.5t76.5 -31.5t77 32t26 71v2h174v-14q0 -97 -74 -174.5t-203 -77.5t-202.5 77.5t-73.5 174.5z" />
<glyph unicode="&#x11f;" horiz-adv-x="993" d="M61 -63q0 -110 60.5 -195t155.5 -127.5t204 -42.5t204 42.5t155.5 127.5t60.5 195q0 100 -49 177.5t-135 121.5q86 51 135 135.5t49 191.5v400h-143l-21 -82l-10 -11l-10 11q-30 45 -98 73.5t-138 28.5q-177 0 -298.5 -121.5t-121.5 -298.5q0 -107 49.5 -191.5 t135.5 -135.5q-85 -44 -135 -121.5t-50 -177.5zM211 1317v12h166v-4q0 -42 29 -73t81 -31t81.5 31t29.5 73v4h166v-12q0 -98 -76 -172t-201 -74t-200.5 74t-75.5 172zM256 -61q0 85 63 139.5t162 54.5q100 0 163 -54.5t63 -139.5t-63 -138t-163 -53t-162.5 53t-62.5 138z M256 563q0 101 63 168.5t162 67.5t162.5 -67.5t63.5 -168.5t-63.5 -168t-162.5 -67t-162 67t-63 168z" />
<glyph unicode="&#x120;" horiz-adv-x="1648" d="M82 748q0 -218 99.5 -398.5t276 -285.5t392.5 -105q150 0 288 55.5t238 149t162.5 219t69.5 262.5l-195 195h-778v-205h762q-15 -207 -168.5 -339t-378.5 -132q-250 0 -400.5 162.5t-150.5 418.5q0 259 150.5 422.5t400.5 163.5q148 0 266 -59.5t193 -167.5l147 147 q-110 134 -263 209.5t-333 75.5q-221 0 -400 -105t-278.5 -285t-99.5 -398zM750 1632v226h225v-226h-225z" />
<glyph unicode="&#x121;" horiz-adv-x="993" d="M61 -63q0 -110 60.5 -195t155.5 -127.5t204 -42.5t204 42.5t155.5 127.5t60.5 195q0 100 -49 177.5t-135 121.5q86 51 135 135.5t49 191.5v400h-143l-21 -82l-10 -11l-10 11q-30 45 -98 73.5t-138 28.5q-177 0 -298.5 -121.5t-121.5 -298.5q0 -107 49.5 -191.5 t135.5 -135.5q-85 -44 -135 -121.5t-50 -177.5zM256 -61q0 85 63 139.5t162 54.5q100 0 163 -54.5t63 -139.5t-63 -138t-163 -53t-162.5 53t-62.5 138zM256 563q0 101 63 168.5t162 67.5t162.5 -67.5t63.5 -168.5t-63.5 -168t-162.5 -67t-162 67t-63 168zM379 1116v225h205 v-225h-205z" />
<glyph unicode="&#x122;" horiz-adv-x="1648" d="M82 748q0 218 99.5 398t278.5 285t400 105q180 0 333 -75.5t263 -209.5l-147 -147q-75 108 -193 167.5t-266 59.5q-250 0 -400.5 -163.5t-150.5 -422.5q0 -256 150.5 -418.5t400.5 -162.5q225 0 378.5 132t168.5 339h-762v205h778l195 -195q-7 -137 -69.5 -262.5 t-162.5 -219t-238 -149t-288 -55.5q-216 0 -392.5 105t-276 285.5t-99.5 398.5zM655 -434l109 330h197l-130 -388z" />
<glyph unicode="&#x123;" horiz-adv-x="993" d="M61 -63q0 -110 60.5 -195t155.5 -127.5t204 -42.5t204 42.5t155.5 127.5t60.5 195q0 100 -49 177.5t-135 121.5q86 51 135 135.5t49 191.5v400h-143l-21 -82l-10 -11l-10 11q-30 45 -98 73.5t-138 28.5q-177 0 -298.5 -121.5t-121.5 -298.5q0 -107 49.5 -191.5 t135.5 -135.5q-85 -44 -135 -121.5t-50 -177.5zM256 -61q0 85 63 139.5t162 54.5q100 0 163 -54.5t63 -139.5t-63 -138t-163 -53t-162.5 53t-62.5 138zM256 563q0 101 63 168.5t162 67.5t162.5 -67.5t63.5 -168.5t-63.5 -168t-162.5 -67t-162 67t-63 168zM379 1075l129 387 l176 -57l-109 -330h-196z" />
<glyph unicode="&#x124;" horiz-adv-x="1331" d="M164 0v1495h215v-635h573v635h215v-1495h-215v655h-573v-655h-215zM362 1739l213 200h181l213 -200l-129 -131l-174 168l-174 -168z" />
<glyph unicode="&#x125;" horiz-adv-x="1064" d="M123 0v1556h205v-675l10 -11l10 11q30 44 95.5 73t129.5 29q181 0 285.5 -108.5t104.5 -280.5v-594h-205v594q-9 205 -205 205q-90 0 -156 -63.5t-69 -153.5v-582h-205zM162 1749l186 197h205l186 -197l-121 -111l-167 177l-168 -177z" />
<glyph unicode="&#x126;" horiz-adv-x="1331" d="M51 1065v205h113v225h215v-225h573v225h215v-225h113v-205h-113v-1065h-215v655h-573v-655h-215v1065h-113zM379 860h573v205h-573v-205z" />
<glyph unicode="&#x127;" horiz-adv-x="1064" d="M0 1137v153h123v266h205v-266h307v-153h-307v-256l10 -11l10 11q30 44 95.5 73t129.5 29q181 0 285.5 -108.5t104.5 -280.5v-594h-205v594q-9 205 -205 205q-90 0 -156 -63.5t-69 -153.5v-582h-205v1137h-123z" />
<glyph unicode="&#x128;" horiz-adv-x="593" d="M-20 1843l170 45q-9 -80 45 -80q24 0 61 19.5t81.5 39t88.5 19.5q101 0 156 -68.5t43 -189.5h-168q12 80 -43 80q-20 0 -58 -20t-88.5 -40t-99.5 -20q-93 0 -144 57t-44 158zM154 0h286v205h-34v1085h34v205h-286v-205h34v-1085h-34v-205z" />
<glyph unicode="&#x129;" horiz-adv-x="450" d="M-68 1280l152 49q-2 -45 6 -64.5t37 -19.5q24 0 57 21.5t73.5 43t84.5 21.5q100 0 148 -63.5t36 -182.5h-151q3 42 -5.5 61t-35.5 19q-20 0 -52.5 -22t-77 -44t-93.5 -22q-90 0 -137.5 55t-41.5 148zM125 0v963h201v-963h-201z" />
<glyph unicode="&#x12a;" horiz-adv-x="593" d="M20 1669v164h553v-164h-553zM154 0h286v205h-34v1085h34v205h-286v-205h34v-1085h-34v-205z" />
<glyph unicode="&#x12b;" horiz-adv-x="450" d="M-51 1116v154h553v-154h-553zM125 0v963h201v-963h-201z" />
<glyph unicode="&#x12c;" horiz-adv-x="593" d="M20 1860v14h175v-2q0 -40 25.5 -71.5t76.5 -31.5t76.5 31.5t25.5 71.5v2h174v-14q0 -97 -73.5 -174.5t-202.5 -77.5t-203 77.5t-74 174.5zM154 0h286v205h-34v1085h34v205h-286v-205h34v-1085h-34v-205z" />
<glyph unicode="&#x12d;" horiz-adv-x="450" d="M-51 1317v12h166v-4q0 -42 29 -73t81 -31t81.5 31t29.5 73v4h166v-12q0 -98 -76 -172t-201 -74t-200.5 74t-75.5 172zM125 0v963h201v-963h-201z" />
<glyph unicode="&#x12e;" horiz-adv-x="593" d="M115 -219q0 41 19 89t79 130h-59v205h34v1085h-34v205h286v-205h-34v-1085h34v-205h-63l-58 -117q-10 -20 -10 -47q0 -34 28.5 -56t68.5 -22h45l-45 -168h-11q-126 0 -203 52.5t-77 138.5z" />
<glyph unicode="&#x12f;" horiz-adv-x="450" d="M63 -219q0 -86 77.5 -138.5t203.5 -52.5h10l45 168h-45q-39 0 -67.5 22t-28.5 56q0 27 10 47l58 117h-164q-60 -83 -79.5 -131t-19.5 -88zM123 1147v225h205v-225h-205zM125 0v963h201v-963h-201z" />
<glyph unicode="&#x130;" horiz-adv-x="593" d="M154 0h286v205h-34v1085h34v205h-286v-205h34v-1085h-34v-205zM184 1632v226h226v-226h-226z" />
<glyph unicode="&#x131;" horiz-adv-x="450" d="M125 0v963h201v-963h-201z" />
<glyph unicode="&#x134;" horiz-adv-x="573" d="M-4 1739l213 200h180l213 -200l-129 -131l-174 168l-174 -168zM61 0h41q41 0 67 22t26 60v1413h215v-1393q0 -138 -85 -222.5t-223 -84.5l-41 21v184z" />
<glyph unicode="&#x135;" horiz-adv-x="468" d="M-61 -250l112 -20q45 0 68.5 27.5t23.5 74.5v1131h203v-1110q0 -142 -77.5 -225t-227.5 -83l-102 21v184zM-53 1186l186 217h205l186 -217l-121 -111l-167 197l-168 -197z" />
<glyph unicode="&#x136;" horiz-adv-x="1208" d="M164 0v1495h215v-614l553 614h256l-645 -735l665 -760h-274l-555 635v-635h-215zM434 -414l109 330h196l-129 -387z" />
<glyph unicode="&#x137;" horiz-adv-x="983" d="M123 0v1556h205v-983l389 390h266l-463 -463l484 -500h-267l-409 410v-410h-205zM338 -414l108 330h197l-129 -387z" />
<glyph unicode="&#x139;" horiz-adv-x="1085" d="M164 0h840v205h-625v1290h-215v-1495zM164 1608l295 338l137 -129l-197 -209h-235z" />
<glyph unicode="&#x13a;" horiz-adv-x="450" d="M123 184l20 -184h205l-20 184v1372h-205v-1372zM123 1640l266 306l119 -109l-176 -197h-209z" />
<glyph unicode="&#x13b;" horiz-adv-x="1085" d="M164 0v1495h215v-1290h625v-205h-840zM393 -414l109 330h196l-129 -387z" />
<glyph unicode="&#x13c;" horiz-adv-x="450" d="M51 -414l109 330h196l-129 -387zM123 184v1372h205v-1372l20 -184h-205z" />
<glyph unicode="&#x13d;" horiz-adv-x="1085" d="M164 0h840v205h-625v1290h-215v-1495zM485 1221l119 376h191l-140 -432z" />
<glyph unicode="&#x13e;" horiz-adv-x="634" d="M123 184v1372h205v-1372l20 -184h-205zM389 1180l119 376h190l-139 -432z" />
<glyph unicode="&#x13f;" horiz-adv-x="1085" d="M164 0v1495h215v-1290h625v-205h-840zM555 492v266h246v-266h-246z" />
<glyph unicode="&#x140;" horiz-adv-x="819" d="M123 184v1372h205v-1372l20 -184h-205zM512 471v266h246v-266h-246z" />
<glyph unicode="&#x141;" horiz-adv-x="1085" d="M61 369v204l103 56v866h215v-747l317 174v-205l-317 -174v-338h625v-205h-840v424z" />
<glyph unicode="&#x142;" horiz-adv-x="450" d="M0 471v205l123 110v770h205v-583l123 112v-204l-123 -113v-584l20 -184h-205l-20 184v398z" />
<glyph unicode="&#x143;" horiz-adv-x="1413" d="M164 0h213v1126l637 -1126h235v1495h-213v-1106l-637 1106h-235v-1495zM594 1608l295 338l137 -129l-197 -209h-235z" />
<glyph unicode="&#x144;" horiz-adv-x="1064" d="M123 0h205v582q3 90 69 153.5t156 63.5q196 0 205 -205v-594h205v594q0 172 -104.5 280.5t-285.5 108.5q-64 0 -129.5 -29t-95.5 -73l-10 -11l-10 11l-21 82h-184v-963zM438 1075l256 389l148 -106l-203 -283h-201z" />
<glyph unicode="&#x145;" horiz-adv-x="1413" d="M164 0v1495h235l637 -1106v1106h213v-1495h-235l-637 1126v-1126h-213zM537 -414l108 330h197l-129 -387z" />
<glyph unicode="&#x146;" horiz-adv-x="1064" d="M123 0v963h184l21 -82l10 -11l10 11q30 44 95.5 73t129.5 29q181 0 285.5 -108.5t104.5 -280.5v-594h-205v594q-9 205 -205 205q-90 0 -156 -63.5t-69 -153.5v-582h-205zM362 -414l109 330h197l-129 -387z" />
<glyph unicode="&#x147;" horiz-adv-x="1413" d="M164 0v1495h235l637 -1106v1106h213v-1495h-235l-637 1126v-1126h-213zM403 1808l129 131l175 -167l174 167l129 -131l-213 -200h-181z" />
<glyph unicode="&#x148;" horiz-adv-x="1064" d="M123 0v963h184l21 -82l10 -11l10 11q30 44 95.5 73t129.5 29q181 0 285.5 -108.5t104.5 -280.5v-594h-205v594q-9 205 -205 205q-90 0 -156 -63.5t-69 -153.5v-582h-205zM262 1292l121 111l168 -197l168 197l121 -111l-187 -217h-204z" />
<glyph unicode="&#x14a;" horiz-adv-x="1413" d="M164 0v1495h235l637 -1106v1106h213v-1622q0 -138 -83.5 -222.5t-221.5 -84.5l-41 20v185h41q41 0 66.5 22t25.5 60v147l-659 1126v-1126h-213z" />
<glyph unicode="&#x14b;" horiz-adv-x="1064" d="M123 0v963h184l21 -82l10 -11l10 11q30 44 95.5 73t129.5 29q181 0 285.5 -108.5t104.5 -280.5v-741q0 -142 -78 -225t-228 -83l-102 21v184l113 -20q44 0 67 27.5t23 74.5v762q-9 205 -205 205q-90 0 -156 -63.5t-69 -153.5v-582h-205z" />
<glyph unicode="&#x14c;" horiz-adv-x="1740" d="M82 748q0 -161 62.5 -307t167.5 -251.5t251 -168t307 -62.5t307 62.5t251.5 168t168 251.5t62.5 307t-62.5 307t-168 251t-251.5 167.5t-307 62.5q-214 0 -395.5 -105.5t-287 -287t-105.5 -395.5zM297 745q0 126 42.5 234.5t117 186t181.5 121.5t232 44q252 0 412 -165 t160 -421q0 -253 -160 -417t-412 -164t-412.5 164t-160.5 417zM594 1669v164h553v-164h-553z" />
<glyph unicode="&#x14d;" horiz-adv-x="1126" d="M61 481q0 144 70 260.5t184.5 179t247.5 62.5t247.5 -62.5t184.5 -179t70 -260.5t-70 -260t-184.5 -178.5t-247.5 -62.5t-247.5 62.5t-184.5 178.5t-70 260zM266 481q0 -137 78 -227t219 -90t219 90t78 227t-78 227.5t-219 90.5t-219 -90.5t-78 -227.5zM287 1116v154h553 v-154h-553z" />
<glyph unicode="&#x14e;" horiz-adv-x="1740" d="M82 748q0 -161 62.5 -307t167.5 -251.5t251 -168t307 -62.5t307 62.5t251.5 168t168 251.5t62.5 307t-62.5 307t-168 251t-251.5 167.5t-307 62.5q-214 0 -395.5 -105.5t-287 -287t-105.5 -395.5zM297 745q0 126 42.5 234.5t117 186t181.5 121.5t232 44q252 0 412 -165 t160 -421q0 -253 -160 -417t-412 -164t-412.5 164t-160.5 417zM594 1860v14h174v-2q0 -40 25.5 -71.5t76.5 -31.5t77 32t26 71v2h174v-14q0 -97 -74 -174.5t-203 -77.5t-202.5 77.5t-73.5 174.5z" />
<glyph unicode="&#x14f;" horiz-adv-x="1126" d="M61 481q0 144 70 260.5t184.5 179t247.5 62.5t247.5 -62.5t184.5 -179t70 -260.5t-70 -260t-184.5 -178.5t-247.5 -62.5t-247.5 62.5t-184.5 178.5t-70 260zM266 481q0 -137 78 -227t219 -90t219 90t78 227t-78 227.5t-219 90.5t-219 -90.5t-78 -227.5zM287 1317v12h166 v-4q0 -42 29 -73t81 -31t81.5 31t29.5 73v4h166v-12q0 -98 -76 -172t-201 -74t-200.5 74t-75.5 172z" />
<glyph unicode="&#x150;" horiz-adv-x="1740" d="M82 748q0 -161 62.5 -307t167.5 -251.5t251 -168t307 -62.5t307 62.5t251.5 168t168 251.5t62.5 307t-62.5 307t-168 251t-251.5 167.5t-307 62.5q-214 0 -395.5 -105.5t-287 -287t-105.5 -395.5zM297 745q0 126 42.5 234.5t117 186t181.5 121.5t232 44q252 0 412 -165 t160 -421q0 -253 -160 -417t-412 -164t-412.5 164t-160.5 417zM621 1606l192 338l160 -97l-156 -241h-196zM911 1606l273 346l141 -117l-203 -229h-211z" />
<glyph unicode="&#x151;" horiz-adv-x="1126" d="M61 481q0 144 70 260.5t184.5 179t247.5 62.5t247.5 -62.5t184.5 -179t70 -260.5t-70 -260t-184.5 -178.5t-247.5 -62.5t-247.5 62.5t-184.5 178.5t-70 260zM266 481q0 -137 78 -227t219 -90t219 90t78 227t-78 227.5t-219 90.5t-219 -90.5t-78 -227.5zM334 1055l178 370 l166 -79l-154 -291h-190zM614 1055l238 366l143 -102l-182 -264h-199z" />
<glyph unicode="&#x152;" horiz-adv-x="1966" d="M82 748q0 162 60 308t163.5 251.5t248 167t306.5 61.5q145 0 266 -41h738v-205h-523v-430h502v-205h-502v-450h523v-205h-738q-121 -41 -266 -41q-216 0 -395 105t-281 286t-102 398zM297 745q0 -253 160.5 -417t412.5 -164q141 0 256 53v1063q-111 51 -256 51 q-125 0 -232 -44t-181.5 -121.5t-117 -186t-42.5 -234.5z" />
<glyph unicode="&#x153;" horiz-adv-x="1773" d="M61 481q0 144 69.5 260.5t179 179t233.5 62.5q160 0 286 -102l89 -109l86 109q126 102 286 102q81 0 159 -34t140 -95.5t98.5 -156t32.5 -205.5l-20 -62h-676q0 -112 69.5 -189t186.5 -77q89 0 152 39.5t90 103.5l170 -82q-65 -114 -168.5 -179.5t-243.5 -65.5 q-150 0 -276 102l-86 106l-89 -106q-126 -102 -286 -102q-92 0 -179 37t-154 101.5t-108 159.5t-41 203zM264 481q0 -135 76 -226t203 -91q132 0 204 90t72 227q0 138 -72 228t-204 90q-128 0 -203.5 -91.5t-75.5 -226.5zM1024 610h485q-3 86 -68 138.5t-161 52.5 q-194 0 -256 -191z" />
<glyph unicode="&#x154;" horiz-adv-x="1249" d="M164 0h215v655h41l524 -655h244v41l-506 614q124 0 231.5 50.5t175.5 148t68 221.5q0 129 -64.5 226t-168 145.5t-228.5 48.5h-532v-1495zM379 860v430h328q96 0 165.5 -59.5t69.5 -155.5t-69.5 -155.5t-165.5 -59.5h-328zM471 1608l295 338l137 -129l-196 -209h-236z " />
<glyph unicode="&#x155;" d="M123 0h205v561q3 90 69 153.5t156 63.5h123v185q-28 14 -47.5 17t-55.5 3q-133 0 -225 -123l-10 -10l-10 10l-21 103h-184v-963zM295 1075l256 389l147 -106l-202 -283h-201z" />
<glyph unicode="&#x156;" horiz-adv-x="1249" d="M164 0v1495h532q125 0 228.5 -48.5t168 -145.5t64.5 -226q0 -124 -68 -221.5t-175.5 -148t-231.5 -50.5l506 -614v-41h-244l-524 655h-41v-655h-215zM379 860h328q96 0 165.5 59.5t69.5 155.5t-69.5 155.5t-165.5 59.5h-328v-430zM455 -414l108 330h197l-129 -387z" />
<glyph unicode="&#x157;" d="M23 -414l108 330h197l-129 -387zM123 0v963h184l21 -103l10 -10l10 10q92 123 225 123q25 0 37 -0.5t29 -5t37 -14.5v-185h-123q-90 0 -156 -63.5t-69 -153.5v-561h-205z" />
<glyph unicode="&#x158;" horiz-adv-x="1249" d="M164 0v1495h532q125 0 228.5 -48.5t168 -145.5t64.5 -226q0 -124 -68 -221.5t-175.5 -148t-231.5 -50.5l506 -614v-41h-244l-524 655h-41v-655h-215zM301 1808l129 131l174 -167l174 167l129 -131l-213 -200h-180zM379 860h328q96 0 165.5 59.5t69.5 155.5t-69.5 155.5 t-165.5 59.5h-328v-430z" />
<glyph unicode="&#x159;" d="M113 1292l120 111l168 -197l168 197l121 -111l-186 -217h-205zM123 0v963h184l21 -103l10 -10l10 10q92 123 225 123q25 0 37 -0.5t29 -5t37 -14.5v-185h-123q-90 0 -156 -63.5t-69 -153.5v-561h-205z" />
<glyph unicode="&#x15a;" horiz-adv-x="1208" d="M82 410l215 82q-2 -97 43.5 -172.5t115 -112.5t148.5 -37q130 0 208.5 66t78.5 174q0 179 -236 225q-74 15 -163 43q-77 23 -140.5 59.5t-116.5 90t-82.5 129.5t-29.5 169q0 175 133 290.5t328 115.5q132 0 242 -54.5t174.5 -152.5t64.5 -219h-225q0 93 -74.5 159 t-181.5 66q-112 0 -179 -60.5t-67 -154.5q0 -173 235 -235q66 -17 164 -39q80 -19 144.5 -52.5t116 -85t80 -126.5t28.5 -168q0 -85 -34.5 -165t-97 -143t-159 -101t-211.5 -38q-136 0 -256.5 63.5t-192 167t-73.5 216.5zM471 1608l295 338l137 -129l-196 -209h-236z" />
<glyph unicode="&#x15b;" horiz-adv-x="829" d="M41 266l184 72q8 -77 63.5 -127.5t131.5 -50.5q73 0 113 33.5t40 82.5q0 44 -30 69t-92 36q-42 7 -103 22q-128 32 -202 106.5t-74 186.5q0 88 51 155t127 99.5t160 32.5q134 0 233.5 -79.5t114.5 -207.5h-205q0 46 -41 76.5t-102 30.5q-62 0 -103 -30.5t-41 -76.5 q0 -87 123 -110l103 -21q127 -28 201.5 -100t74.5 -189q0 -123 -101 -209.5t-247 -86.5q-145 0 -246.5 77.5t-132.5 208.5zM299 1075l256 389l147 -106l-202 -283h-201z" />
<glyph unicode="&#x15c;" horiz-adv-x="1208" d="M82 410l215 82q-2 -97 43.5 -172.5t115 -112.5t148.5 -37q130 0 208.5 66t78.5 174q0 179 -236 225q-74 15 -163 43q-77 23 -140.5 59.5t-116.5 90t-82.5 129.5t-29.5 169q0 175 133 290.5t328 115.5q132 0 242 -54.5t174.5 -152.5t64.5 -219h-225q0 93 -74.5 159 t-181.5 66q-112 0 -179 -60.5t-67 -154.5q0 -173 235 -235q66 -17 164 -39q80 -19 144.5 -52.5t116 -85t80 -126.5t28.5 -168q0 -85 -34.5 -165t-97 -143t-159 -101t-211.5 -38q-136 0 -256.5 63.5t-192 167t-73.5 216.5zM297 1739l213 200h180l213 -200l-129 -131l-174 168 l-174 -168z" />
<glyph unicode="&#x15d;" horiz-adv-x="829" d="M41 266l184 72q8 -77 63.5 -127.5t131.5 -50.5q73 0 113 33.5t40 82.5q0 44 -30 69t-92 36q-42 7 -103 22q-128 32 -202 106.5t-74 186.5q0 88 51 155t127 99.5t160 32.5q134 0 233.5 -79.5t114.5 -207.5h-205q0 46 -41 76.5t-102 30.5q-62 0 -103 -30.5t-41 -76.5 q0 -87 123 -110l103 -21q127 -28 201.5 -100t74.5 -189q0 -123 -101 -209.5t-247 -86.5q-145 0 -246.5 77.5t-132.5 208.5zM129 1186l186 217h205l187 -217l-121 -111l-168 197l-168 -197z" />
<glyph unicode="&#x15e;" horiz-adv-x="1208" d="M82 410l215 82q-2 -97 43.5 -172.5t115 -112.5t148.5 -37q130 0 208.5 66t78.5 174q0 179 -236 225q-74 15 -163 43q-77 23 -140.5 59.5t-116.5 90t-82.5 129.5t-29.5 169q0 175 133 290.5t328 115.5q132 0 242 -54.5t174.5 -152.5t64.5 -219h-225q0 93 -74.5 159 t-181.5 66q-112 0 -179 -60.5t-67 -154.5q0 -173 235 -235q66 -17 164 -39q80 -19 144.5 -52.5t116 -85t80 -126.5t28.5 -168q0 -104 -48 -197.5t-145 -160.5t-225 -83v-47q54 -9 100 -57t46 -121q0 -96 -70 -155.5t-184 -59.5q-109 0 -195 70l84 141q6 -5 15.5 -13t40 -21 t59.5 -13q33 0 52 14t19 37q0 24 -19 37.5t-52 13.5h-47v172q-187 25 -319.5 154.5t-135.5 288.5z" />
<glyph unicode="&#x15f;" horiz-adv-x="829" d="M41 266l184 72q8 -77 63.5 -127.5t131.5 -50.5q73 0 113 33.5t40 82.5q0 44 -30 69t-92 36q-42 7 -103 22q-128 32 -202 106.5t-74 186.5q0 88 51 155t127 99.5t160 32.5q134 0 233.5 -79.5t114.5 -207.5h-205q0 46 -41 76.5t-102 30.5q-62 0 -103 -30.5t-41 -76.5 q0 -87 123 -110l103 -21q127 -28 201.5 -100t74.5 -189q0 -110 -83 -192.5t-208 -99.5v-31q54 -9 100 -57t46 -121q0 -96 -70 -155.5t-184 -59.5q-111 0 -195 69l84 142q6 -5 15.5 -13t40 -21t59.5 -13q33 0 52 14t19 37q0 24 -19 37.5t-52 13.5h-47v164q-110 22 -185 94.5 t-100 181.5z" />
<glyph unicode="&#x160;" horiz-adv-x="1208" d="M82 410l215 82q-2 -97 43.5 -172.5t115 -112.5t148.5 -37q130 0 208.5 66t78.5 174q0 179 -236 225q-74 15 -163 43q-77 23 -140.5 59.5t-116.5 90t-82.5 129.5t-29.5 169q0 175 133 290.5t328 115.5q132 0 242 -54.5t174.5 -152.5t64.5 -219h-225q0 93 -74.5 159 t-181.5 66q-112 0 -179 -60.5t-67 -154.5q0 -173 235 -235q66 -17 164 -39q80 -19 144.5 -52.5t116 -85t80 -126.5t28.5 -168q0 -85 -34.5 -165t-97 -143t-159 -101t-211.5 -38q-136 0 -256.5 63.5t-192 167t-73.5 216.5zM293 1808l129 131l174 -167l174 167l129 -131 l-213 -200h-180z" />
<glyph unicode="&#x161;" horiz-adv-x="829" d="M41 266l184 72q8 -77 63.5 -127.5t131.5 -50.5q73 0 113 33.5t40 82.5q0 44 -30 69t-92 36q-42 7 -103 22q-128 32 -202 106.5t-74 186.5q0 88 51 155t127 99.5t160 32.5q134 0 233.5 -79.5t114.5 -207.5h-205q0 46 -41 76.5t-102 30.5q-62 0 -103 -30.5t-41 -76.5 q0 -87 123 -110l103 -21q127 -28 201.5 -100t74.5 -189q0 -123 -101 -209.5t-247 -86.5q-145 0 -246.5 77.5t-132.5 208.5zM121 1292l121 111l168 -197l168 197l120 -111l-186 -217h-205z" />
<glyph unicode="&#x162;" horiz-adv-x="1085" d="M20 1290v205h1045v-205h-414v-1290h-30v-47q54 -9 99.5 -57t45.5 -121q0 -96 -70 -155.5t-184 -59.5q-111 0 -195 69l84 142q6 -5 15.5 -13t40 -21t59.5 -13q34 0 53 14t19 37q0 24 -19.5 37.5t-52.5 13.5h-47v174h-35v1290h-414z" />
<glyph unicode="&#x163;" d="M20 778v185h187v204l162 205h39v-409h206v-185h-206v-491q0 -46 29 -74.5t75 -28.5l123 21v-185l-113 -20v-47q54 -9 100 -57t46 -121q0 -96 -70 -155.5t-184 -59.5q-111 0 -195 69l84 142q6 -5 15.5 -13t40 -21t59.5 -13q33 0 52 14t19 37q0 24 -19 37.5t-52 13.5h-47 v197q-164 62 -164 264v491h-187z" />
<glyph unicode="&#x164;" horiz-adv-x="1085" d="M20 1290v205h1045v-205h-414v-1290h-217v1290h-414zM240 1808l129 131l174 -167l174 167l129 -131l-213 -200h-180z" />
<glyph unicode="&#x165;" horiz-adv-x="765" d="M20 778v185h187v204l162 205h39v-409h206v-185h-206v-491q0 -46 29 -74.5t75 -28.5l123 21v-185l-113 -20q-153 0 -234 74t-81 213v491h-187zM489 1180l119 376h191l-140 -432z" />
<glyph unicode="&#x166;" horiz-adv-x="1085" d="M20 1290v205h1045v-205h-414v-450h283v-205h-283v-635h-217v635h-278v205h278v450h-414z" />
<glyph unicode="&#x167;" d="M20 451v184h187v143h-187v185h187v204l162 205h39v-409h206v-185h-206v-143h206v-184h-206v-164q0 -46 29 -74.5t75 -28.5l123 21v-185l-113 -20q-153 0 -234 74t-81 213v164h-187z" />
<glyph unicode="&#x168;" horiz-adv-x="1341" d="M154 451q0 -218 129 -355t342 -137q89 0 191.5 35.5t146.5 87.5l10 10l10 -10l31 -82h164v1495h-215v-1055q0 -116 -89 -196t-219 -80q-134 0 -210 78t-76 198v1055h-215v-1044zM381 1843l170 45q-9 -80 45 -80q24 0 61 19.5t81.5 39t88.5 19.5q101 0 156 -68.5 t43 -189.5h-168q12 80 -43 80q-20 0 -58 -20t-88.5 -40t-99.5 -20q-93 0 -144 57t-44 158z" />
<glyph unicode="&#x169;" horiz-adv-x="1064" d="M102 369q0 -172 104.5 -280.5t285.5 -108.5q64 0 129.5 29t95.5 73l10 10l10 -10l21 -82h184v963h-205v-584q-5 -89 -70.5 -152t-154.5 -63q-199 0 -205 205v594h-205v-594zM242 1280l151 49q-2 -45 6 -64.5t37 -19.5q24 0 57 21.5t73.5 43t84.5 21.5q100 0 148.5 -63.5 t36.5 -182.5h-152q3 42 -5.5 61t-35.5 19q-20 0 -52.5 -22t-77 -44t-93.5 -22q-90 0 -137 55t-41 148z" />
<glyph unicode="&#x16a;" horiz-adv-x="1341" d="M154 451q0 -218 129 -355t342 -137q89 0 191.5 35.5t146.5 87.5l10 10l10 -10l31 -82h164v1495h-215v-1055q0 -116 -89 -196t-219 -80q-134 0 -210 78t-76 198v1055h-215v-1044zM393 1669v164h553v-164h-553z" />
<glyph unicode="&#x16b;" horiz-adv-x="1064" d="M102 369q0 -172 104.5 -280.5t285.5 -108.5q64 0 129.5 29t95.5 73l10 10l10 -10l21 -82h184v963h-205v-584q-5 -89 -70.5 -152t-154.5 -63q-199 0 -205 205v594h-205v-594zM246 1116v154h553v-154h-553z" />
<glyph unicode="&#x16c;" horiz-adv-x="1341" d="M154 451q0 -218 129 -355t342 -137q89 0 191.5 35.5t146.5 87.5l10 10l10 -10l31 -82h164v1495h-215v-1055q0 -116 -89 -196t-219 -80q-134 0 -210 78t-76 198v1055h-215v-1044zM397 1860v14h174v-2q0 -39 26 -71t77 -32t76.5 31.5t25.5 71.5v2h174v-14 q0 -97 -73.5 -174.5t-202.5 -77.5t-203 77.5t-74 174.5z" />
<glyph unicode="&#x16d;" horiz-adv-x="1064" d="M102 369q0 -172 104.5 -280.5t285.5 -108.5q64 0 129.5 29t95.5 73l10 10l10 -10l21 -82h184v963h-205v-584q-5 -89 -70.5 -152t-154.5 -63q-199 0 -205 205v594h-205v-594zM252 1317v12h166v-4q0 -42 29 -73t81 -31t81.5 31t29.5 73v4h166v-12q0 -98 -76 -172t-201 -74 q-124 0 -200 74t-76 172z" />
<glyph unicode="&#x16e;" horiz-adv-x="1341" d="M154 451v1044h215v-1055q0 -120 76 -198t210 -78q130 0 219 80t89 196v1055h215v-1495h-164l-31 82l-10 10l-10 -10q-44 -52 -146.5 -87.5t-191.5 -35.5q-213 0 -342 137t-129 355zM459 1765q0 97 66 160.5t161 63.5t161 -63.5t66 -160.5t-66 -160t-161 -63t-161 63 t-66 160zM598 1765q0 -38 25 -63t63 -25t63 25t25 63t-25 63t-63 25t-63 -25t-25 -63z" />
<glyph unicode="&#x16f;" horiz-adv-x="1064" d="M102 369v594h205v-594q6 -205 205 -205q89 0 154.5 63t70.5 152v584h205v-963h-184l-21 82l-10 10l-10 -10q-30 -44 -95.5 -73t-129.5 -29q-181 0 -285.5 108.5t-104.5 280.5zM299 1260q0 94 65.5 156.5t159.5 62.5t160 -62.5t66 -156.5t-66 -157t-160 -63q-93 0 -159 63 t-66 157zM432 1260q0 -40 26 -66.5t66 -26.5t66 26.5t26 66.5t-26 66t-66 26t-66 -26t-26 -66z" />
<glyph unicode="&#x170;" horiz-adv-x="1341" d="M154 451q0 -218 129 -355t342 -137q89 0 191.5 35.5t146.5 87.5l10 10l10 -10l31 -82h164v1495h-215v-1055q0 -116 -89 -196t-219 -80q-134 0 -210 78t-76 198v1055h-215v-1044zM410 1606l192 338l160 -97l-156 -241h-196zM700 1606l273 346l141 -117l-203 -229h-211z " />
<glyph unicode="&#x171;" horiz-adv-x="1064" d="M102 369q0 -172 104.5 -280.5t285.5 -108.5q64 0 129.5 29t95.5 73l10 10l10 -10l21 -82h184v963h-205v-584q-5 -89 -70.5 -152t-154.5 -63q-199 0 -205 205v594h-205v-594zM262 1055l178 370l166 -79l-153 -291h-191zM543 1055l237 366l144 -102l-183 -264h-198z" />
<glyph unicode="&#x172;" horiz-adv-x="1341" d="M154 451v1044h215v-1055q0 -120 76 -198t210 -78q130 0 219 80t89 196v1055h215v-1495l-58 -117q-10 -20 -10 -47q0 -34 28.5 -56t67.5 -22h45l-45 -168h-10q-126 0 -203.5 52.5t-77.5 138.5q0 40 19.5 88t79.5 131l-31 82l-10 10l-10 -10q-44 -52 -146.5 -87.5 t-191.5 -35.5q-213 0 -342 137t-129 355z" />
<glyph unicode="&#x173;" horiz-adv-x="1064" d="M102 369v594h205v-594q6 -205 205 -205q89 0 154.5 63t70.5 152v584h205v-963l-57 -117q-11 -22 -11 -47q0 -34 28.5 -56t68.5 -22h45l-45 -168h-10q-126 0 -203.5 52.5t-77.5 138.5q0 41 19 89t79 130h-20l-21 82l-10 10l-10 -10q-30 -44 -95.5 -73t-129.5 -29 q-181 0 -285.5 108.5t-104.5 280.5z" />
<glyph unicode="&#x174;" horiz-adv-x="1783" d="M41 1495h217l244 -1124l276 817h228l274 -815l244 1122h217l-328 -1495h-215l-307 866l-307 -866h-215zM588 1739l213 200h180l213 -200l-129 -131l-174 168l-174 -168z" />
<glyph unicode="&#x175;" horiz-adv-x="1351" d="M20 963h203l166 -687l184 543h205l185 -543l165 687h203l-266 -963h-195l-194 555l-195 -555h-194zM387 1186l186 217h205l187 -217l-121 -111l-168 197l-168 -197z" />
<glyph unicode="&#x176;" horiz-adv-x="1126" d="M20 1495h236l307 -534l305 534h238l-434 -758v-737h-217v737zM260 1739l213 200h180l213 -200l-129 -131l-174 168l-174 -168z" />
<glyph unicode="&#x177;" horiz-adv-x="880" d="M20 963h207l213 -578l215 578h205l-512 -1373h-205l201 537zM152 1186l186 217h205l186 -217l-121 -111l-168 197l-168 -197z" />
<glyph unicode="&#x178;" horiz-adv-x="1126" d="M20 1495l435 -758v-737h217v737l434 758h-238l-305 -534l-307 534h-236zM276 1632v226h224v-226h-224zM625 1632v226h225v-226h-225z" />
<glyph unicode="&#x179;" horiz-adv-x="1146" d="M61 0h1004v205h-764l784 1085v205h-983v-205h744l-785 -1085v-205zM440 1608l295 338l137 -129l-196 -209h-236z" />
<glyph unicode="&#x17a;" horiz-adv-x="942" d="M82 0h768v184h-539l549 594v185h-768v-185h533l-543 -594v-184zM371 1075l256 389l147 -106l-203 -283h-200z" />
<glyph unicode="&#x17b;" horiz-adv-x="1146" d="M61 0h1004v205h-764l784 1085v205h-983v-205h744l-785 -1085v-205zM485 1632v226h226v-226h-226z" />
<glyph unicode="&#x17c;" horiz-adv-x="942" d="M82 0h768v184h-539l549 594v185h-768v-185h533l-543 -594v-184zM403 1116v225h205v-225h-205z" />
<glyph unicode="&#x17d;" horiz-adv-x="1146" d="M61 0v205l785 1085h-744v205h983v-205l-784 -1085h764v-205h-1004zM297 1808l129 131l174 -167l174 167l129 -131l-213 -200h-180z" />
<glyph unicode="&#x17e;" horiz-adv-x="942" d="M82 0v184l543 594h-533v185h768v-185l-549 -594h539v-184h-768zM223 1292l121 111l168 -197l168 197l121 -111l-187 -217h-204z" />
<glyph unicode="&#x192;" horiz-adv-x="737" d="M20 -82l154 -20q45 0 68.5 27.5t23.5 74.5v778h-246v185h246v286q0 142 78.5 224.5t228.5 82.5l144 -20v-184l-154 20q-45 0 -68.5 -27.5t-23.5 -74.5v-307h246v-185h-246v-758q0 -142 -78.5 -224.5t-228.5 -82.5l-144 21v184z" />
<glyph unicode="&#x1fa;" horiz-adv-x="1331" d="M41 0h215l131 389h555l133 -389h215l-512 1495h-225zM440 1772q0 -94 66 -157t160 -63q93 0 159 63t66 157t-65.5 156.5t-159.5 62.5t-160 -62.5t-66 -156.5zM457 594l209 614l206 -614h-415zM573 1772q0 40 26.5 66t66.5 26t66 -26t26 -66t-26 -66.5t-66 -26.5 t-66.5 26.5t-26.5 66.5zM584 2044l207 315l147 -106l-154 -209h-200z" />
<glyph unicode="&#x1fb;" horiz-adv-x="1167" d="M61 481q0 -145 67.5 -260.5t179.5 -178t245 -62.5q76 0 148 28t118 74l10 10l11 -10l20 -82h184v963h-184l-20 -82l-11 -11l-10 11q-46 46 -118 74t-148 28q-99 0 -189 -37t-157 -102t-106.5 -159.5t-39.5 -203.5zM264 481q0 137 79 227.5t220 90.5q129 0 213 -92.5 t84 -225.5t-84 -225t-213 -92q-141 0 -220 90t-79 227zM348 1260q0 -94 66 -157t159 -63q94 0 160 63t66 157t-66 156.5t-160 62.5t-159.5 -62.5t-65.5 -156.5zM481 1260q0 40 26 66t66 26t66.5 -26t26.5 -66t-26.5 -66.5t-66.5 -26.5t-66 26.5t-26 66.5zM483 1532l256 389 l148 -106l-203 -283h-201z" />
<glyph unicode="&#x1fc;" horiz-adv-x="1638" d="M41 0h215l119 410h456l121 -410h584v205h-430l-137 450h547v205h-609l-129 430h758v205h-1044zM436 614l168 574l168 -574h-336zM850 1608l295 338l137 -129l-197 -209h-235z" />
<glyph unicode="&#x1fd;" horiz-adv-x="1742" d="M61 481q0 -220 134.5 -360.5t336.5 -140.5q144 0 246 102l10 10l11 -10l20 -82h185v92l20 -20q89 -92 236 -92q259 0 399 245l-170 82q-25 -65 -83 -104t-146 -39q-121 0 -187 72.5t-69 183.5v10h675l21 62q4 111 -31 205.5t-96 156t-139.5 95.5t-163.5 34 q-166 0 -246 -92l-20 -21v93h-185l-20 -82l-11 -11l-10 11q-102 102 -246 102q-202 0 -336.5 -141t-134.5 -361zM264 481q0 140 70 229t209 89q127 0 201.5 -91.5t74.5 -226.5t-74.5 -226t-201.5 -91q-139 0 -209 88.5t-70 228.5zM815 1075l256 389l148 -106l-203 -283h-201 zM1004 610q61 189 256 189q93 0 160 -55t67 -134h-483z" />
<glyph unicode="&#x1fe;" horiz-adv-x="1740" d="M0 0h266l121 123q214 -164 483 -164q161 0 307 62.5t251.5 168t168 251.5t62.5 307q0 278 -172 491l254 256h-266l-123 -123q-214 164 -482 164q-214 0 -395.5 -105.5t-287 -287t-105.5 -395.5q0 -137 44.5 -263.5t125.5 -228.5zM297 745q0 126 42.5 234.5t117 186 t181.5 121.5t232 44q199 0 340 -104l-813 -826q-100 149 -100 344zM528 266l813 826q101 -154 101 -347q0 -253 -160 -417t-412 -164q-197 0 -342 102zM758 1608l295 338l137 -129l-197 -209h-235z" />
<glyph unicode="&#x1ff;" horiz-adv-x="1126" d="M0 0h225l60 63q128 -83 278 -83q96 0 186.5 37t160.5 101.5t112.5 159.5t42.5 203q0 172 -102 305l163 177h-225l-61 -66q-128 86 -277 86q-129 0 -243 -62.5t-186.5 -179t-72.5 -260.5q0 -173 103 -307zM262 481q0 137 80 229.5t221 92.5q88 0 152 -39l-418 -447 q-35 75 -35 164zM410 197l417 446q37 -70 37 -162q0 -137 -80 -229t-221 -92q-84 0 -153 37zM461 1075l256 389l147 -106l-202 -283h-201z" />
<glyph unicode="&#x218;" horiz-adv-x="1208" d="M82 410l215 82q-2 -97 43.5 -172.5t115 -112.5t148.5 -37q130 0 208.5 66t78.5 174q0 179 -236 225q-74 15 -163 43q-77 23 -140.5 59.5t-116.5 90t-82.5 129.5t-29.5 169q0 175 133 290.5t328 115.5q132 0 242 -54.5t174.5 -152.5t64.5 -219h-225q0 93 -74.5 159 t-181.5 66q-112 0 -179 -60.5t-67 -154.5q0 -173 235 -235q66 -17 164 -39q80 -19 144.5 -52.5t116 -85t80 -126.5t28.5 -168q0 -85 -34.5 -165t-97 -143t-159 -101t-211.5 -38q-136 0 -256.5 63.5t-192 167t-73.5 216.5zM422 -414l108 330h197l-129 -387z" />
<glyph unicode="&#x219;" horiz-adv-x="829" d="M41 266l184 72q8 -77 63.5 -127.5t131.5 -50.5q73 0 113 33.5t40 82.5q0 44 -30 69t-92 36q-42 7 -103 22q-128 32 -202 106.5t-74 186.5q0 88 51 155t127 99.5t160 32.5q134 0 233.5 -79.5t114.5 -207.5h-205q0 46 -41 76.5t-102 30.5q-62 0 -103 -30.5t-41 -76.5 q0 -87 123 -110l103 -21q127 -28 201.5 -100t74.5 -189q0 -123 -101 -209.5t-247 -86.5q-145 0 -246.5 77.5t-132.5 208.5zM236 -414l108 330h197l-129 -387z" />
<glyph unicode="&#x21a;" horiz-adv-x="1085" d="M20 1290v205h1045v-205h-414v-1290h-217v1290h-414zM342 -414l109 330h196l-129 -387z" />
<glyph unicode="&#x21b;" d="M20 778v185h187v204l162 205h39v-409h206v-185h-206v-491q0 -46 29 -74.5t75 -28.5l123 21v-185l-113 -20q-153 0 -234 74t-81 213v491h-187zM240 -414l108 330h197l-129 -387z" />
<glyph unicode="&#x2c6;" horiz-adv-x="675" d="M49 1186l187 217h204l187 -217l-121 -111l-168 197l-168 -197z" />
<glyph unicode="&#x2c7;" horiz-adv-x="675" d="M49 1292l121 111l168 -197l168 197l121 -111l-187 -217h-204z" />
<glyph unicode="&#x2d8;" horiz-adv-x="675" d="M61 1317v12h166v-4q0 -42 29.5 -73t81.5 -31t81.5 31t29.5 73v4h165v-12q0 -98 -76 -172t-200 -74q-125 0 -201 74t-76 172z" />
<glyph unicode="&#x2d9;" horiz-adv-x="675" d="M236 1116v225h204v-225h-204z" />
<glyph unicode="&#x2da;" horiz-adv-x="675" d="M113 1260q0 94 65.5 156.5t159.5 62.5t159.5 -62.5t65.5 -156.5t-66 -157t-159 -63t-159 63t-66 157zM246 1260q0 -40 26 -66.5t66 -26.5t66 26.5t26 66.5t-26 66t-66 26t-66 -26t-26 -66z" />
<glyph unicode="&#x2db;" horiz-adv-x="675" d="M186 -219q0 40 19.5 88t79.5 131h164l-58 -117q-10 -20 -10 -47q0 -34 28.5 -56t67.5 -22h45l-45 -168h-10q-126 0 -203.5 52.5t-77.5 138.5z" />
<glyph unicode="&#x2dc;" d="M49 1280l152 49q-2 -45 6 -64.5t37 -19.5q24 0 57 21.5t73.5 43t84.5 21.5q100 0 148 -63.5t36 -182.5h-151q3 42 -5.5 61t-35.5 19q-20 0 -52.5 -22t-77.5 -44t-94 -22q-90 0 -137 55t-41 148z" />
<glyph unicode="&#x2dd;" horiz-adv-x="675" d="M41 1055l178 370l166 -79l-154 -291h-190zM322 1055l237 366l143 -102l-182 -264h-198z" />
<glyph unicode="&#x394;" horiz-adv-x="921" d="M20 0v143l369 1352h143l369 -1352v-143h-881zM164 143h594l-297 1133z" />
<glyph unicode="&#x3a9;" horiz-adv-x="1126" d="M61 819q-3 61 0 123q12 250 152 401.5t350 151.5q212 0 352 -151t152 -402q3 -62 0 -123q-9 -200 -97.5 -345.5t-234.5 -199.5v-135h248v-139h-389v389q131 0 225.5 112.5t104.5 317.5q3 61 0 123q-9 197 -106 305.5t-255 108.5q-156 0 -252.5 -108.5t-105.5 -305.5 q-3 -62 0 -123q10 -206 103 -318t224 -112v-389h-389v139h248v135q-145 54 -233 199.5t-97 345.5z" />
<glyph unicode="&#x3bc;" horiz-adv-x="1064" d="M102 -434v1397h205v-574q0 -225 205 -225q92 0 158.5 66.5t66.5 158.5v574h205v-963h-184l-21 82l-10 10l-10 -10q-30 -44 -95.5 -73t-129.5 -29q-109 0 -187 40v-454h-203z" />
<glyph unicode="&#x3c0;" horiz-adv-x="921" d="M41 819l20 144h840v-144h-82l-82 -604q-4 -32 13.5 -52t48.5 -20h20v-143h-20q-100 0 -159.5 57.5t-45.5 167.5l82 594h-371v-819h-141v819h-123z" />
<glyph unicode="&#x401;" horiz-adv-x="1167" d="M164 0h901v205h-686v450h665v205h-665v430h686v205h-901v-1495zM336 1632v226h223v-226h-223zM684 1632v226h225v-226h-225z" />
<glyph unicode="&#x402;" horiz-adv-x="1249" d="M20 1290v205h1045v-205h-414v-409l11 -13l12 13q38 45 101.5 73.5t125.5 28.5q148 0 227.5 -85.5t79.5 -252.5v-358q0 -141 -78 -219t-229 -78l-102 20v205l112 -20q93 0 93 92v348q0 81 -39.5 122.5t-104.5 41.5q-87 0 -145 -60t-64 -149v-590h-217v1290h-414z" />
<glyph unicode="&#x403;" horiz-adv-x="1126" d="M164 0h215v1290h727v205h-942v-1495zM518 1608l295 338l137 -129l-196 -209h-236z" />
<glyph unicode="&#x404;" horiz-adv-x="1515" d="M82 745q0 218 99.5 399t276 286.5t392.5 105.5q171 0 329.5 -75.5t264.5 -211.5l-144 -143q-162 227 -440 227q-225 0 -372.5 -131.5t-180.5 -341.5h860v-205h-864q27 -221 173 -356t384 -135q144 0 258.5 58t192.5 167l143 -143q-106 -136 -264.5 -211.5t-329.5 -75.5 q-221 0 -400 105t-278.5 284.5t-99.5 396.5z" />
<glyph unicode="&#x405;" horiz-adv-x="1208" d="M82 410l215 82q-2 -97 43.5 -172.5t115 -112.5t148.5 -37q130 0 208.5 66t78.5 174q0 179 -236 225q-74 15 -163 43q-77 23 -140.5 59.5t-116.5 90t-82.5 129.5t-29.5 169q0 175 133 290.5t328 115.5q132 0 242 -54.5t174.5 -152.5t64.5 -219h-225q0 93 -74.5 159 t-181.5 66q-112 0 -179 -60.5t-67 -154.5q0 -173 235 -235q66 -17 164 -39q80 -19 144.5 -52.5t116 -85t80 -126.5t28.5 -168q0 -85 -34.5 -165t-97 -143t-159 -101t-211.5 -38q-136 0 -256.5 63.5t-192 167t-73.5 216.5z" />
<glyph unicode="&#x406;" horiz-adv-x="593" d="M154 0v205h34v1085h-34v205h286v-205h-34v-1085h34v-205h-286z" />
<glyph unicode="&#x407;" horiz-adv-x="593" d="M10 1632v226h223v-226h-223zM154 0h286v205h-34v1085h34v205h-286v-205h34v-1085h-34v-205zM358 1632v226h226v-226h-226z" />
<glyph unicode="&#x408;" horiz-adv-x="573" d="M61 0h41q41 0 67 22t26 60v1413h215v-1393q0 -138 -85 -222.5t-223 -84.5l-41 21v184z" />
<glyph unicode="&#x409;" horiz-adv-x="1679" d="M20 0v184h41q77 0 120.5 44t43.5 120v1147h748v-635h205q195 0 327.5 -120.5t132.5 -309.5t-132.5 -309.5t-327.5 -120.5h-420v1290h-318v-940q0 -100 -42.5 -182.5t-130 -135t-206.5 -52.5zM973 205h215q99 0 167 58t68 167t-68 167t-167 58h-215v-450z" />
<glyph unicode="&#x40a;" horiz-adv-x="1679" d="M129 0v205h35v1085h-35v205h287v-205h-37v-430h379v635h215v-635h205q195 0 327.5 -120.5t132.5 -309.5t-132.5 -309.5t-327.5 -120.5h-420v655h-379v-450h37v-205h-287zM973 205h215q99 0 167 58t68 167t-68 167t-167 58h-215v-450z" />
<glyph unicode="&#x40b;" horiz-adv-x="1310" d="M20 1290v205h1045v-205h-414v-409l11 -13l12 13q38 45 101.5 73.5t125.5 28.5q148 0 227.5 -85.5t79.5 -252.5v-645h-204v635q0 81 -39.5 122.5t-104.5 41.5q-87 0 -145 -60t-64 -149v-590h-217v1290h-414z" />
<glyph unicode="&#x40c;" horiz-adv-x="1208" d="M164 0h215v635l555 -635h274l-665 760l645 735h-256l-553 -614v614h-215v-1495zM518 1608l295 338l137 -129l-196 -209h-236z" />
<glyph unicode="&#x40e;" horiz-adv-x="1146" d="M41 1495h235l304 -696l311 696h235l-675 -1495h-230l244 545zM319 1860v14h175v-2q0 -40 25.5 -71.5t76.5 -31.5t76.5 31.5t25.5 71.5v2h174v-14q0 -97 -73.5 -174.5t-202.5 -77.5t-203 77.5t-74 174.5z" />
<glyph unicode="&#x40f;" horiz-adv-x="1372" d="M164 0v1495h215v-1290h614v1290h215v-1495h-415v-307h-215v307h-414z" />
<glyph unicode="&#x410;" horiz-adv-x="1331" d="M41 0l512 1495h225l512 -1495h-215l-133 389h-555l-131 -389h-215zM457 594h415l-206 614z" />
<glyph unicode="&#x411;" horiz-adv-x="1269" d="M164 0v1495h942v-205h-727v-430h348q201 0 331 -119.5t130 -310.5t-130 -310.5t-331 -119.5h-563zM379 205h358q100 0 168 58t68 167t-68 167t-168 58h-358v-450z" />
<glyph unicode="&#x412;" horiz-adv-x="1290" d="M164 0v1495h532q202 0 336.5 -114t134.5 -296q0 -101 -48.5 -184t-133.5 -135q95 -49 149 -137.5t54 -208.5q0 -189 -134 -304.5t-337 -115.5h-553zM379 205h348q98 0 172 61.5t74 163.5q0 114 -71.5 169.5t-174.5 55.5h-348v-450zM379 860h328q102 0 173.5 53.5 t71.5 161.5t-71.5 161.5t-173.5 53.5h-328v-430z" />
<glyph unicode="&#x413;" horiz-adv-x="1126" d="M164 0v1495h942v-205h-727v-1290h-215z" />
<glyph unicode="&#x414;" horiz-adv-x="1433" d="M20 205h99q79 5 123.5 51.5t44.5 132.5v1106h942v-1290h164v-512h-215v307h-942v-307h-216v512zM412 205h602v1085h-522v-880q0 -118 -80 -205z" />
<glyph unicode="&#x415;" horiz-adv-x="1167" d="M164 0v1495h901v-205h-686v-430h665v-205h-665v-450h686v-205h-901z" />
<glyph unicode="&#x416;" horiz-adv-x="1863" d="M20 0l646 758l-625 737h256l528 -614v614h215v-614l527 614h256l-625 -737l645 -758h-274l-529 635v-635h-215v635l-530 -635h-275z" />
<glyph unicode="&#x417;" horiz-adv-x="1228" d="M61 369l215 61q7 -121 96 -193.5t222 -72.5t225 66.5t92 189.5q0 63 -24.5 110t-67 73.5t-94 39t-111.5 12.5h-247v205h227q111 0 188.5 65t77.5 171q0 59 -24 105.5t-64.5 74t-88 41.5t-99.5 14q-70 0 -131 -20.5t-103.5 -68.5t-42.5 -116h-215q0 111 65 205 t178.5 149.5t248.5 55.5q128 0 240 -53t181.5 -153t69.5 -224q0 -104 -50.5 -189.5t-135.5 -144.5q110 -50 173.5 -141t63.5 -221q0 -198 -150.5 -324.5t-381.5 -126.5q-208 0 -355 113t-178 297z" />
<glyph unicode="&#x418;" horiz-adv-x="1413" d="M164 0v1495h213v-1106l637 1106h235v-1495h-213v1126l-637 -1126h-235z" />
<glyph unicode="&#x419;" horiz-adv-x="1413" d="M164 0v1495h213v-1106l637 1106h235v-1495h-213v1126l-637 -1126h-235zM444 1860v14h174v-2q0 -39 26 -71t77 -32t76.5 31.5t25.5 71.5v2h174v-14q0 -97 -73.5 -174.5t-202.5 -77.5t-203 77.5t-74 174.5z" />
<glyph unicode="&#x41a;" horiz-adv-x="1208" d="M164 0v1495h215v-614l553 614h256l-645 -735l665 -760h-274l-555 635v-635h-215z" />
<glyph unicode="&#x41b;" horiz-adv-x="1372" d="M20 0v184h41q77 0 120.5 44t43.5 120v1147h963v-1495h-215v1290h-533v-940q0 -100 -42.5 -182.5t-130 -135t-206.5 -52.5z" />
<glyph unicode="&#x41c;" horiz-adv-x="1843" d="M164 0v1495h307l451 -954l450 954h307v-1495h-213v1206l-422 -878h-245l-422 878v-1206h-213z" />
<glyph unicode="&#x41d;" horiz-adv-x="1331" d="M164 0v1495h215v-635h573v635h215v-1495h-215v655h-573v-655h-215z" />
<glyph unicode="&#x41e;" horiz-adv-x="1740" d="M82 748q0 214 105.5 395.5t287 287t395.5 105.5q161 0 307 -62.5t251.5 -167.5t168 -251t62.5 -307t-62.5 -307t-168 -251.5t-251.5 -168t-307 -62.5t-307 62.5t-251 168t-167.5 251.5t-62.5 307zM297 745q0 -253 160.5 -417t412.5 -164t412 164t160 417q0 256 -160 421 t-412 165q-125 0 -232 -44t-181.5 -121.5t-117 -186t-42.5 -234.5z" />
<glyph unicode="&#x41f;" horiz-adv-x="1331" d="M164 0v1495h1003v-1495h-215v1290h-573v-1290h-215z" />
<glyph unicode="&#x420;" horiz-adv-x="1208" d="M164 0v1495h543q201 0 330.5 -119.5t129.5 -310.5t-129.5 -310.5t-330.5 -119.5h-328v-635h-215zM379 840h338q99 0 167 58t68 167t-68 167t-167 58h-338v-450z" />
<glyph unicode="&#x421;" horiz-adv-x="1515" d="M82 745q0 218 99.5 399t276 286.5t392.5 105.5q171 0 329.5 -75.5t264.5 -211.5l-144 -143q-162 227 -440 227q-128 0 -234 -45t-177.5 -123.5t-110.5 -186t-39 -230.5q0 -166 67 -298t198 -210t306 -78q279 0 441 227l143 -143q-106 -136 -264.5 -211.5t-329.5 -75.5 q-221 0 -400 105t-278.5 284.5t-99.5 396.5z" />
<glyph unicode="&#x422;" horiz-adv-x="1085" d="M20 1290v205h1045v-205h-414v-1290h-217v1290h-414z" />
<glyph unicode="&#x423;" horiz-adv-x="1126" d="M41 1495h235l304 -696l311 696h235l-675 -1495h-230l244 545z" />
<glyph unicode="&#x424;" horiz-adv-x="1658" d="M41 768q0 217 154.5 359.5t398.5 142.5h129v225h213v-225h129q244 0 398.5 -142.5t154.5 -359.5t-154.5 -359.5t-398.5 -142.5h-129v-266h-213v266h-129q-244 0 -398.5 142.5t-154.5 359.5zM256 768q0 -127 89.5 -214t238.5 -87h139v602h-139q-149 0 -238.5 -87 t-89.5 -214zM936 467h139q149 0 238.5 87t89.5 214t-89.5 214t-238.5 87h-139v-602z" />
<glyph unicode="&#x425;" horiz-adv-x="1187" d="M20 0l455 764l-434 731h235l316 -532l317 532h238l-436 -731l456 -764h-237l-336 565l-336 -565h-238z" />
<glyph unicode="&#x426;" horiz-adv-x="1413" d="M164 0v1495h215v-1290h614v1290h215v-1290h164v-512h-215v307h-993z" />
<glyph unicode="&#x427;" horiz-adv-x="1290" d="M143 1044v451h215v-461q0 -124 62.5 -200t193.5 -76q129 0 213 79.5t84 196.5v461h215v-1495h-215v676l-10 10l-10 -10q-47 -55 -127 -89t-170 -34q-211 0 -331 135.5t-120 355.5z" />
<glyph unicode="&#x428;" horiz-adv-x="2045" d="M164 0v1495h215v-1290h536v1290h215v-1290h539v1290h215v-1495h-1720z" />
<glyph unicode="&#x429;" horiz-adv-x="2088" d="M164 0v1495h215v-1290h536v1290h215v-1290h539v1290h215v-1290h164v-512h-215v307h-1669z" />
<glyph unicode="&#x42a;" horiz-adv-x="1413" d="M20 1290v205h502v-635h369q201 0 331 -119.5t130 -310.5t-130 -310.5t-331 -119.5h-584v1290h-287zM522 205h379q100 0 168 58t68 167t-68 167t-168 58h-379v-450z" />
<glyph unicode="&#x42b;" horiz-adv-x="1765" d="M164 0v1495h215v-635h369q201 0 330.5 -119.5t129.5 -310.5t-129.5 -310.5t-330.5 -119.5h-584zM379 205h379q99 0 167 58t68 167t-68 167t-167 58h-379v-450zM1346 0v205h34v1085h-34v205h286v-205h-35v-1085h35v-205h-286z" />
<glyph unicode="&#x42c;" horiz-adv-x="1269" d="M164 0v1495h215v-635h369q201 0 330.5 -119.5t129.5 -310.5t-129.5 -310.5t-330.5 -119.5h-584zM379 205h379q99 0 167 58t68 167t-68 167t-167 58h-379v-450z" />
<glyph unicode="&#x42d;" horiz-adv-x="1515" d="M61 246l144 143q160 -225 450 -225q237 0 382.5 135t172.5 356h-862v205h858q-33 210 -179.5 340.5t-371.5 130.5q-280 0 -440 -225l-143 143q106 136 264.5 211.5t329.5 75.5q216 0 392.5 -105.5t276 -286.5t99.5 -399q0 -162 -59 -307t-161 -250.5t-247.5 -167 t-311.5 -61.5q-171 0 -329.5 75.5t-264.5 211.5z" />
<glyph unicode="&#x42e;" horiz-adv-x="2119" d="M129 0v205h35v1085h-35v205h287v-205h-37v-430h209q17 143 79 268t155.5 215t219.5 141.5t267 51.5q206 0 373.5 -105t261.5 -285t94 -398t-94 -398.5t-261.5 -285.5t-373.5 -105q-144 0 -272 53.5t-221.5 146.5t-154 221t-75.5 275h-207v-450h37v-205h-287zM797 745 q0 -159 61 -290t179 -211t272 -80t272 80t179 211t61 290q0 161 -61 293t-179 212.5t-272 80.5t-272 -80.5t-179 -212.5t-61 -293z" />
<glyph unicode="&#x42f;" horiz-adv-x="1249" d="M61 0v41l506 614q-124 0 -231.5 50.5t-175.5 148t-68 221.5q0 129 64.5 226t168 145.5t228.5 48.5h532v-1495h-215v655h-41l-524 -655h-244zM307 1075q0 -96 70 -155.5t166 -59.5h327v430h-327q-96 0 -166 -59.5t-70 -155.5z" />
<glyph unicode="&#x430;" horiz-adv-x="1167" d="M61 481q0 109 39.5 203.5t106.5 159.5t157 102t189 37q76 0 148 -28t118 -74l10 -11l11 11l20 82h184v-963h-184l-20 82l-11 10l-10 -10q-46 -46 -118 -74t-148 -28q-133 0 -245 62.5t-179.5 178t-67.5 260.5zM264 481q0 -137 79 -227t220 -90q129 0 213 92t84 225 t-84 225.5t-213 92.5q-141 0 -220 -90.5t-79 -227.5z" />
<glyph unicode="&#x431;" horiz-adv-x="1146" d="M90 471q-14 173 1.5 307.5t51.5 224t98.5 156.5t130 105.5t160.5 70.5q122 42 267 99q51 21 76.5 44.5t25.5 59.5v18h164l20 -20q7 -56 -5.5 -99.5t-45 -76t-71.5 -56t-97 -47.5q-121 -51 -276 -98q-154 -45 -231.5 -129.5t-71.5 -179.5l10 -10l10 10q44 54 119.5 93.5 t167.5 39.5q133 0 244.5 -62.5t179 -178.5t67.5 -261q0 -108 -42.5 -203t-112 -159.5t-160 -101.5t-186.5 -37q-199 0 -338 138t-156 353zM287 481q0 -136 86.5 -226.5t210.5 -90.5q135 0 217 91.5t82 225.5t-82.5 226t-216.5 92t-215.5 -91.5t-81.5 -226.5z" />
<glyph unicode="&#x432;" horiz-adv-x="983" d="M123 0v963h409q165 0 257 -75.5t92 -201.5q0 -57 -30 -108t-85 -86q65 -35 100 -88.5t35 -116.5q0 -132 -95.5 -209.5t-262.5 -77.5h-420zM324 176h239q60 0 96.5 32t36.5 79q0 58 -37 85t-96 27h-239v-223zM324 573h219q58 0 95.5 26t37.5 77q0 53 -35.5 81.5 t-97.5 28.5h-219v-213z" />
<glyph unicode="&#x433;" horiz-adv-x="839" d="M123 0v963h696v-185h-491v-778h-205z" />
<glyph unicode="&#x434;" horiz-adv-x="1126" d="M20 184h64q56 3 88.5 41t32.5 103v635h758v-779h122v-430h-204v246h-656v-246h-205v430zM336 184h422v594h-348v-430q0 -103 -74 -164z" />
<glyph unicode="&#x435;" horiz-adv-x="1034" d="M61 481q0 220 134.5 361t336.5 141q123 0 225.5 -60t164 -173t61.5 -258l-20 -62h-697q0 -112 75.5 -189t201.5 -77q89 0 151 39.5t86 103.5l172 -82q-65 -113 -172 -179t-248 -66q-128 0 -235 62.5t-171.5 178t-64.5 260.5zM276 610h492q-8 80 -76 134.5t-160 54.5 q-102 0 -166.5 -52t-89.5 -137z" />
<glyph unicode="&#x436;" horiz-adv-x="1515" d="M31 0l450 494l-440 469h266l348 -390v390h205v-390l348 390h267l-441 -469l451 -494h-256l-369 410v-410h-205v410l-368 -410h-256z" />
<glyph unicode="&#x437;" horiz-adv-x="862" d="M41 246l186 61q8 -60 58.5 -102.5t136.5 -42.5q93 0 138.5 37t45.5 88q0 53 -49 82.5t-135 29.5h-133v181h143q74 0 114 29.5t40 76.5q0 49 -42 82t-122 33t-128 -32t-48 -73h-193q0 110 109.5 198.5t259.5 88.5q154 0 256 -82t102 -205q0 -62 -30.5 -116t-87.5 -91 q65 -35 102 -89.5t37 -123.5q0 -123 -101.5 -209.5t-277.5 -86.5q-146 0 -246.5 76t-134.5 190z" />
<glyph unicode="&#x438;" horiz-adv-x="1064" d="M123 0v963h201v-656l383 656h235v-963h-201v655l-383 -655h-235z" />
<glyph unicode="&#x439;" horiz-adv-x="1064" d="M123 0h235l383 655v-655h201v963h-235l-383 -656v656h-201v-963zM272 1317v12h166v-4q0 -42 29.5 -73t81.5 -31t81 31t29 73v4h166v-12q0 -98 -75.5 -172t-200.5 -74t-201 74t-76 172z" />
<glyph unicode="&#x43a;" horiz-adv-x="983" d="M123 0v963h205v-390l389 390h266l-463 -463l484 -500h-267l-409 410v-410h-205z" />
<glyph unicode="&#x43b;" horiz-adv-x="1044" d="M20 -20v184h41q46 0 74.5 28t28.5 74v697h758v-963h-205v778h-348v-502q0 -152 -85 -234.5t-233 -82.5z" />
<glyph unicode="&#x43c;" horiz-adv-x="1249" d="M123 0v963h235l267 -627l266 627h235v-963h-184v635l-225 -533h-185l-225 533v-635h-184z" />
<glyph unicode="&#x43d;" horiz-adv-x="1064" d="M123 0v963h205v-369h409v369h205v-963h-205v410h-409v-410h-205z" />
<glyph unicode="&#x43e;" horiz-adv-x="1126" d="M61 481q0 144 70 260.5t184.5 179t247.5 62.5t247.5 -62.5t184.5 -179t70 -260.5t-70 -260t-184.5 -178.5t-247.5 -62.5t-247.5 62.5t-184.5 178.5t-70 260zM266 481q0 -137 78 -227t219 -90t219 90t78 227t-78 227.5t-219 90.5t-219 -90.5t-78 -227.5z" />
<glyph unicode="&#x43f;" horiz-adv-x="1064" d="M123 0v963h819v-963h-205v778h-409v-778h-205z" />
<glyph unicode="&#x440;" horiz-adv-x="1167" d="M123 -434v1397h184l19 -82l12 -11l10 11q46 46 118 74t148 28q99 0 189 -37t157 -102t106.5 -159.5t39.5 -203.5q0 -145 -67.5 -260.5t-179.5 -178t-245 -62.5q-75 0 -147.5 28t-118.5 74l-10 10l-12 -10v-516h-203zM307 481q0 -133 84 -225t213 -92q141 0 219 90t78 227 t-78 227.5t-219 90.5q-129 0 -213 -92.5t-84 -225.5z" />
<glyph unicode="&#x441;" horiz-adv-x="1024" d="M61 481q0 144 69.5 260.5t181.5 179t241 62.5q142 0 254 -67.5t174 -178.5l-170 -102q-27 67 -94 115.5t-154 48.5q-141 0 -221 -91t-80 -227t80 -226.5t221 -90.5q87 0 155 48.5t95 115.5l170 -103q-62 -111 -175 -178t-255 -67q-129 0 -241 62.5t-181.5 178.5 t-69.5 260z" />
<glyph unicode="&#x442;" horiz-adv-x="901" d="M41 778v185h819v-185h-307v-778h-205v778h-307z" />
<glyph unicode="&#x443;" horiz-adv-x="880" d="M20 963h207l213 -578l215 578h205l-512 -1373h-205l201 537z" />
<glyph unicode="&#x444;" horiz-adv-x="1433" d="M82 481q0 100 37.5 187.5t105 153t168.5 103.5t221 38v593h205v-593q240 0 386.5 -138.5t146.5 -343.5t-146.5 -343t-386.5 -138v-434h-205v434q-240 0 -386 138t-146 343zM287 481q0 -136 80.5 -216.5t236.5 -80.5h10v594h-10q-156 0 -236.5 -80.5t-80.5 -216.5z M819 184h10q156 0 237 80.5t81 216.5t-81 216.5t-237 80.5h-10v-594z" />
<glyph unicode="&#x445;" horiz-adv-x="880" d="M0 0l328 496l-308 467h226l194 -295l195 295h225l-307 -467l328 -496h-226l-215 326l-215 -326h-225z" />
<glyph unicode="&#x446;" horiz-adv-x="1085" d="M123 0v963h205v-779h409v779h205v-779h123v-430h-205v246h-737z" />
<glyph unicode="&#x447;" horiz-adv-x="983" d="M61 655v308h205v-287q0 -107 51.5 -166t143.5 -59q90 0 151 57.5t64 146.5v308h205v-963h-205v369l-10 10l-11 -10q-39 -47 -98.5 -75t-126.5 -28q-173 0 -271 108t-98 281z" />
<glyph unicode="&#x448;" horiz-adv-x="1515" d="M123 0v963h203v-779h331v779h201v-779h332v779h203v-963h-1270z" />
<glyph unicode="&#x449;" horiz-adv-x="1536" d="M123 0v963h205v-779h327v779h205v-779h328v779h205v-779h123v-430h-205v246h-1188z" />
<glyph unicode="&#x44a;" horiz-adv-x="1044" d="M41 778v185h430v-287h102q181 0 285.5 -94t104.5 -244t-104.5 -244t-285.5 -94h-307v778h-225zM471 182h113q83 0 129.5 42.5t46.5 113.5t-46.5 113.5t-129.5 42.5h-113v-312z" />
<glyph unicode="&#x44b;" horiz-adv-x="1269" d="M123 0v963h205v-287h143q181 0 285 -94t104 -244t-104 -244t-285 -94h-348zM328 184h153q83 0 128.5 42t45.5 112t-45.5 112t-128.5 42h-153v-308zM942 0v963h205v-963h-205z" />
<glyph unicode="&#x44c;" horiz-adv-x="921" d="M143 0v963h205v-287h103q181 0 285 -94t104 -244t-104 -244t-285 -94h-308zM348 182h113q83 0 129.5 42.5t46.5 113.5t-46.5 113.5t-129.5 42.5h-113v-312z" />
<glyph unicode="&#x44d;" horiz-adv-x="1024" d="M41 225l170 103q27 -67 95 -115.5t155 -48.5q119 0 195 61.5t98 167.5h-426v180h426q-24 104 -100 165t-193 61q-87 0 -154 -48.5t-94 -115.5l-170 102q62 111 174 178.5t254 67.5q129 0 241 -62.5t181.5 -179t69.5 -260.5t-69.5 -260t-181.5 -178.5t-241 -62.5 q-142 0 -255 67t-175 178z" />
<glyph unicode="&#x44e;" horiz-adv-x="1454" d="M123 0v963h205v-390h129q31 183 163 296.5t312 113.5q203 0 342 -141.5t139 -360.5t-139 -360t-342 -141q-180 0 -312 113t-163 296h-129v-389h-205zM655 481q0 -141 74.5 -229t202.5 -88t202 88t74 229t-74 229.5t-202 88.5t-202.5 -88.5t-74.5 -229.5z" />
<glyph unicode="&#x44f;" horiz-adv-x="983" d="M82 0v20l319 373q-71 6 -131 32t-98 64.5t-59 85t-21 93.5q0 135 88 215t260 80h400v-963h-189v393h-37l-317 -393h-215zM287 676q0 -55 40.5 -89t106.5 -34h221v246h-231q-65 0 -101 -34t-36 -89z" />
<glyph unicode="&#x451;" horiz-adv-x="1034" d="M61 481q0 220 134.5 361t336.5 141q123 0 225.5 -60t164 -173t61.5 -258l-20 -62h-697q0 -112 75.5 -189t201.5 -77q89 0 151 39.5t86 103.5l172 -82q-65 -113 -172 -179t-248 -66q-128 0 -235 62.5t-171.5 178t-64.5 260.5zM240 1137v225h202v-225h-202zM276 610h492 q-8 80 -76 134.5t-160 54.5q-102 0 -166.5 -52t-89.5 -137zM588 1137v225h205v-225h-205z" />
<glyph unicode="&#x452;" horiz-adv-x="1064" d="M20 1167v185h103v204h205v-204h225v-185h-225v-286l10 -11l10 11q30 44 95.5 73t129.5 29q181 0 285.5 -108.5t104.5 -280.5v-721q0 -142 -79 -224.5t-229 -82.5l-102 20v185l113 -21q45 0 68.5 28t23.5 75v720q0 226 -205 226q-90 0 -156 -63.5t-69 -153.5v-582h-205 v1167h-103z" />
<glyph unicode="&#x453;" horiz-adv-x="839" d="M123 0h205v778h491v185h-696v-963zM340 1075l256 389l147 -106l-202 -283h-201z" />
<glyph unicode="&#x454;" horiz-adv-x="1024" d="M61 481q0 144 69.5 260.5t181.5 179t241 62.5q142 0 254 -67.5t174 -178.5l-170 -102q-27 67 -94 115.5t-154 48.5q-117 0 -193 -61t-100 -165h426v-180h-428q24 -106 100 -167.5t195 -61.5q87 0 155 48.5t95 115.5l170 -103q-62 -111 -175 -178t-255 -67 q-129 0 -241 62.5t-181.5 178.5t-69.5 260z" />
<glyph unicode="&#x455;" horiz-adv-x="829" d="M41 266l184 72q8 -77 63.5 -127.5t131.5 -50.5q73 0 113 33.5t40 82.5q0 44 -30 69t-92 36q-42 7 -103 22q-128 32 -202 106.5t-74 186.5q0 88 51 155t127 99.5t160 32.5q134 0 233.5 -79.5t114.5 -207.5h-205q0 46 -41 76.5t-102 30.5q-62 0 -103 -30.5t-41 -76.5 q0 -87 123 -110l103 -21q127 -28 201.5 -100t74.5 -189q0 -123 -101 -209.5t-247 -86.5q-145 0 -246.5 77.5t-132.5 208.5z" />
<glyph unicode="&#x456;" horiz-adv-x="450" d="M123 1126v226h205v-226h-205zM125 0v963h201v-963h-201z" />
<glyph unicode="&#x457;" horiz-adv-x="450" d="M-51 1137v225h203v-225h-203zM125 0v963h201v-963h-201zM297 1137v225h205v-225h-205z" />
<glyph unicode="&#x458;" horiz-adv-x="468" d="M-61 -250v-184l102 -21q150 0 227.5 83t77.5 225v1110h-203v-1131q0 -47 -23.5 -74.5t-68.5 -27.5zM143 1147v225h203v-225h-203z" />
<glyph unicode="&#x459;" horiz-adv-x="1269" d="M20 0v184h41q46 0 74.5 28.5t28.5 74.5v676h573v-287h82q181 0 285 -94t104 -244t-104 -244t-285 -94h-287v778h-163v-481q0 -152 -85 -234.5t-233 -82.5zM737 184h92q83 0 129 42t46 112t-46 112t-129 42h-92v-308z" />
<glyph unicode="&#x45a;" horiz-adv-x="1269" d="M123 0v963h205v-287h204v287h205v-287h82q181 0 285 -94t104 -244t-104 -244t-285 -94h-287v492h-204v-492h-205zM737 184h92q83 0 129 42t46 112t-46 112t-129 42h-92v-308z" />
<glyph unicode="&#x45b;" horiz-adv-x="1064" d="M20 1167v185h103v204h205v-204h225v-185h-225v-286l10 -11l10 11q30 44 95.5 73t129.5 29q181 0 285.5 -108.5t104.5 -280.5v-594h-205v573q0 226 -205 226q-90 0 -156 -63.5t-69 -153.5v-582h-205v1167h-103z" />
<glyph unicode="&#x45c;" horiz-adv-x="983" d="M123 0h205v410l409 -410h267l-484 500l463 463h-266l-389 -390v983h-205v-1556zM129 1630l266 305l119 -108l-176 -197h-209z" />
<glyph unicode="&#x45e;" horiz-adv-x="880" d="M20 963l324 -836l-201 -537h205l512 1373h-205l-215 -578l-213 578h-207zM164 1317v12h166v-4q0 -42 29 -73t81 -31t81.5 31t29.5 73v4h166v-12q0 -98 -76 -172t-201 -74q-124 0 -200 74t-76 172z" />
<glyph unicode="&#x45f;" horiz-adv-x="1064" d="M123 0v963h203v-779h413v779h203v-963h-307v-266h-205v266h-307z" />
<glyph unicode="&#x490;" horiz-adv-x="1085" d="M164 0v1495h686v225h215v-245l-184 -185h-502v-1290h-215z" />
<glyph unicode="&#x491;" horiz-adv-x="839" d="M123 0v963h491v245h205v-266l-184 -164h-307v-778h-205z" />
<glyph unicode="&#x1e80;" horiz-adv-x="1783" d="M41 1495h217l244 -1124l276 817h228l274 -815l244 1122h217l-328 -1495h-215l-307 866l-307 -866h-215zM633 1817l137 129l295 -338h-236z" />
<glyph unicode="&#x1e81;" horiz-adv-x="1351" d="M20 963l267 -963h194l195 555l194 -555h195l266 963h-203l-165 -687l-185 543h-205l-184 -543l-166 687h-203zM373 1358l147 106l256 -389h-201z" />
<glyph unicode="&#x1e82;" horiz-adv-x="1783" d="M41 1495h217l244 -1124l276 817h228l274 -815l244 1122h217l-328 -1495h-215l-307 866l-307 -866h-215zM801 1608l295 338l137 -129l-197 -209h-235z" />
<glyph unicode="&#x1e83;" horiz-adv-x="1351" d="M20 963l267 -963h194l195 555l194 -555h195l266 963h-203l-165 -687l-185 543h-205l-184 -543l-166 687h-203zM592 1075l256 389l147 -106l-202 -283h-201z" />
<glyph unicode="&#x1e84;" horiz-adv-x="1783" d="M41 1495h217l244 -1124l276 817h228l274 -815l244 1122h217l-328 -1495h-215l-307 866l-307 -866h-215zM604 1632v226h223v-226h-223zM952 1632v226h226v-226h-226z" />
<glyph unicode="&#x1e85;" horiz-adv-x="1351" d="M20 963l267 -963h194l195 555l194 -555h195l266 963h-203l-165 -687l-185 543h-205l-184 -543l-166 687h-203zM399 1137v225h203v-225h-203zM748 1137v225h204v-225h-204z" />
<glyph unicode="&#x1ef2;" horiz-adv-x="1126" d="M20 1495h236l307 -534l305 534h238l-434 -758v-737h-217v737zM289 1817l137 129l295 -338h-236z" />
<glyph unicode="&#x1ef3;" horiz-adv-x="880" d="M20 963l324 -836l-201 -537h205l512 1373h-205l-215 -578l-213 578h-207zM176 1358l148 106l256 -389h-201z" />
<glyph unicode="&#x2000;" horiz-adv-x="1179" />
<glyph unicode="&#x2001;" horiz-adv-x="2359" />
<glyph unicode="&#x2002;" horiz-adv-x="1179" />
<glyph unicode="&#x2003;" horiz-adv-x="2359" />
<glyph unicode="&#x2004;" horiz-adv-x="786" />
<glyph unicode="&#x2005;" horiz-adv-x="589" />
<glyph unicode="&#x2006;" horiz-adv-x="393" />
<glyph unicode="&#x2007;" horiz-adv-x="393" />
<glyph unicode="&#x2008;" horiz-adv-x="294" />
<glyph unicode="&#x2009;" horiz-adv-x="471" />
<glyph unicode="&#x200a;" horiz-adv-x="131" />
<glyph unicode="&#x2010;" horiz-adv-x="655" d="M61 471v225h533v-225h-533z" />
<glyph unicode="&#x2011;" horiz-adv-x="655" d="M61 471v225h533v-225h-533z" />
<glyph unicode="&#x2012;" horiz-adv-x="655" d="M61 471v225h533v-225h-533z" />
<glyph unicode="&#x2013;" horiz-adv-x="1249" d="M61 512v184h1127v-184h-1127z" />
<glyph unicode="&#x2014;" horiz-adv-x="1843" d="M61 512v184h1721v-184h-1721z" />
<glyph unicode="&#x2018;" horiz-adv-x="483" d="M20 963l216 532l184 -82l-184 -450h-216z" />
<glyph unicode="&#x2019;" horiz-adv-x="481" d="M51 1044l185 451h215l-218 -532z" />
<glyph unicode="&#x201a;" horiz-adv-x="483" d="M20 -205l216 533l184 -82l-184 -451h-216z" />
<glyph unicode="&#x201c;" horiz-adv-x="800" d="M20 963l216 532l182 -82l-182 -450h-216zM338 963l215 532l184 -82l-184 -450h-215z" />
<glyph unicode="&#x201d;" horiz-adv-x="800" d="M51 1044l185 451h213l-213 -532zM369 1044l184 451h215l-213 -532z" />
<glyph unicode="&#x201e;" horiz-adv-x="800" d="M20 -205l216 533l182 -82l-182 -451h-216zM338 -205l215 533l184 -82l-184 -451h-215z" />
<glyph unicode="&#x2020;" horiz-adv-x="921" d="M61 1106v143h328v246h143v-246h328v-143h-328v-1106h-143v1106h-328z" />
<glyph unicode="&#x2021;" horiz-adv-x="921" d="M61 246v143h328v717h-328v143h328v246h143v-246h328v-143h-328v-717h328v-143h-328v-246h-143v246h-328z" />
<glyph unicode="&#x2022;" horiz-adv-x="1105" d="M102 696q0 186 132.5 318.5t318.5 132.5t318.5 -132.5t132.5 -318.5t-132.5 -318t-318.5 -132t-318.5 132t-132.5 318zM287 922q0 -17 12 -29t29 -12t28 12t11 29t-11 29t-28 12t-29 -12t-12 -29z" />
<glyph unicode="&#x2026;" horiz-adv-x="1495" d="M61 0v266h265v-266h-265zM655 0v266h246v-266h-246zM1208 0v266h226v-266h-226z" />
<glyph unicode="&#x202f;" horiz-adv-x="471" />
<glyph unicode="&#x2030;" horiz-adv-x="1710" d="M82 0l1085 1495h164l-1085 -1495h-164zM102 1198q0 134 87.5 226t230.5 92t230 -92t87 -226t-87 -225.5t-230 -91.5t-230.5 91.5t-87.5 225.5zM246 1198q0 -82 51 -132t123 -50t123 50t51 132t-51 132t-123 50t-123 -50t-51 -132zM676 297q0 132 85 223t224 94 q-12 44 -12 93q0 134 87 225.5t230 91.5t230.5 -91.5t87.5 -225.5q0 -132 -86 -223.5t-224 -94.5q13 -47 13 -92q0 -134 -87.5 -225.5t-230.5 -91.5t-230 91.5t-87 225.5zM819 297q0 -82 51 -132t123 -50t123 50t51 132t-51 132t-123 50t-123 -50t-51 -132zM1116 707 q0 -82 51 -132.5t123 -50.5t123 50.5t51 132.5t-51 132t-123 50t-123 -50t-51 -132z" />
<glyph unicode="&#x2039;" horiz-adv-x="655" d="M39 604l534 473v-217l-286 -256l286 -256v-217z" />
<glyph unicode="&#x203a;" horiz-adv-x="655" d="M82 131v217l287 256l-287 256v217l532 -473z" />
<glyph unicode="&#x203d;" horiz-adv-x="983" d="M41 1495h246l14 -78q34 34 95 56t116 22q175 0 292.5 -105t117.5 -284q0 -65 -18 -123t-46.5 -100.5t-65.5 -82t-75 -72t-74 -64.5t-63.5 -65.5t-43 -70t-12 -82t28.5 -98.5h-205l-184 615zM328 0v246h245v-246h-245zM336 1237l53 -274v-297q29 41 75.5 84t87.5 76.5 t80 71.5t62 85.5t23 101.5q0 99 -62 157t-163 58q-46 0 -88.5 -17.5t-67.5 -45.5z" />
<glyph unicode="&#x2042;" horiz-adv-x="1822" d="M61 328v143h226l-160 160l102 102l160 -160v226h143v-328h328v-143h-225l160 -160l-103 -102l-160 159v-225h-143v328h-328zM512 1024v143h225l-159 160l102 103l160 -160v225h143v-225l160 160l102 -103l-160 -160h226v-143h-226l160 -160l-102 -102l-160 160v-226h-143 v226l-160 -160l-102 102l159 160h-225zM963 328v143h327v328h144v-226l159 160l103 -102l-160 -160h225v-143h-327v-328h-144v225l-160 -159l-102 102l160 160h-225z" />
<glyph unicode="&#x2044;" horiz-adv-x="1392" d="M0 0l1229 1495h164l-1229 -1495h-164z" />
<glyph unicode="&#x205f;" horiz-adv-x="589" />
<glyph unicode="&#x2070;" d="M72 1491q0 171 73.5 277t202.5 106t203 -106t74 -277t-74.5 -278t-202.5 -107t-202 107t-74 278zM215 1491q0 -118 33 -185t100 -67t100 67t33 185q0 117 -33 183.5t-100 66.5t-100 -66.5t-33 -183.5z" />
<glyph unicode="&#x2074;" d="M41 1311v133l307 420h184v-420h103v-133h-103v-195h-143v195h-348zM201 1444h188v258z" />
<glyph unicode="&#x2075;" d="M82 1352h143q0 -46 35.5 -79.5t87.5 -33.5q55 0 89 35t34 90q0 64 -42 97.5t-107 33.5q-82 0 -164 -14l-56 106l97 277h385v-133h-297l-45 -121q41 18 100 18q123 0 197.5 -70t74.5 -186q0 -110 -75.5 -188t-190.5 -78q-118 0 -192 74.5t-74 171.5z" />
<glyph unicode="&#x2076;" d="M82 1485q1 76 19 144t52.5 124t91 88.5t128.5 32.5q96 0 160.5 -60.5t64.5 -164.5h-137q0 47 -28 72.5t-71 25.5q-48 0 -80 -33.5t-45 -77t-16 -96.5q55 55 152 55q112 0 178.5 -70t66.5 -173q0 -102 -71.5 -174t-184.5 -72q-68 0 -124 30.5t-91 82.5q-65 97 -65 266z M246 1352q0 -48 32 -80.5t84 -32.5q49 0 80 32.5t31 80.5q0 51 -31.5 83.5t-83.5 32.5q-48 0 -80 -32.5t-32 -83.5z" />
<glyph unicode="&#x2077;" d="M92 1731v133h533v-123q-132 -247 -267 -625h-143v31q29 77 60.5 153.5t62 144.5t52 114.5t48.5 102.5t33 69h-379z" />
<glyph unicode="&#x2078;" d="M82 1331q0 59 27.5 104.5t74.5 69.5q-82 59 -82 154q0 97 71.5 156t174.5 59t174.5 -59t71.5 -156q0 -46 -22 -87t-60 -67q47 -24 74.5 -70t27.5 -104q0 -95 -73 -160t-193 -65t-193 65t-73 160zM225 1335q0 -43 34.5 -69.5t88.5 -26.5q55 0 89 26.5t34 69.5q0 49 -35 77 t-88 28q-50 0 -86.5 -28t-36.5 -77zM246 1651q0 -34 27.5 -59t74.5 -25q48 0 75.5 24.5t27.5 59.5q0 39 -29 64.5t-74 25.5t-73.5 -25.5t-28.5 -64.5z" />
<glyph unicode="&#x2079;" d="M78 1628q0 102 71.5 174t184.5 72q68 0 124 -30.5t91 -82.5q65 -97 65 -266q-1 -76 -18.5 -144t-52 -124t-91 -88.5t-128.5 -32.5q-96 0 -161 60.5t-65 164.5h138q0 -48 27.5 -73t70.5 -25q48 0 80 33.5t45 77t16 96.5q-56 -56 -151 -56q-112 0 -179 70.5t-67 173.5z M223 1628q0 -52 31.5 -84.5t83.5 -32.5q48 0 80.5 33t32.5 84q0 48 -32.5 80.5t-84.5 32.5q-49 0 -80 -32.5t-31 -80.5z" />
<glyph unicode="&#x2080;" d="M72 6q0 171 73.5 277t202.5 106t203 -106t74 -277t-74.5 -278t-202.5 -107t-202 107t-74 278zM215 6q0 -118 33 -185t100 -67t100 67t33 185q0 117 -33 183.5t-100 66.5t-100 -66.5t-33 -183.5z" />
<glyph unicode="&#x2081;" d="M94 113v20l174 246h195v-748h-139v605l-84 -123h-146z" />
<glyph unicode="&#x2082;" d="M96 123v20q0 116 73 181t173 65q108 0 177 -64.5t69 -170.5q0 -103 -111 -205q-32 -30 -88 -69t-87.5 -66.5t-31.5 -49.5h328v-133h-502v82q2 51 31.5 96t64.5 73.5t88.5 69t81.5 68.5q24 24 38 40t29 43t15 51q0 46 -28 74t-74 28t-74 -28t-28 -74v-31h-144z" />
<glyph unicode="&#x2083;" d="M82 -133h143q0 -47 34.5 -80t86.5 -33q54 0 89.5 33t35.5 80q0 55 -36.5 89t-98.5 34h-131v112l188 144h-291v133h502v-133l-205 -135q95 -11 155 -74t60 -160q0 -103 -77 -179.5t-191 -76.5q-116 0 -190 74.5t-74 171.5z" />
<glyph unicode="&#x2084;" d="M41 -41l307 420h184v-420h103v-133h-103v-195h-143v195h-348v133zM201 -41h188v258z" />
<glyph unicode="&#x2085;" d="M82 -133h143q0 -46 35.5 -79.5t87.5 -33.5q55 0 89 35t34 90q0 64 -42 97.5t-107 33.5q-82 0 -164 -14l-56 106l97 277h385v-133h-297l-45 -121q40 18 100 18q123 0 197.5 -70t74.5 -186q0 -110 -75.5 -188t-190.5 -78q-118 0 -192 74.5t-74 171.5z" />
<glyph unicode="&#x2086;" d="M82 0q1 76 19 144t52.5 124t91 88.5t128.5 32.5q96 0 160.5 -60.5t64.5 -164.5h-137q0 48 -28 73t-71 25q-48 0 -80 -33.5t-45 -77t-16 -96.5q56 56 152 56q112 0 178.5 -70.5t66.5 -173.5q0 -102 -71.5 -174t-184.5 -72q-68 0 -124 30.5t-91 82.5q-65 97 -65 266z M246 -133q0 -48 32 -80.5t84 -32.5q49 0 80 32.5t31 80.5q0 52 -31.5 84.5t-83.5 32.5q-48 0 -80 -33t-32 -84z" />
<glyph unicode="&#x2087;" d="M92 246v133h533v-123q-132 -247 -267 -625h-143v31q29 77 60.5 153.5t62 144.5t52 114.5t48.5 102.5t33 69h-379z" />
<glyph unicode="&#x2088;" d="M82 -154q0 59 27.5 104.5t74.5 69.5q-82 59 -82 154q0 97 71.5 156t174.5 59t174.5 -59t71.5 -156q0 -46 -22 -87t-60 -67q47 -24 74.5 -70t27.5 -104q0 -95 -73 -160t-193 -65t-193 65t-73 160zM225 -150q0 -43 34.5 -69.5t88.5 -26.5q55 0 89 26.5t34 69.5q0 49 -35 77 t-88 28q-50 0 -86.5 -28t-36.5 -77zM246 166q0 -34 27.5 -59t74.5 -25q48 0 75.5 24.5t27.5 59.5q0 39 -29 64.5t-74 25.5t-73.5 -25.5t-28.5 -64.5z" />
<glyph unicode="&#x2089;" d="M78 143q0 102 71.5 174t184.5 72q68 0 124 -30.5t91 -82.5q65 -97 65 -266q-1 -76 -18.5 -144t-52 -124t-91 -88.5t-128.5 -32.5q-96 0 -161 60.5t-65 164.5h138q0 -48 27.5 -73t70.5 -25q48 0 80 33.5t45 77t16 96.5q-55 -55 -151 -55q-112 0 -179 70t-67 173zM223 143 q0 -51 31.5 -83.5t83.5 -32.5q48 0 80.5 33t32.5 83q0 48 -32.5 80.5t-84.5 32.5q-49 0 -80 -32.5t-31 -80.5z" />
<glyph unicode="&#x20ac;" horiz-adv-x="1331" d="M20 512l144 27q-21 99 -21 209q0 86 17 186l-140 29l31 174l158 -31q75 191 224 300.5t335 109.5q139 0 253.5 -56.5t186.5 -147.5t103 -206h-205q-14 42 -39.5 79t-65 71t-100 54.5t-133.5 20.5q-125 0 -218.5 -68.5t-146.5 -195.5l437 -84l-31 -174l-451 86 q-10 -56 -10 -147q0 -90 12 -170l449 88l31 -174l-428 -84q55 -118 145.5 -181t210.5 -63q73 0 133.5 20t100.5 54.5t65.5 71.5t40.5 79h203q-48 -177 -192 -293t-351 -116q-181 0 -327 103.5t-224 285.5l-166 -31z" />
<glyph unicode="&#x2116;" horiz-adv-x="1843" d="M164 0h184v1149l328 -1149h266v1495h-184v-1128l-328 1128h-266v-1495zM1085 1167q0 161 93.5 255t224.5 94q130 0 223.5 -94t93.5 -255t-93 -254.5t-224 -93.5t-224.5 93.5t-93.5 254.5zM1106 563h594v174h-594v-174zM1262 1167q0 -80 37 -132t104 -52t104 52t37 132 t-37 132.5t-104 52.5t-104 -52.5t-37 -132.5z" />
<glyph unicode="&#x2122;" horiz-adv-x="1740" d="M20 1331v164h615v-164h-215v-727h-164v727h-236zM717 604v891h225l225 -457l226 457h225v-891h-158v686l-205 -430h-176l-205 430v-686h-157z" />
<glyph unicode="&#x2160;" horiz-adv-x="798" d="M143 0v203h154v1091h-154v201h512v-201h-153v-1091h153v-203h-512z" />
<glyph unicode="&#x2161;" horiz-adv-x="1269" d="M123 0v203h113v1091h-113v201h430v-201h-113v-1091h113v-203h-430zM717 0v203h112v1091h-112v201h430v-201h-113v-1091h113v-203h-430z" />
<glyph unicode="&#x2162;" horiz-adv-x="1863" d="M123 0v203h113v1091h-113v201h430v-201h-113v-1091h113v-203h-430zM717 0v203h112v1091h-112v201h430v-201h-113v-1091h113v-203h-430zM1311 0v203h112v1091h-112v201h430v-201h-113v-1091h113v-203h-430z" />
<glyph unicode="&#x2163;" horiz-adv-x="1863" d="M123 0v203h113v1091h-113v201h430v-201h-113v-1091h113v-203h-430zM696 1495h215l318 -1194l317 1194h215l-422 -1495h-221z" />
<glyph unicode="&#x2164;" horiz-adv-x="1269" d="M102 1495h215l328 -1194l328 1194h215l-432 -1495h-221z" />
<glyph unicode="&#x2165;" horiz-adv-x="1863" d="M102 1495h215l318 -1194l317 1194h215l-422 -1495h-221zM1311 0v203h112v1091h-112v201h430v-201h-113v-1091h113v-203h-430z" />
<glyph unicode="&#x2166;" horiz-adv-x="2478" d="M102 1495h215l318 -1194l317 1194h215l-422 -1495h-221zM1311 0v203h112v1091h-112v201h430v-201h-113v-1091h113v-203h-430zM1905 0h430v203h-113v1091h113v201h-430v-201h112v-1091h-112v-203z" />
<glyph unicode="&#x2167;" horiz-adv-x="2990" d="M102 1495h215l318 -1194l317 1194h215l-422 -1495h-221zM1290 0v203h113v1091h-113v201h430v-201h-112v-1091h112v-203h-430zM1864 0h430v203h-113v1091h113v201h-430v-201h112v-1091h-112v-203zM2437 0h430v203h-112v1091h112v201h-430v-201h113v-1091h-113v-203z" />
<glyph unicode="&#x2168;" horiz-adv-x="1863" d="M123 0v203h113v1091h-113v201h430v-201h-113v-1091h113v-203h-430zM707 0l426 748l-426 747h233l309 -543l310 543h233l-426 -747l426 -748h-233l-310 543l-309 -543h-233z" />
<glyph unicode="&#x2169;" horiz-adv-x="1269" d="M82 0l436 748l-436 747h231l322 -551l321 551h232l-438 -747l438 -748h-232l-321 549l-322 -549h-231z" />
<glyph unicode="&#x216a;" horiz-adv-x="1863" d="M72 0l426 748l-426 747h233l309 -543l310 543h233l-426 -747l426 -748h-233l-310 543l-309 -543h-233zM1311 0v203h112v1091h-112v201h430v-201h-113v-1091h113v-203h-430z" />
<glyph unicode="&#x216b;" horiz-adv-x="2478" d="M72 0l426 748l-426 747h233l309 -543l310 543h233l-426 -747l426 -748h-233l-310 543l-309 -543h-233zM1311 0v203h112v1091h-112v201h430v-201h-113v-1091h113v-203h-430zM1905 0h430v203h-113v1091h113v201h-430v-201h112v-1091h-112v-203z" />
<glyph unicode="&#x216c;" horiz-adv-x="1249" d="M225 0v1495h205v-1292h696v-203h-901z" />
<glyph unicode="&#x216d;" horiz-adv-x="1474" d="M164 748q0 169 48.5 313.5t132.5 243.5t198.5 155t244.5 56q208 0 356.5 -117t196.5 -293h-215q-31 89 -114 150t-224 61q-193 0 -306 -151t-113 -418t113 -418.5t306 -151.5q141 0 224.5 61t115.5 150h213q-48 -176 -196.5 -292.5t-356.5 -116.5q-130 0 -244.5 56 t-198.5 155t-132.5 243.5t-48.5 313.5z" />
<glyph unicode="&#x216e;" horiz-adv-x="1495" d="M225 0v1495h348q218 0 390.5 -94.5t270 -265t97.5 -387.5t-97.5 -388t-270 -265.5t-390.5 -94.5h-348zM430 201h154q253 0 397.5 146.5t144.5 400.5t-144.5 400t-397.5 146h-154v-1093z" />
<glyph unicode="&#x216f;" horiz-adv-x="1822" d="M225 0v1495h287l399 -934l400 934h286v-1495h-200v1219l-359 -850h-254l-358 850v-1219h-201z" />
<glyph unicode="&#x2180;" horiz-adv-x="2396" d="M164 748q0 169 48.5 313.5t132.5 243.5t198.5 155t244.5 56q199 0 338 -113v92h349q218 0 390.5 -94.5t269.5 -265t97 -387.5t-97 -388t-269.5 -265.5t-390.5 -94.5h-349v92q-138 -112 -338 -112q-130 0 -244.5 56t-198.5 155t-132.5 243.5t-48.5 313.5zM369 748 q0 -267 113 -418.5t306 -151.5q74 0 133.5 18t99 49.5t65 67t40.5 76.5v717q-31 89 -114 150t-224 61q-193 0 -306 -151t-113 -418zM1331 201h154q253 0 398 146.5t145 400.5t-145 400t-398 146h-154v-1093z" />
<glyph unicode="&#x2181;" horiz-adv-x="1495" d="M225 0v1495h348q218 0 390.5 -94.5t270 -265t97.5 -387.5t-97.5 -388t-270 -265.5t-390.5 -94.5h-348zM430 201h154q253 0 397.5 146.5t144.5 400.5t-144.5 400t-397.5 146h-154v-168h143q166 0 278 -106.5t112 -271.5q0 -167 -112 -273t-278 -106h-143v-168zM430 553 h154q86 0 140 52t54 143q0 88 -54 141t-140 53h-154v-389z" />
<glyph unicode="&#x2202;" horiz-adv-x="921" d="M41 358q0 78 19 161t59 162.5t94.5 142t132 101t166.5 38.5q68 0 125 -31.5t84 -79.5q-9 135 -43.5 237t-85 158.5t-106.5 83.5t-117 27q-106 0 -153 -61.5t-30 -170.5h-133q-12 89 8 160.5t64.5 116.5t107 68.5t136.5 23.5q73 0 142 -25t140 -91t120.5 -166.5t76 -265.5 t14.5 -374q-6 -113 -41 -218t-94.5 -189.5t-150 -135t-197.5 -50.5q-155 0 -246.5 101t-91.5 277zM184 358q0 -108 52 -171.5t143 -63.5q81 0 147 41t106.5 107.5t62.5 144.5t22 157q0 113 -56 180.5t-151 67.5q-80 0 -145 -43.5t-103 -112.5t-58 -148.5t-20 -158.5z" />
<glyph unicode="&#x220f;" horiz-adv-x="921" d="M61 1147v143h799v-143h-41v-1581h-143v1581h-430v-1581h-144v1581h-41z" />
<glyph unicode="&#x2211;" horiz-adv-x="921" d="M20 -291l697 803l-697 840v143h861v-143h-666l645 -758v-143l-645 -742h666v-143h-861v143z" />
<glyph unicode="&#x2212;" horiz-adv-x="1105" d="M61 512v164h983v-164h-983z" />
<glyph unicode="&#x221a;" horiz-adv-x="921" d="M0 819v144h266l215 -1045l297 1577h144l-369 -1929h-143l-267 1253h-143z" />
<glyph unicode="&#x221e;" horiz-adv-x="1105" d="M20 594q0 122 70 194t186 72q152 0 275 -149q124 149 278 149q116 0 186 -72t70 -194t-70 -194t-186 -72q-154 0 -278 149q-123 -149 -275 -149q-116 0 -186 72t-70 194zM158 594q0 -50 30 -86.5t88 -36.5q107 0 193 123q-89 123 -193 123q-58 0 -88 -36.5t-30 -86.5z M637 594q94 -123 192 -123q58 0 88.5 36.5t30.5 86.5t-30.5 86.5t-88.5 36.5q-98 0 -192 -123z" />
<glyph unicode="&#x222b;" horiz-adv-x="921" d="M82 -287h205q45 0 68.5 28t23.5 75l-21 860v573q0 142 79 224.5t229 82.5h174v-143h-205q-45 0 -68.5 -27.5t-23.5 -74.5l20 -635v-803q0 -142 -78.5 -224.5t-228.5 -82.5h-174v147z" />
<glyph unicode="&#x2234;" horiz-adv-x="1187" d="M61 0v266h246v-266h-246zM471 696v267h246v-267h-246zM881 0v266h245v-266h-245z" />
<glyph unicode="&#x2235;" horiz-adv-x="1187" d="M61 696v267h246v-267h-246zM471 0v266h246v-266h-246zM881 696v267h245v-267h-245z" />
<glyph unicode="&#x2248;" horiz-adv-x="1105" d="M102 532h185q-7 -43 17.5 -67.5t64.5 -24.5q41 0 89.5 16t88 35.5t94.5 35.5t107 16q127 0 198.5 -72t57.5 -205h-185q7 43 -17.5 67.5t-64.5 24.5q-50 0 -109 -25.5t-127.5 -51t-142.5 -25.5q-127 0 -198.5 71.5t-57.5 204.5zM102 901h185q-7 -43 17.5 -67.5t64.5 -24.5 q50 0 113 25.5t132 51t134 25.5q127 0 198.5 -71.5t57.5 -204.5h-185q7 43 -17.5 67.5t-64.5 24.5q-50 0 -109 -25.5t-127.5 -51t-142.5 -25.5q-127 0 -198.5 71.5t-57.5 204.5z" />
<glyph unicode="&#x2260;" horiz-adv-x="1105" d="M61 0v41l215 287h-215v164h338l154 204h-492v164h615l246 328h122v-41l-215 -287h215v-164h-337l-154 -204h491v-164h-614l-246 -328h-123z" />
<glyph unicode="&#x2264;" horiz-adv-x="1105" d="M82 0v160h778l-778 352v164l942 450v-163l-772 -369l772 -348v-246h-942z" />
<glyph unicode="&#x2265;" horiz-adv-x="1105" d="M82 0v246l772 348l-772 369v163l942 -450v-164l-780 -352h780v-160h-942z" />
<glyph unicode="&#x25ca;" horiz-adv-x="860" d="M61 748l287 747h164l287 -747l-287 -748h-164zM225 748l205 -564l205 564l-205 563z" />
<glyph unicode="&#xe000;" horiz-adv-x="962" d="M0 0v963h963v-963h-963z" />
<glyph horiz-adv-x="1884" d="M61 686q0 188 69 354.5t186.5 283.5t280.5 185t345 68q243 0 437 -109.5t303.5 -306t109.5 -444.5q0 -104 -22 -193t-66 -159t-116 -110t-165 -40q-78 0 -141.5 37.5t-93.5 105.5l-10 11l-11 -11q-93 -143 -278 -143q-165 0 -273.5 109.5t-123.5 310.5q-4 49 0 102 q13 194 126 307t271 113q165 0 260 -123l39 103h123v-656q0 -52 32 -82t80 -30q205 0 205 348q0 205 -81 364.5t-237.5 250.5t-367.5 91q-212 0 -375.5 -94.5t-252.5 -262t-89 -380.5t89 -380.5t252.5 -262t375.5 -94.5q144 0 225.5 53.5t79.5 140.5l133 -82 q-9 -84 -71.5 -145.5t-157 -91t-209.5 -29.5q-189 0 -353 67.5t-280 185.5t-182 283.5t-66 354.5zM676 635q19 -256 235 -256q99 0 160.5 68t67.5 178q3 61 0 123q-6 115 -67 180t-161 65q-101 0 -163.5 -67t-71.5 -189q-4 -53 0 -102z" />
<glyph horiz-adv-x="1126" d="M51 748q0 222 58 394t175.5 273t278.5 101q160 0 277.5 -101t176 -273t58.5 -394t-58.5 -394t-176 -273t-277.5 -101q-161 0 -278.5 101t-175.5 273t-58 394zM256 748q0 -174 31 -299.5t101 -199t175 -73.5t175 73.5t101 199t31 299.5q0 265 -76 418t-231 153t-231 -153 t-76 -418z" />
<glyph horiz-adv-x="1126" d="M123 0v203h348v1054l-113 -151h-215v41l287 348h246v-1292h328v-203h-881z" />
<glyph horiz-adv-x="1126" d="M82 0v102q0 78 38.5 152.5t108.5 143t142.5 127.5t168 136t156.5 138q69 69 89 96q55 75 55 170q0 117 -80 184.5t-187 67.5t-187.5 -67.5t-80.5 -184.5v-61h-203v61q0 129 66.5 233.5t174 161t230.5 56.5q93 0 177.5 -30.5t150 -86.5t104.5 -143t39 -191q0 -53 -14 -104 t-32 -87t-50.5 -78t-52.5 -63.5t-55 -56.5q-79 -79 -180 -160t-165.5 -127.5t-110.5 -96t-46 -89.5h686v-203h-942z" />
<glyph horiz-adv-x="1126" d="M72 440h204q0 -115 82 -190.5t205 -75.5q121 0 204 85t83 202q0 135 -87 216t-220 81h-207v184l422 350h-625v203h778l123 -203l-438 -354q201 -11 330 -144.5t129 -332.5q0 -89 -35.5 -175t-98.5 -154t-156.5 -110t-201.5 -42q-105 0 -197.5 37.5t-156 100t-100.5 147 t-37 175.5z" />
<glyph horiz-adv-x="1126" d="M41 389v195q159 232 312.5 460t227.5 340l74 111h267v-911h163v-195h-163v-389h-205v389h-676zM270 584h447v653q-308 -455 -447 -653z" />
<glyph horiz-adv-x="1126" d="M61 492h205q0 -135 81.5 -226.5t215.5 -91.5q140 0 218.5 90.5t78.5 227.5q0 150 -89 235.5t-239 91.5q-101 4 -296 -10l-93 195l174 491h656v-203h-524l-113 -297q76 13 207 13q227 0 376.5 -141.5t149.5 -374.5q0 -222 -145 -367t-361 -145q-222 0 -362 144t-140 368z " />
<glyph horiz-adv-x="1126" d="M61 748q1 120 20 229.5t60.5 209t102.5 171.5t152 115t202 43q187 0 312 -121t124 -310h-205q0 112 -67.5 174t-171.5 62q-78 0 -139 -39t-97.5 -99t-59.5 -137.5t-31 -148t-7 -137.5q60 79 145.5 130.5t192.5 51.5q108 0 198 -39t149 -105.5t91.5 -153.5t32.5 -183 q0 -93 -33 -179t-92.5 -153.5t-150.5 -108t-199 -40.5q-132 0 -240 60.5t-174 164.5q-118 186 -115 543zM303 461q0 -118 80 -201.5t201 -83.5q122 0 199 80.5t77 204.5q0 125 -79 206t-206 81q-122 0 -197 -80.5t-75 -206.5z" />
<glyph horiz-adv-x="1126" d="M72 1292v203h983v-203q-11 -22 -31.5 -62.5t-81.5 -173.5t-120.5 -274.5t-140 -355.5t-149.5 -426h-204v41q205 595 508 1251h-764z" />
<glyph horiz-adv-x="1126" d="M72 410q0 127 56.5 220.5t158.5 149.5q-86 56 -135.5 140t-49.5 186q0 110 63.5 205t170 150t227.5 55t227.5 -55t170 -150t63.5 -205q0 -102 -49.5 -186.5t-136.5 -139.5q103 -56 160 -149.5t57 -220.5q0 -180 -140 -305t-352 -125t-351.5 125t-139.5 305zM276 420 q0 -107 82 -176.5t205 -69.5t205 69.5t82 176.5q0 114 -81 185t-206 71q-119 0 -203 -71.5t-84 -184.5zM307 1096q0 -91 69.5 -160.5t186.5 -69.5t186.5 69.5t69.5 160.5q0 98 -73.5 161.5t-182.5 63.5t-182.5 -63.5t-73.5 -161.5z" />
<glyph horiz-adv-x="1126" d="M59 1034q0 93 34 179.5t95 154t153 108t200 40.5q144 0 260.5 -78.5t177.5 -210.5q87 -190 84 -479q-1 -120 -20 -229.5t-60.5 -209t-102.5 -171.5t-152 -115t-202 -43q-187 0 -312 120.5t-124 309.5h205q0 -111 68 -173.5t172 -62.5q78 0 139 39t97 99t59.5 137.5 t31 148t6.5 137.5q-58 -85 -137.5 -133.5t-200.5 -48.5q-108 0 -198 39t-149 105.5t-91.5 153.5t-32.5 183zM264 1034q0 -123 82 -203.5t205 -80.5q122 0 196 79t74 205q0 118 -79.5 201.5t-200.5 83.5q-122 0 -199.5 -80.5t-77.5 -204.5z" />
<glyph d="M72 1122q0 171 73.5 277t202.5 106t203 -106t74 -277t-74.5 -278t-202.5 -107t-202 107t-74 278zM215 1122q0 -118 33 -185t100 -67t100 67t33 185q0 117 -33 183.5t-100 66.5t-100 -66.5t-33 -183.5z" />
<glyph d="M94 1229v20l174 246h195v-747h-139v604l-84 -123h-146z" />
<glyph d="M96 748v81q2 51 31.5 96.5t64.5 73.5t88.5 69t81.5 69q25 25 38.5 40t28.5 42t15 51q0 46 -28 74t-74 28t-74 -28t-28 -74v-31h-144v21q0 116 73 180.5t173 64.5q108 0 177 -64.5t69 -170.5q0 -103 -111 -205q-32 -30 -88 -68.5t-87.5 -66t-31.5 -49.5h328v-133h-502z " />
<glyph d="M82 983h143q0 -47 34.5 -80t86.5 -33q54 0 89.5 33t35.5 80q0 55 -36.5 89t-98.5 34h-131v113l188 143h-291v133h502v-133l-205 -135q95 -11 155 -74t60 -160q0 -103 -77 -179.5t-191 -76.5q-116 0 -190 74.5t-74 171.5z" />
<glyph d="M41 942v133l307 420h184v-420h103v-133h-103v-194h-143v194h-348zM201 1075h188v258z" />
<glyph d="M82 983h143q0 -46 35.5 -79.5t87.5 -33.5q55 0 89 35t34 90q0 64 -42 97.5t-107 33.5q-82 0 -164 -14l-56 107l97 276h385v-133h-297l-45 -121q43 19 100 19q123 0 197.5 -70t74.5 -186q0 -110 -75.5 -188.5t-190.5 -78.5q-118 0 -192 74.5t-74 171.5z" />
<glyph d="M82 1116q1 76 19 144t52.5 124t91 88.5t128.5 32.5q96 0 160.5 -60.5t64.5 -164.5h-137q0 48 -28 73t-71 25q-48 0 -80 -33.5t-45 -77t-16 -96.5q56 56 152 56q112 0 178.5 -70.5t66.5 -173.5q0 -102 -71.5 -174t-184.5 -72q-68 0 -124 30.5t-91 82.5q-65 97 -65 266z M246 983q0 -48 32 -80.5t84 -32.5q49 0 80 32.5t31 80.5q0 52 -31.5 84.5t-83.5 32.5q-48 0 -80 -33t-32 -84z" />
<glyph d="M92 1362v133h533v-123q-132 -246 -267 -624h-143v30q29 77 60.5 153.5t62 144.5t52 114.5t48.5 102.5t33 69h-379z" />
<glyph d="M82 963q0 59 27.5 104.5t74.5 69.5q-82 59 -82 153q0 97 71.5 156t174.5 59t174.5 -59t71.5 -156q0 -46 -22 -86.5t-60 -66.5q47 -24 74.5 -70t27.5 -104q0 -95 -73 -160.5t-193 -65.5t-193 65.5t-73 160.5zM225 967q0 -43 34.5 -70t88.5 -27q55 0 89 27t34 70 q0 49 -35 76.5t-88 27.5q-50 0 -86.5 -27.5t-36.5 -76.5zM246 1282q0 -34 27.5 -59t74.5 -25q48 0 75.5 24.5t27.5 59.5q0 39 -29 64.5t-74 25.5t-73.5 -25.5t-28.5 -64.5z" />
<glyph d="M78 1260q0 102 71.5 173.5t184.5 71.5q68 0 124.5 -30t90.5 -82q65 -97 65 -267q-1 -76 -18.5 -144t-52 -124t-91 -88.5t-128.5 -32.5q-96 0 -161 61t-65 165h138q0 -48 27.5 -73.5t70.5 -25.5q48 0 80 33.5t45 77t16 96.5q-55 -55 -151 -55q-112 0 -179 70.5t-67 173.5z M223 1260q0 -52 31.5 -84.5t83.5 -32.5q48 0 80.5 33t32.5 84q0 48 -32.5 80t-84.5 32q-49 0 -80 -32t-31 -80z" />
<glyph d="M72 375q0 171 73.5 277t202.5 106t203 -106t74 -277t-74.5 -278t-202.5 -107t-202 107t-74 278zM215 375q0 -118 33 -185t100 -67t100 67t33 185q0 117 -33 183.5t-100 66.5t-100 -66.5t-33 -183.5z" />
<glyph d="M94 481v21l174 246h195v-748h-139v604l-84 -123h-146z" />
<glyph d="M96 0v82q2 51 31.5 96t64.5 73.5t88.5 69t81.5 68.5q25 25 38.5 40t28.5 42t15 51q0 46 -28 74.5t-74 28.5t-74 -28.5t-28 -74.5v-30h-144v20q0 116 73 181t173 65q108 0 177 -65t69 -171q0 -103 -111 -205q-32 -30 -88 -68.5t-87.5 -66t-31.5 -49.5h328v-133h-502z" />
<glyph d="M82 236h143q0 -47 34.5 -80t86.5 -33q54 0 89.5 33t35.5 80q0 55 -36.5 88.5t-98.5 33.5h-131v113l188 143h-291v134h502v-134l-205 -135q96 -11 155.5 -73.5t59.5 -159.5q0 -103 -77 -179.5t-191 -76.5q-116 0 -190 74.5t-74 171.5z" />
<glyph d="M41 195v133l307 420h184v-420h103v-133h-103v-195h-143v195h-348zM201 328h188v258z" />
<glyph d="M82 236h143q0 -46 35.5 -79.5t87.5 -33.5q55 0 89 35t34 90q0 64 -42 97.5t-107 33.5q-82 0 -164 -14l-56 106l97 277h385v-134h-297l-45 -120q40 18 100 18q123 0 197.5 -70t74.5 -186q0 -110 -75.5 -188t-190.5 -78q-118 0 -192 74.5t-74 171.5z" />
<glyph d="M82 369q1 76 19 144t52.5 124t91 88.5t128.5 32.5q96 0 160.5 -61t64.5 -165h-137q0 48 -28 73.5t-71 25.5q-48 0 -80 -33.5t-45 -77t-16 -96.5q55 55 152 55q112 0 178.5 -70t66.5 -173q0 -102 -71.5 -174t-184.5 -72q-68 0 -124.5 30t-90.5 82q-65 97 -65 267zM246 236 q0 -48 32 -80.5t84 -32.5q49 0 80 32.5t31 80.5q0 51 -31.5 83.5t-83.5 32.5q-48 0 -80 -32.5t-32 -83.5z" />
<glyph d="M92 614v134h533v-123q-132 -247 -267 -625h-143v31q35 95 78.5 197t68.5 156.5t66.5 140.5t42.5 89h-379z" />
<glyph d="M82 215q0 59 27.5 104.5t74.5 69.5q-82 59 -82 154q0 97 71.5 156t174.5 59t174.5 -59t71.5 -156q0 -46 -22 -87t-60 -67q47 -24 74.5 -70t27.5 -104q0 -95 -73 -160t-193 -65t-193 65t-73 160zM225 219q0 -43 34.5 -69.5t88.5 -26.5q55 0 89 26.5t34 69.5q0 49 -35 77 t-88 28q-50 0 -86.5 -28t-36.5 -77zM246 535q0 -34 27.5 -59t74.5 -25q48 0 75.5 24.5t27.5 59.5q0 39 -29 64.5t-74 25.5t-73.5 -25.5t-28.5 -64.5z" />
<glyph d="M78 512q0 102 71.5 174t184.5 72q68 0 124 -30.5t91 -82.5q65 -97 65 -266q-1 -76 -18.5 -144t-52 -124t-91 -88.5t-128.5 -32.5q-96 0 -161 60.5t-65 164.5h138q0 -48 27.5 -73t70.5 -25q48 0 80 33.5t45 77t16 96.5q-56 -56 -151 -56q-112 0 -179 70.5t-67 173.5z M223 512q0 -52 31.5 -84.5t83.5 -32.5q48 0 80.5 33t32.5 84q0 48 -32.5 80.5t-84.5 32.5q-49 0 -80 -32.5t-31 -80.5z" />
<glyph horiz-adv-x="491" d="M68 -414l108 330h197l-129 -387z" />
<glyph horiz-adv-x="491" d="M66 1075l129 387l176 -57l-109 -330h-196z" />
<glyph horiz-adv-x="491" d="M147 1180l119 376h191l-140 -432z" />
<glyph d="M45 1808l129 131l174 -167l174 167l129 -131l-213 -200h-180z" />
<glyph horiz-adv-x="675" d="M43 1739l213 200h180l213 -200l-129 -131l-174 168l-174 -168z" />
<glyph horiz-adv-x="675" d="M147 1608l295 338l138 -129l-197 -209h-236z" />
<glyph horiz-adv-x="675" d="M80 1817l137 129l295 -338h-236z" />
<glyph horiz-adv-x="675" d="M61 1669v164h553v-164h-553z" />
<glyph horiz-adv-x="675" d="M61 1860v14h175v-2q0 -40 25.5 -71.5t76.5 -31.5t76.5 31.5t25.5 71.5v2h174v-14q0 -97 -73.5 -174.5t-202.5 -77.5t-203 77.5t-74 174.5z" />
<glyph horiz-adv-x="675" d="M111 1765q0 97 66 160.5t161 63.5t161 -63.5t66 -160.5t-66 -160t-161 -63t-161 63t-66 160zM250 1765q0 -38 25 -63t63 -25t63 25t25 63t-25 63t-63 25t-63 -25t-25 -63z" />
<glyph d="M25 1843l170 45q-9 -80 45 -80q24 0 61 19.5t81.5 39t88.5 19.5q101 0 156 -68.5t43 -189.5h-168q12 80 -43 80q-20 0 -58 -20t-88.5 -40t-99.5 -20q-93 0 -144 57t-44 158z" />
<glyph horiz-adv-x="675" d="M236 1632v226h225v-226h-225z" />
<glyph horiz-adv-x="675" d="M49 1606l193 338l159 -97l-155 -241h-197zM340 1606l272 346l142 -117l-203 -229h-211z" />
<glyph horiz-adv-x="675" d="M51 1632v226h223v-226h-223zM399 1632v226h226v-226h-226z" />
<glyph horiz-adv-x="1515" d="M31 0l450 494l-440 469h266l350 -390v983h201v-983l350 390h267l-441 -469l451 -494h-256l-371 410v-410h-201v410l-370 -410h-256z" />
<glyph horiz-adv-x="1454" d="M123 0v1556h201v-983h133q31 183 163 296.5t312 113.5q203 0 342 -141.5t139 -360.5t-139 -360t-342 -141q-180 0 -312 113t-163 296h-133v-389h-201zM655 481q0 -141 74.5 -229t202.5 -88t202 88t74 229t-74 229.5t-202 88.5t-202.5 -88.5t-74.5 -229.5z" />
<glyph horiz-adv-x="829" d="M61 276q0 117 74.5 189t202.5 100l102 21q123 23 123 110q0 46 -41 76.5t-102 30.5q-62 0 -103 -30.5t-41 -76.5h-204q15 128 114.5 207.5t233.5 79.5q84 0 160 -32.5t127 -99.5t51 -155q0 -112 -74.5 -186.5t-202.5 -106.5q-64 -15 -102 -22q-123 -21 -123 -105 q0 -49 40.5 -82.5t113.5 -33.5q76 0 131 50.5t63 127.5l184 -72q-31 -132 -132 -209t-246 -77q-146 0 -247.5 86.5t-101.5 209.5z" />
<glyph horiz-adv-x="1064" d="M102 369q0 -172 104.5 -280.5t285.5 -108.5q64 0 129.5 29t95.5 73l10 10l10 -10l21 -82h184v963h-205v-584q-5 -89 -70.5 -152t-154.5 -63q-199 0 -205 205v594h-205v-594zM246 1116v154h553v-154h-553z" />
<glyph horiz-adv-x="1024" d="M31 0l381 963h202l379 -963h-213l-268 702l-268 -702h-213z" />
<glyph horiz-adv-x="1064" d="M123 0v963h184l21 -82l10 -11l10 11q30 44 95.5 73t129.5 29q181 0 285.5 -108.5t104.5 -280.5v-594h-205v594q-9 205 -205 205q-90 0 -156 -63.5t-69 -153.5v-582h-205z" />
<glyph horiz-adv-x="1617" d="M123 0v963h184l21 -82l10 -11l10 11q30 44 95.5 73t129.5 29q108 0 187.5 -43.5t120.5 -120.5l51 62q38 45 105 73.5t130 28.5q165 0 257 -95.5t92 -252.5v-635h-205v614q0 91 -43 138t-121 47q-90 0 -156 -63.5t-69 -153.5v-582h-205v614q0 91 -43 138t-121 47 q-90 0 -156 -63.5t-69 -153.5v-582h-205z" />
<glyph horiz-adv-x="1085" d="M102 369v594h205v-594q6 -205 205 -205q89 0 154.5 63t70.5 152v584h205v-779h123v-430h-205v246h-102l-21 82l-10 10l-10 -10q-30 -44 -95.5 -73t-129.5 -29q-181 0 -285.5 108.5t-104.5 280.5z" />
<glyph horiz-adv-x="1617" d="M102 328v635h205v-615q0 -91 43 -137.5t121 -46.5q90 0 156 63.5t69 153.5v582h205v-615q0 -91 43 -137.5t121 -46.5q90 0 156 63.5t69 153.5v582h205v-963h-184l-21 82l-10 10l-10 -10q-30 -44 -96 -73t-130 -29q-108 0 -187 43t-120 120l-51 -61q-38 -45 -105 -73.5 t-130 -28.5q-165 0 -257 95.5t-92 252.5z" />
<glyph horiz-adv-x="1638" d="M102 328v635h205v-615q0 -91 43 -137.5t121 -46.5q90 0 156 63.5t69 153.5v582h205v-615q0 -91 43 -137.5t121 -46.5q90 0 156 63.5t69 153.5v582h205v-779h123v-430h-205v246h-102l-21 82l-10 10l-10 -10q-30 -44 -96 -73t-130 -29q-108 0 -187 43t-120 120l-51 -61 q-38 -45 -105 -73.5t-130 -28.5q-165 0 -257 95.5t-92 252.5z" />
<glyph horiz-adv-x="1064" d="M20 778v185h347v-297l12 -11l10 11q88 88 225 88q93 0 176.5 -46t138 -136t54.5 -203q0 -159 -115.5 -274t-294.5 -115q-181 0 -295 112.5t-114 278.5v407h-144zM365 369q0 -82 56.5 -143.5t151.5 -61.5q90 0 147.5 57.5t57.5 136.5q0 99 -56.5 157t-150.5 58 q-86 0 -146 -57t-60 -147z" />
<glyph horiz-adv-x="1024" d="M123 371v592h203v-297l12 -11l10 11q88 88 225 88q93 0 176.5 -46t138 -136t54.5 -203q0 -159 -115.5 -274t-294.5 -115q-181 0 -295 112.5t-114 278.5zM324 369q0 -82 56.5 -143.5t151.5 -61.5q90 0 147.5 57.5t57.5 136.5q0 99 -56.5 157t-150.5 58q-86 0 -146 -57 t-60 -147z" />
<glyph horiz-adv-x="983" d="M123 0v1556h205v-983l389 390h266l-463 -463l484 -500h-267l-409 410v-410h-205z" />
<glyph horiz-adv-x="1290" d="M41 0l479 1495h250l479 -1495h-229l-377 1198l-373 -1198h-229z" />
<glyph horiz-adv-x="983" d="M10 -63l195 63q0 -98 73.5 -161.5t182.5 -63.5q108 0 179 63t71 162q0 97 -74 159.5t-178 65.5h-172v185q113 -2 164 0q108 5 171.5 59t63.5 145q0 85 -62.5 139t-162.5 54q-102 0 -163.5 -51t-61.5 -142h-195q0 113 61 199t155 128t204 42q82 0 156.5 -23.5t134 -68 t94.5 -116.5t35 -161q0 -98 -51.5 -171.5t-133.5 -114.5q93 -50 154 -135.5t61 -192.5q0 -120 -61 -214.5t-163.5 -145t-225.5 -50.5q-172 0 -300 96t-151 251z" />
<glyph horiz-adv-x="1064" d="M102 369v594h205v-594q6 -205 205 -205q89 0 154.5 63t70.5 152v584h205v-963h-184l-21 82l-10 10l-10 -10q-30 -44 -95.5 -73t-129.5 -29q-181 0 -285.5 108.5t-104.5 280.5z" />
<glyph horiz-adv-x="1167" d="M123 451v645q0 133 64 229.5t164.5 142t221.5 45.5q82 0 159.5 -26.5t139.5 -75.5t100 -125.5t38 -169.5q0 -103 -61.5 -189t-149.5 -118q115 -33 200.5 -137.5t85.5 -243.5q0 -194 -134 -320t-347 -126t-347 133.5t-134 335.5zM324 440q0 -117 78.5 -194.5t201.5 -77.5 q126 0 200.5 71.5t74.5 188.5q0 122 -88 194t-228 70q-63 0 -92 -2v195h61q125 2 201 60.5t76 160.5q0 105 -69 165t-167 60q-107 0 -178 -57t-71 -168v-666z" />
<glyph horiz-adv-x="1167" d="M72 492q0 144 67.5 257.5t179 173.5t244.5 60q69 0 139.5 -28t116.5 -74l10 -11l13 11l18 82h184v-973q0 -126 -64 -224t-168 -149t-228 -51q-173 0 -305.5 96t-155.5 248l194 63q7 -101 82 -160t185 -59q117 0 188.5 60t71.5 166v122l-13 11l-10 -11q-46 -46 -117.5 -74 t-140.5 -28q-133 0 -244.5 60t-179 174t-67.5 258zM276 492q0 -134 81 -221t216 -87q123 0 205 88.5t82 219.5t-82 219t-205 88q-135 0 -216 -87t-81 -220z" />
<glyph horiz-adv-x="1433" d="M20 205h144l418 1290h252l415 -1290h144v-512h-215v307h-942v-307h-216v512zM391 205h633l-317 1014z" />
<glyph horiz-adv-x="1658" d="M41 758q0 228 149 375t404 147h129v338h213v-338h129q255 0 404 -147t149 -375t-149 -375t-404 -147h-129v-338h-213v338h-129q-254 0 -403.5 147t-149.5 375zM256 758q0 -139 83.5 -230.5t244.5 -91.5h139v643h-139q-161 0 -244.5 -91t-83.5 -230zM936 436h139 q161 0 244.5 91.5t83.5 230.5t-83.5 230t-244.5 91h-139v-643z" />
<glyph horiz-adv-x="1331" d="M41 0l512 1495h225l512 -1495h-215l-133 389h-555l-131 -389h-215zM348 1817l137 129l295 -338h-235zM457 594h415l-206 614z" />
<glyph horiz-adv-x="1167" d="M164 0v1495h901v-205h-686v-430h665v-205h-665v-450h686v-205h-901zM303 1817l137 129l295 -338h-235z" />
<glyph horiz-adv-x="1413" d="M164 0v1495h213v-1106l637 1106h235v-1495h-213v1126l-637 -1126h-235zM449 1817l137 129l295 -338h-236z" />
<glyph horiz-adv-x="1740" d="M82 748q0 214 105.5 395.5t287 287t395.5 105.5q161 0 307 -62.5t251.5 -167.5t168 -251t62.5 -307t-62.5 -307t-168 -251.5t-251.5 -168t-307 -62.5t-307 62.5t-251 168t-167.5 251.5t-62.5 307zM297 745q0 -253 160.5 -417t412.5 -164t412 164t160 417q0 256 -160 421 t-412 165q-125 0 -232 -44t-181.5 -121.5t-117 -186t-42.5 -234.5zM569 1817l138 129l294 -338h-235z" />
<glyph horiz-adv-x="1126" d="M41 1495h235l304 -696l311 696h235l-675 -1495h-230l244 545zM307 1817l137 129l295 -338h-235z" />
<glyph horiz-adv-x="1413" d="M20 1290v205h502v-635h369q201 0 331 -119.5t130 -310.5t-130 -310.5t-331 -119.5h-584v1290h-287zM82 1817l137 129l295 -338h-235zM522 205h379q100 0 168 58t68 167t-68 167t-168 58h-379v-450z" />
<glyph horiz-adv-x="1765" d="M164 0v1495h215v-635h369q201 0 330.5 -119.5t129.5 -310.5t-129.5 -310.5t-330.5 -119.5h-584zM379 205h379q99 0 167 58t68 167t-68 167t-167 58h-379v-450zM612 1817l138 129l294 -338h-235zM1346 0v205h34v1085h-34v205h286v-205h-35v-1085h35v-205h-286z" />
<glyph horiz-adv-x="1515" d="M61 246l144 143q160 -225 450 -225q237 0 382.5 135t172.5 356h-862v205h858q-33 210 -179.5 340.5t-371.5 130.5q-280 0 -440 -225l-143 143q106 136 264.5 211.5t329.5 75.5q216 0 392.5 -105.5t276 -286.5t99.5 -399q0 -162 -59 -307t-161 -250.5t-247.5 -167 t-311.5 -61.5q-171 0 -329.5 75.5t-264.5 211.5zM326 1817l137 129l295 -338h-236z" />
<glyph horiz-adv-x="2119" d="M129 0v205h35v1085h-35v205h287v-205h-37v-430h209q17 143 79 268t155.5 215t219.5 141.5t267 51.5q206 0 373.5 -105t261.5 -285t94 -398t-94 -398.5t-261.5 -285.5t-373.5 -105q-144 0 -272 53.5t-221.5 146.5t-154 221t-75.5 275h-207v-450h37v-205h-287zM797 745 q0 -159 61 -290t179 -211t272 -80t272 80t179 211t61 290q0 161 -61 293t-179 212.5t-272 80.5t-272 -80.5t-179 -212.5t-61 -293zM965 1817l137 129l295 -338h-236z" />
<glyph horiz-adv-x="1249" d="M61 0v41l506 614q-124 0 -231.5 50.5t-175.5 148t-68 221.5q0 129 64.5 226t168 145.5t228.5 48.5h532v-1495h-215v655h-41l-524 -655h-244zM307 1075q0 -96 70 -155.5t166 -59.5h327v430h-327q-96 0 -166 -59.5t-70 -155.5zM428 1817l137 129l295 -338h-235z" />
<glyph horiz-adv-x="1167" d="M61 481q0 -145 67.5 -260.5t179.5 -178t245 -62.5q76 0 148 28t118 74l10 10l11 -10l20 -82h184v963h-184l-20 -82l-11 -11l-10 11q-46 46 -118 74t-148 28q-99 0 -189 -37t-157 -102t-106.5 -159.5t-39.5 -203.5zM258 1358l148 106l256 -389h-201zM264 481 q0 137 79 227.5t220 90.5q129 0 213 -92.5t84 -225.5t-84 -225t-213 -92q-141 0 -220 90t-79 227z" />
<glyph horiz-adv-x="1034" d="M61 481q0 220 134.5 361t336.5 141q123 0 225.5 -60t164 -173t61.5 -258l-20 -62h-697q0 -112 75.5 -189t201.5 -77q89 0 151 39.5t86 103.5l172 -82q-65 -113 -172 -179t-248 -66q-128 0 -235 62.5t-171.5 178t-64.5 260.5zM254 1358l147 106l256 -389h-200zM276 610 h492q-8 80 -76 134.5t-160 54.5q-102 0 -166.5 -52t-89.5 -137z" />
<glyph horiz-adv-x="1064" d="M102 369q0 -172 104.5 -280.5t285.5 -108.5q64 0 129.5 29t95.5 73l10 10l10 -10l21 -82h184v963h-205v-584q-5 -89 -70.5 -152t-154.5 -63q-199 0 -205 205v594h-205v-594zM248 1358l147 106l256 -389h-200z" />
<glyph horiz-adv-x="1126" d="M61 481q0 144 70 260.5t184.5 179t247.5 62.5t247.5 -62.5t184.5 -179t70 -260.5t-70 -260t-184.5 -178.5t-247.5 -62.5t-247.5 62.5t-184.5 178.5t-70 260zM266 481q0 -137 78 -227t219 -90t219 90t78 227t-78 227.5t-219 90.5t-219 -90.5t-78 -227.5zM279 1358l147 106 l256 -389h-201z" />
<glyph horiz-adv-x="880" d="M20 963l324 -836l-201 -537h205l512 1373h-205l-215 -578l-213 578h-207zM176 1358l148 106l256 -389h-201z" />
<glyph horiz-adv-x="1064" d="M-37 1358l148 106l256 -389h-201zM20 778h144v-407q0 -166 114 -278.5t295 -112.5q179 0 294.5 115t115.5 274q0 113 -54.5 203t-138 136t-176.5 46q-137 0 -225 -88l-10 -11l-12 11v297h-347v-185zM365 369q0 90 60 147t146 57q94 0 150.5 -58t56.5 -157 q0 -79 -57.5 -136.5t-147.5 -57.5q-95 0 -151.5 61.5t-56.5 143.5z" />
<glyph horiz-adv-x="1269" d="M123 0h348q181 0 285 94t104 244t-104 244t-285 94h-143v287h-205v-963zM328 184v308h153q83 0 128.5 -42t45.5 -112t-45.5 -112t-128.5 -42h-153zM358 1358l148 106l256 -389h-201zM942 0h205v963h-205v-963z" />
<glyph horiz-adv-x="1024" d="M41 225q62 -111 175 -178t255 -67q129 0 241 62.5t181.5 178.5t69.5 260t-69.5 260.5t-181.5 179t-241 62.5q-142 0 -254 -67.5t-174 -178.5l170 -102q27 67 94 115.5t154 48.5q117 0 193 -61t100 -165h-426v-180h426q-22 -106 -98 -167.5t-195 -61.5q-87 0 -155 48.5 t-95 115.5zM168 1358l147 106l256 -389h-200z" />
<glyph horiz-adv-x="1454" d="M123 0v1556h201v-983h133q31 183 163 296.5t312 113.5q203 0 342 -141.5t139 -360.5t-139 -360t-342 -141q-180 0 -312 113t-163 296h-133v-389h-201zM625 1358l147 106l256 -389h-201zM655 481q0 -141 74.5 -229t202.5 -88t202 88t74 229t-74 229.5t-202 88.5 t-202.5 -88.5t-74.5 -229.5z" />
<glyph horiz-adv-x="983" d="M82 0h215l317 393h37v-393h189v963h-400q-172 0 -260 -80t-88 -215q0 -47 21 -93.5t59 -85t98 -64.5t131 -32l-319 -373v-20zM262 1358l148 106l256 -389h-201zM287 676q0 55 36 89t101 34h231v-246h-221q-66 0 -106.5 34t-40.5 89z" />
<glyph horiz-adv-x="1024" d="M61 287q0 133 95.5 207t263.5 88l285 32v21q0 88 -57.5 131t-155.5 43q-97 0 -151 -40t-54 -103h-205q16 132 125.5 224.5t284.5 92.5q63 0 121.5 -13.5t111 -43t91.5 -72t62 -104.5t23 -136v-614h-164l-20 92l-10 10l-11 -10q-128 -112 -286 -112q-155 0 -252 79.5 t-97 227.5zM258 287q0 -60 48 -94.5t124 -34.5q117 0 198.5 62.5t96.5 168.5v68q-49 -17 -285 -37q-182 -15 -182 -133z" />
<glyph horiz-adv-x="1024" d="M61 287q0 -148 97 -227.5t252 -79.5q158 0 286 112l11 10l10 -10l20 -92h164v614q0 74 -23 136t-62 104.5t-91.5 72t-111 43t-121.5 13.5q-175 0 -284.5 -92.5t-125.5 -224.5h205q0 63 54 103t151 40q98 0 155.5 -43t57.5 -131v-21q-20 -9 -285 -32q-168 -14 -263.5 -88 t-95.5 -207zM215 1358l147 106l256 -389h-200zM258 287q0 118 182 133q105 9 176 18t90 14l19 5v-68q-15 -106 -96.5 -168.5t-198.5 -62.5q-76 0 -124 34.5t-48 94.5z" />
<glyph horiz-adv-x="1024" d="M61 287q0 -148 97 -227.5t252 -79.5q158 0 286 112l11 10l10 -10l20 -92h164v614q0 74 -23 136t-62 104.5t-91.5 72t-111 43t-121.5 13.5q-175 0 -284.5 -92.5t-125.5 -224.5h205q0 63 54 103t151 40q98 0 155.5 -43t57.5 -131v-21q-20 -9 -285 -32q-168 -14 -263.5 -88 t-95.5 -207zM258 287q0 118 182 133q105 9 176 18t90 14l19 5v-68q-15 -106 -96.5 -168.5t-198.5 -62.5q-76 0 -124 34.5t-48 94.5zM379 1075l256 389l147 -106l-202 -283h-201z" />
<glyph horiz-adv-x="1024" d="M61 287q0 133 95.5 207t263.5 88l285 32v21q0 88 -57.5 131t-155.5 43q-97 0 -151 -40t-54 -103h-205q16 132 125.5 224.5t284.5 92.5q63 0 121.5 -13.5t111 -43t91.5 -72t62 -104.5t23 -136v-614h-164l-20 92l-10 10l-11 -10q-128 -112 -286 -112q-155 0 -252 79.5 t-97 227.5zM211 1186l186 217h205l186 -217l-120 -111l-168 197l-168 -197zM258 287q0 -60 48 -94.5t124 -34.5q117 0 198.5 62.5t96.5 168.5v68q-49 -17 -285 -37q-182 -15 -182 -133z" />
<glyph horiz-adv-x="1024" d="M61 287q0 -148 97 -227.5t252 -79.5q158 0 286 112l11 10l10 -10l20 -92h164v614q0 74 -23 136t-62 104.5t-91.5 72t-111 43t-121.5 13.5q-175 0 -284.5 -92.5t-125.5 -224.5h205q0 63 54 103t151 40q98 0 155.5 -43t57.5 -131v-21q-20 -9 -285 -32q-168 -14 -263.5 -88 t-95.5 -207zM203 1280l151 49q-2 -45 6 -64.5t37 -19.5q24 0 57 21.5t73.5 43t84.5 21.5q100 0 148.5 -63.5t36.5 -182.5h-152q3 42 -5.5 61t-35.5 19q-20 0 -52.5 -22t-77 -44t-93.5 -22q-90 0 -137 55t-41 148zM258 287q0 118 182 133q105 9 176 18t90 14l19 5v-68 q-15 -106 -96.5 -168.5t-198.5 -62.5q-76 0 -124 34.5t-48 94.5z" />
<glyph horiz-adv-x="1024" d="M61 287q0 -148 97 -227.5t252 -79.5q158 0 286 112l11 10l10 -10l20 -92h164v614q0 74 -23 136t-62 104.5t-91.5 72t-111 43t-121.5 13.5q-175 0 -284.5 -92.5t-125.5 -224.5h205q0 63 54 103t151 40q98 0 155.5 -43t57.5 -131v-21q-20 -9 -285 -32q-168 -14 -263.5 -88 t-95.5 -207zM231 1137v225h203v-225h-203zM258 287q0 118 182 133q105 9 176 18t90 14l19 5v-68q-15 -106 -96.5 -168.5t-198.5 -62.5q-76 0 -124 34.5t-48 94.5zM580 1137v225h204v-225h-204z" />
<glyph horiz-adv-x="1024" d="M61 287q0 -148 97 -227.5t252 -79.5q158 0 286 112l11 10l10 -10l20 -92h164v614q0 74 -23 136t-62 104.5t-91.5 72t-111 43t-121.5 13.5q-175 0 -284.5 -92.5t-125.5 -224.5h205q0 63 54 103t151 40q98 0 155.5 -43t57.5 -131v-21q-20 -9 -285 -32q-168 -14 -263.5 -88 t-95.5 -207zM227 1116v154h553v-154h-553zM258 287q0 118 182 133q105 9 176 18t90 14l19 5v-68q-15 -106 -96.5 -168.5t-198.5 -62.5q-76 0 -124 34.5t-48 94.5z" />
<glyph horiz-adv-x="1024" d="M61 287q0 -148 97 -227.5t252 -79.5q158 0 286 112l11 10l10 -10l20 -92h164v614q0 74 -23 136t-62 104.5t-91.5 72t-111 43t-121.5 13.5q-175 0 -284.5 -92.5t-125.5 -224.5h205q0 63 54 103t151 40q98 0 155.5 -43t57.5 -131v-21q-20 -9 -285 -32q-168 -14 -263.5 -88 t-95.5 -207zM229 1317v12h166v-4q0 -42 29.5 -73t81.5 -31t81 31t29 73v4h166v-12q0 -98 -76 -172t-200 -74q-125 0 -201 74t-76 172zM258 287q0 118 182 133q105 9 176 18t90 14l19 5v-68q-15 -106 -96.5 -168.5t-198.5 -62.5q-76 0 -124 34.5t-48 94.5z" />
<glyph horiz-adv-x="1024" d="M61 287q0 133 95.5 207t263.5 88l285 32v21q0 88 -57.5 131t-155.5 43q-97 0 -151 -40t-54 -103h-205q16 132 125.5 224.5t284.5 92.5q63 0 121.5 -13.5t111 -43t91.5 -72t62 -104.5t23 -136v-614h-164l-20 92l-10 10l-11 -10q-128 -112 -286 -112q-155 0 -252 79.5 t-97 227.5zM258 287q0 -60 48 -94.5t124 -34.5q117 0 198.5 62.5t96.5 168.5v68q-49 -17 -285 -37q-182 -15 -182 -133zM266 1260q0 94 66 156.5t160 62.5t159.5 -62.5t65.5 -156.5t-66 -157t-159 -63q-94 0 -160 63t-66 157zM399 1260q0 -40 26.5 -66.5t66.5 -26.5t66 26.5 t26 66.5t-26 66t-66 26t-66.5 -26t-26.5 -66z" />
<glyph horiz-adv-x="1024" d="M61 287q0 -148 97 -227.5t252 -79.5q158 0 286 112l11 10l10 -10l20 -92h164v614q0 74 -23 136t-62 104.5t-91.5 72t-111 43t-121.5 13.5q-175 0 -284.5 -92.5t-125.5 -224.5h205q0 63 54 103t151 40q98 0 155.5 -43t57.5 -131v-21q-20 -9 -285 -32q-168 -14 -263.5 -88 t-95.5 -207zM258 287q0 118 182 133q105 9 176 18t90 14l19 5v-68q-15 -106 -96.5 -168.5t-198.5 -62.5q-76 0 -124 34.5t-48 94.5zM268 1257q0 -94 66 -156.5t160 -62.5t159.5 62.5t65.5 156.5t-66 157t-159 63q-94 0 -160 -63t-66 -157zM401 1257q0 40 26.5 66.5 t66.5 26.5t66 -26.5t26 -66.5t-26 -66t-66 -26t-66.5 26t-26.5 66zM406 1526l256 389l147 -107l-203 -282h-200z" />
<glyph horiz-adv-x="1024" d="M61 287q0 133 95.5 207t263.5 88l285 32v21q0 88 -57.5 131t-155.5 43q-97 0 -151 -40t-54 -103h-205q16 132 125.5 224.5t284.5 92.5q63 0 121.5 -13.5t111 -43t91.5 -72t62 -104.5t23 -136v-614l-57 -117q-10 -20 -10 -47q0 -34 28.5 -56t67.5 -22h45l-45 -168h-10 q-126 0 -203.5 52.5t-77.5 138.5q0 41 19 89t79 130l-20 92l-10 10l-11 -10q-128 -112 -286 -112q-155 0 -252 79.5t-97 227.5zM258 287q0 -60 48 -94.5t124 -34.5q117 0 198.5 62.5t96.5 168.5v68q-49 -17 -285 -37q-182 -15 -182 -133z" />
<glyph horiz-adv-x="655" d="M41 778v185h174v204l160 205h41v-409h198v-185h-198v-594l20 -184h-221v778h-174z" />
<glyph d="M41 778v185h174v204l160 205h41v-409h198v-185h-198v-594l20 -184h-221v778h-174zM483 1180l119 376h191l-140 -432z" />
<glyph horiz-adv-x="655" d="M41 778v185h174v204l160 205h41v-409h198v-185h-198v-594l20 -184h-221v778h-174zM123 -414l108 330h197l-129 -387z" />
<glyph horiz-adv-x="655" d="M41 778v185h174v204l160 205h41v-409h198v-185h-198v-594l20 -184h-35v-47q54 -9 100 -57t46 -121q0 -96 -70 -155.5t-184 -59.5q-111 0 -195 69l84 142q6 -5 15.5 -13t40 -21t59.5 -13q34 0 53 14t19 37q0 24 -19.5 37.5t-52.5 13.5h-47v174h-35v778h-174z" />
<glyph horiz-adv-x="655" d="M41 451v184h174v143h-174v185h174v204l160 205h41v-409h198v-185h-198v-143h198v-184h-198v-267l20 -184h-221v451h-174z" />
<glyph horiz-adv-x="1126" d="M143 0v203h349v1054l-113 -151h-215v41l287 348h245v-1292h328v-203h-881z" />
<glyph horiz-adv-x="1640" d="M61 287q0 133 95.5 207t263.5 88l285 32v21q0 88 -57.5 131t-155.5 43q-97 0 -151 -40t-54 -103h-205q16 132 125.5 224.5t284.5 92.5q162 0 276 -92l72 -84l71 84q39 44 108 68t148 24q85 0 163.5 -34t139.5 -95.5t96 -156t31 -205.5l-20 -62l-676 4q0 -115 66 -192.5 t190 -77.5q88 0 146 39t83 104l170 -82q-140 -245 -399 -245q-146 0 -235 92l-21 30v-102h-164l-20 92l-10 10l-11 -10q-128 -112 -286 -112q-155 0 -252 79.5t-97 227.5zM258 287q0 -60 48 -94.5t124 -34.5q117 0 198.5 62.5t96.5 168.5v64q-49 -13 -285 -33 q-182 -15 -182 -133zM901 610h483q0 79 -67 134t-160 55q-195 0 -256 -189z" />
<glyph horiz-adv-x="1310" d="M123 440q0 123 56 221t153 158q-148 118 -148 297q0 110 58 202.5t154.5 145t207.5 52.5t207.5 -52.5t154.5 -145t58 -202.5h-205q0 97 -60 151t-155 54q-94 0 -154.5 -58.5t-60.5 -156.5q0 -86 63.5 -145.5t161.5 -59.5v-184q-118 0 -202 -78.5t-84 -198.5 q0 -116 77 -191t199 -75t199.5 75t77.5 191v31h-144v184h471v-184h-123v-31q0 -119 -59.5 -223.5t-171 -170.5t-250.5 -66t-250.5 64t-171 168.5t-59.5 227.5z" />
<glyph d="M102 174v21l144 184h184v-615h184v-133h-512v133h185v469l-41 -59h-144z" />
<glyph d="M102 1116v133h185v469l-41 -59h-144v20l144 185h184v-615h184v-133h-512z" />
<glyph d="M102 748v133h185v469l-41 -60h-144v21l144 184h184v-614h184v-133h-512z" />
<glyph d="M102 0v133h185v469l-41 -59h-144v20l144 185h184v-615h184v-133h-512z" />
<glyph horiz-adv-x="1187" d="M41 748v133h164v454l-31 -45h-133v21l123 184h184v-614h164v-82l-47 -51h-424zM184 369l697 757h143l-698 -757h-142zM471 195v133l389 420h164v-420h82v-133h-82v-195h-143v195h-410zM645 328h236v258z" />
<glyph horiz-adv-x="1187" d="M41 748v133h164v454l-31 -45h-133v21l123 184h184v-614h164v-82l-47 -51h-424zM184 369l697 757h143l-698 -757h-142zM635 0v82q2 51 31.5 96t64.5 73.5t88.5 69t81.5 68.5q25 25 38.5 40t28.5 42t15 51q0 46 -28 74.5t-74 28.5t-74.5 -28.5t-28.5 -74.5v-30h-143v20 q0 116 73 181t173 65q108 0 176.5 -65t68.5 -171q0 -104 -110 -205q-32 -30 -88 -68.5t-87.5 -66t-31.5 -49.5h321v-133h-495z" />
<glyph horiz-adv-x="901" d="M92 965q0 102 71 159t199 68l240 27v20q0 62 -50 98.5t-122 36.5q-68 0 -113.5 -30t-58.5 -74h-156q13 98 104 169.5t224 71.5q61 0 117.5 -17t104.5 -50t77 -88.5t29 -126.5v-481h-129l-25 71l-10 10l-10 -10q-36 -36 -96 -62t-130 -26q-118 0 -192 60.5t-74 173.5z M244 965q0 -45 38 -71t87 -26q90 0 160.5 48.5t80.5 127.5v52q-12 -6 -225 -29q-72 -8 -106.5 -32t-34.5 -70z" />
<glyph horiz-adv-x="1884" d="M82 512v184h1456l-33 21l-440 338l123 153l614 -512v-184l-614 -512l-123 154l440 338l33 20h-1456z" />
<glyph horiz-adv-x="1884" d="M82 512v184l614 512l123 -153l-440 -338l-35 -21h1458v-184h-1458l35 -20l440 -338l-123 -154z" />
<glyph horiz-adv-x="1433" d="M113 451l153 122l338 -440l21 -35v1458h184v-1458l20 35l338 440l154 -122l-512 -615h-184z" />
<glyph horiz-adv-x="1433" d="M113 942l512 614h184l512 -614l-154 -123l-338 441l-20 32v-1456h-184v1456l-21 -32l-338 -441z" />
<glyph horiz-adv-x="1556" d="M123 1223l131 131l797 -74l-23 -195l-551 72l-39 8l1026 -1034l-131 -131l-1022 1032l8 -33l72 -548l-194 -23z" />
<glyph horiz-adv-x="1556" d="M123 131l74 795l194 -23l-72 -549l-8 -32l1022 1032l131 -131l-1026 -1037l39 11l551 71l23 -194l-797 -74z" />
<glyph horiz-adv-x="1556" d="M92 131l1024 1034l-37 -8l-551 -72l-22 195l797 74l131 -131l-74 -795l-195 23l72 548l8 33l-1022 -1032z" />
<glyph horiz-adv-x="1556" d="M92 1223l131 131l1022 -1032l-8 32l-72 549l195 23l74 -795l-131 -131l-797 74l22 194l551 -71l37 -11z" />
<glyph horiz-adv-x="1658" d="M82 741v13h582v-13h-582zM86 678l2 -14l459 49l-2 12zM86 817l2 14l459 -49l-2 -12zM98 602l4 -14l566 119l-2 12zM98 893l4 14l566 -119l-2 -12zM117 526l4 -14l438 141l-4 13zM117 969l4 14l438 -141l-4 -13zM143 453l7 -13l532 234l-6 12zM143 1042l7 13l532 -234 l-6 -12zM178 383l6 -12l404 229l-8 12zM178 1112l6 12l404 -229l-8 -12zM221 317l8 -12l471 338l-8 10zM221 1178l8 12l471 -338l-8 -10zM270 254l11 -10l342 309l-9 10zM270 1241l11 10l342 -309l-9 -10zM326 199l10 -11l389 433l-10 8zM326 1296l10 11l389 -433l-10 -8z M385 150l12 -11l273 373l-13 8zM385 1346l12 10l273 -373l-13 -8zM453 104l12 -8l287 506l-13 6zM453 1391l12 8l287 -506l-13 -6zM522 68l13 -7l188 422l-12 6zM522 1427l13 7l188 -422l-12 -6zM594 41l14 -4l176 551l-12 4zM594 1454l14 4l176 -551l-12 -4zM670 20l14 -4 l94 451l-14 2zM670 1475l14 4l94 -451l-14 -2zM743 8l15 -2l61 576l-12 2zM743 1487l15 2l61 -576l-12 -2zM823 0h15v461h-15v-461zM823 1034v461h15v-461h-15zM842 582l12 2l64 -576l-15 -2zM842 913l12 -2l64 576l-15 2zM877 588l12 4l178 -551l-14 -4zM877 907l12 -4 l178 551l-14 4zM883 467l14 2l94 -449l-14 -4zM883 1028l14 -2l94 449l-14 4zM909 602l13 6l286 -504l-12 -8zM909 893l13 -6l286 504l-12 8zM936 621l10 8l389 -430l-10 -11zM936 874l10 -8l389 430l-10 11zM938 483l12 6l189 -421l-13 -7zM938 1012l12 -6l189 421l-13 7z M961 643l8 10l471 -336l-8 -12zM961 852l8 -10l471 336l-8 12zM979 674l6 12l533 -233l-7 -13zM979 821l6 -12l533 233l-7 13zM991 512l13 8l272 -370l-12 -11zM991 983l13 -8l272 371l-12 10zM993 707l2 12l568 -117l-4 -14zM993 788l2 -12l568 117l-4 14zM997 741h580v13 h-580v-13zM1038 553l9 10l344 -309l-11 -10zM1038 942l9 -10l344 309l-11 10zM1073 600l8 12l402 -229l-6 -12zM1073 895l8 -12l402 229l-6 12zM1102 653l4 13l438 -140l-4 -14zM1102 842l4 -13l438 140l-4 14zM1114 713l2 12l459 -47l-2 -14zM1114 782l2 -12l459 47l-2 14z " />
<glyph horiz-adv-x="983" d="M113 1167q0 137 112 233.5t267 96.5t266.5 -96.5t111.5 -233.5q0 -65 -29.5 -123.5t-68 -97t-100.5 -86.5l-37 -29q6 -5 36 -31t38.5 -34.5t30 -33.5t29 -42.5t15 -46t7.5 -59.5q0 -122 -88 -190t-211 -68t-211 68t-88 190q0 27 4 50.5t14.5 44t18.5 35.5t26.5 33.5 t28 27.5t32.5 29t31 27l-37 29q-62 48 -100.5 86.5t-68 97t-29.5 123.5zM307 1167q0 -35 20.5 -68t41.5 -52t61 -50l62 -51l61 51q40 31 61 50t41.5 52t20.5 68q0 68 -53 111t-131 43t-131.5 -43t-53.5 -111zM369 0v246h245v-246h-245zM379 584q0 -37 30.5 -61.5t82.5 -24.5 t82 24.5t30 61.5q0 13 -5 26t-16.5 25.5t-20.5 21t-26 23t-24 20.5l-20 19l-21 -19q-7 -6 -24 -20.5t-26 -23t-20.5 -21t-16.5 -25.5t-5 -26z" />
<glyph horiz-adv-x="1218" d="M41 82l602 807l-510 -510l-92 92l403 608l-311 -311l-92 92l176 381l-84 -84l-92 92v307h102v-204l164 164l92 -93l-174 -379l471 472l92 -93l-409 -614l706 707l93 -93l-691 -895l598 598l93 -92l-404 -608l311 311l93 -92l-177 -381l84 84l93 -92v-256h-103v154 l-164 -164l-92 92l174 379l-471 -471l-92 92l410 614l-707 -706z" />
<glyph horiz-adv-x="1064" d="M123 0v963h201v-656l383 656h235v-963h-201v655l-383 -655h-235z" />
<glyph horiz-adv-x="1044" d="M41 778v185h430v-287h102q181 0 285.5 -94t104.5 -244t-104.5 -244t-285.5 -94h-307v778h-225zM471 182h113q83 0 129.5 42.5t46.5 113.5t-46.5 113.5t-129.5 42.5h-113v-312z" />
<glyph horiz-adv-x="1454" d="M123 0v963h205v-390h129q31 183 163 296.5t312 113.5q203 0 342 -141.5t139 -360.5t-139 -360t-342 -141q-180 0 -312 113t-163 296h-129v-389h-205zM655 481q0 -141 74.5 -229t202.5 -88t202 88t74 229t-74 229.5t-202 88.5t-202.5 -88.5t-74.5 -229.5z" />
</font>
</defs>
</svg>
